<svg width="32" height="32" viewBox="0 0 32 32" fill="none" xmlns="http://www.w3.org/2000/svg">
<g clip-path="url(#clip0_720_1426)">
<path d="M20.6077 12.904L20.4183 12.7146C19.5261 11.8543 18.4294 11.2352 17.2317 10.916C13.3557 9.87863 9.63301 12.0746 8.57567 16.0226C8.51834 16.236 8.48767 16.476 8.43701 17.0773C8.23167 19.5706 7.64501 21.4306 6.03701 23.3173C9.05034 24.5013 12.621 25.336 15.3357 25.336C16.9494 25.334 18.5175 24.8002 19.7973 23.8173C21.0771 22.8344 21.9974 21.4572 22.4157 19.8986C22.7441 18.6759 22.7502 17.3889 22.4334 16.1631C22.1165 14.9372 21.4875 13.8144 20.6077 12.904ZM17.7197 8.28796L24.305 3.16663C24.5614 2.96746 24.8816 2.86867 25.2057 2.8888C25.5297 2.90893 25.8352 3.04659 26.065 3.27596L30.0583 7.26796C30.2881 7.4978 30.426 7.80362 30.4461 8.12795C30.4662 8.45229 30.3672 8.77281 30.1677 9.02929L25.0477 15.6133C25.4087 17.0858 25.4304 18.6212 25.1111 20.1033C24.7918 21.5854 24.1399 22.9757 23.2046 24.1689C22.2693 25.3622 21.0751 26.3274 19.7121 26.9915C18.3492 27.6556 16.8532 28.0014 15.337 28.0026C10.6663 28.0026 4.66634 26 1.33301 24C6.63967 20 5.39567 17.5866 5.99967 15.3333C7.41034 10.0666 12.4557 6.99063 17.7183 8.28796H17.7197ZM22.2703 10.7933C22.357 10.8773 22.4437 10.964 22.5277 11.052L24.041 12.564L27.341 8.3213L25.013 5.9933L20.7703 9.29329L22.2703 10.7933Z" fill="#0185B7"/>
</g>
<defs>
<clipPath id="clip0_720_1426">
<rect width="32" height="32" fill="white"/>
</clipPath>
</defs>
</svg>
