<svg width="24" height="24" viewBox="0 0 24 24" fill="none" xmlns="http://www.w3.org/2000/svg">
<path d="M5.56592 2.55469C6.65566 1.7766 8.17179 2.04072 8.93408 3.1416L10.3999 5.25879C10.8354 5.88792 10.6847 6.75057 10.062 7.19531L8.89404 8.03027L8.55713 8.27051L8.66162 8.66992C8.8664 9.45321 9.47256 10.9359 11.2681 12.7314C13.0636 14.527 14.5463 15.1331 15.3296 15.3379L15.73 15.4424L15.9702 15.1064L16.8042 13.9375C17.249 13.3149 18.1117 13.1651 18.7407 13.6006L20.8579 15.0664C21.9589 15.8289 22.2233 17.3448 21.4448 18.4346L19.7817 20.7627C19.2708 21.4779 18.3905 21.8733 17.5005 21.6504C15.545 21.1605 11.5216 19.7729 7.87451 16.126C4.22762 12.4791 2.84015 8.45568 2.3501 6.5C2.12707 5.60984 2.52251 4.72869 3.23779 4.21777L5.56592 2.55469ZM8.27588 3.59766C7.76767 2.86357 6.7573 2.68716 6.03076 3.20605L3.70264 4.86914C3.21591 5.2168 2.99343 5.7786 3.12549 6.30566C3.59395 8.17519 4.9289 12.0495 8.43994 15.5605C11.7316 18.852 15.342 20.2309 17.3208 20.7764L17.6948 20.874C18.2216 21.0058 18.7827 20.7843 19.1304 20.2979L20.7935 17.9688C21.3122 17.2423 21.1368 16.2319 20.4028 15.7236L18.2856 14.2578L17.7993 13.9209L17.4556 14.4023L16.5601 15.6572C16.2985 16.0234 15.8443 16.271 15.3433 16.1631C14.4746 15.9757 12.7579 15.353 10.7026 13.2979C8.64741 11.2426 8.02391 9.52601 7.83643 8.65723C7.72831 8.1561 7.97692 7.7021 8.34326 7.44043L9.59717 6.54395L10.0786 6.20117L9.7417 5.71484L8.27588 3.59766Z" fill="#01ADEE" stroke="#01ADEE" stroke-width="1.2"/>
</svg>
