<svg width="48" height="48" viewBox="0 0 48 48" fill="none" xmlns="http://www.w3.org/2000/svg">
<g clip-path="url(#clip0_211_2397)">
<path d="M46.4346 1.32715H36.7092C35.8447 1.32715 35.1437 2.02812 35.1437 2.89268V5.45469L32.0785 2.88312C31.2342 2.17465 30.1621 1.78456 29.0599 1.78456H14.3882C13.2859 1.78456 12.2137 2.17474 11.3693 2.88321L1.75336 10.9514C-0.259453 12.6403 -0.587953 15.6642 1.02108 17.6922C2.7159 19.8283 5.82559 20.1386 7.9075 18.3916L15.3245 12.1681H18.8035C17.0675 12.8786 15.8131 14.5515 15.7597 16.4974C15.685 19.2231 17.8679 21.4596 20.5856 21.4596H35.1436V22.9321C35.1436 23.7966 35.8446 24.4976 36.7091 24.4976H46.4345C47.2991 24.4976 48 23.7966 48 22.9321V2.89259C48.0001 2.02793 47.2992 1.32715 46.4346 1.32715ZM35.144 18.3286H20.5858V18.3286C19.6357 18.3286 18.8633 17.5482 18.8897 16.5832C18.9146 15.6745 19.7059 14.9353 20.6536 14.9353C21.3344 14.9353 26.1956 14.9353 26.8119 14.9353C27.6765 14.9353 28.3775 14.2343 28.3775 13.3697C28.3775 12.5052 27.6765 11.8042 26.8119 11.8042H24.0379L21.6127 9.76954C21.0498 9.29723 20.335 9.03707 19.6002 9.03707H15.3245C14.5897 9.03707 13.875 9.29713 13.3119 9.76963L5.89487 15.9931C5.16878 16.6021 4.07509 16.5038 3.47387 15.7461C2.90883 15.034 3.0399 13.959 3.7659 13.35L13.3819 5.28162C13.6634 5.04547 14.0208 4.91544 14.3883 4.91544H29.0601C29.4275 4.91544 29.7848 5.04547 30.0663 5.28162L35.1439 9.54163V18.3286H35.144ZM44.8691 21.3666H38.2748C38.2748 20.7102 38.2748 5.26578 38.2748 4.45803H44.8691V21.3666Z" fill="#0185B7"/>
<path d="M28.9209 25.6641C26.6713 25.6641 25.0312 26.6547 23.9956 27.571C22.9599 26.6547 21.3199 25.6641 19.0702 25.6641C15.2682 25.6641 12.5793 29.1112 12.5793 33.1885C12.5793 39.0967 17.9777 43.6537 23.2553 46.486C23.7177 46.734 24.2736 46.734 24.7359 46.486C34.0249 41.5013 35.4118 36.0151 35.4118 33.1885C35.4118 29.1174 32.7279 25.6641 28.9209 25.6641ZM23.9957 43.3184C20.1939 41.1597 15.7105 37.5341 15.7105 33.1885C15.7105 31.0288 16.9673 28.7949 19.0703 28.7949C21.3469 28.7949 22.5722 30.5944 22.6664 30.7382C23.2738 31.7544 24.7176 31.7543 25.3249 30.7382C25.4191 30.5944 26.6444 28.7949 28.9209 28.7949C31.0239 28.7949 32.2808 31.0287 32.2808 33.1885C32.2808 37.5352 27.7973 41.1597 23.9957 43.3184Z" fill="#0185B7"/>
</g>
<defs>
<clipPath id="clip0_211_2397">
<rect width="48" height="48" fill="white"/>
</clipPath>
</defs>
</svg>
