<svg width="32" height="32" viewBox="0 0 32 32" fill="none" xmlns="http://www.w3.org/2000/svg">
<path d="M20.1851 28.6567C20.1955 28.6533 20.2059 28.6495 20.2163 28.646C20.2059 28.6495 20.1955 28.6533 20.1851 28.6567ZM20.1851 28.6567C20.1697 28.6618 20.1545 28.6673 20.1392 28.6724C20.1545 28.6673 20.1697 28.6618 20.1851 28.6567ZM18.7837 29.0366C18.7677 29.04 18.7518 29.044 18.7358 29.0474C18.7518 29.044 18.7677 29.04 18.7837 29.0366ZM19.7935 28.7788C19.7401 28.7946 19.6868 28.8105 19.6333 28.8257C19.6868 28.8105 19.7401 28.7947 19.7935 28.7788ZM20.7241 28.4644C20.6692 28.4852 20.6142 28.5058 20.5591 28.5259C20.6142 28.5058 20.6692 28.4852 20.7241 28.4644ZM21.1021 28.3169C21.064 28.3327 21.025 28.3464 20.9868 28.3618C21.0704 28.328 21.1539 28.2938 21.2368 28.2583C21.1918 28.2775 21.1473 28.2981 21.1021 28.3169ZM21.6587 28.0688C21.5932 28.0996 21.5275 28.13 21.4614 28.1597C21.5274 28.13 21.5932 28.0996 21.6587 28.0688ZM23.0845 27.2905C22.6926 27.5364 22.2878 27.7626 21.8706 27.9673C22.2861 27.7632 22.6913 27.5374 23.0845 27.2905ZM27.9038 21.9995C27.6602 22.4828 27.3883 22.9535 27.0854 23.4067C26.048 24.9594 24.6993 26.2675 23.1362 27.2583C23.9578 26.7371 24.7265 26.1241 25.4253 25.4253C26.4377 24.4129 27.2706 23.2544 27.9038 21.9995ZM28.1548 21.4722C28.0978 21.5987 28.039 21.7243 27.978 21.8491C28.039 21.7244 28.0977 21.5987 28.1548 21.4722ZM28.3062 21.1245C28.2771 21.1944 28.2476 21.2641 28.2173 21.3335C28.2476 21.2641 28.277 21.1944 28.3062 21.1245ZM28.5142 20.5923C28.471 20.7098 28.4258 20.8265 28.3794 20.9429C28.4259 20.8266 28.4709 20.7098 28.5142 20.5923ZM28.6323 20.2573C28.6155 20.3073 28.598 20.357 28.5806 20.4067C28.598 20.357 28.6155 20.3073 28.6323 20.2573ZM28.8999 19.3628C28.8924 19.3915 28.8841 19.42 28.8765 19.4487C28.8842 19.4201 28.8924 19.3915 28.8999 19.3628Z" fill="#0185B7" stroke="#0185B7" stroke-width="2.67"/>
</svg>
