<svg width="16" height="16" viewBox="0 0 16 16" fill="none" xmlns="http://www.w3.org/2000/svg">
<path d="M13.0342 3.43311V3.43408C13.0435 3.43761 13.0519 3.44347 13.0576 3.45166L13.0664 3.47998V6.56689C13.0663 8.65133 12.1656 10.6349 10.5967 12.0083L7.99902 14.2808L5.40234 12.0083C4.62672 11.3296 4.00496 10.4927 3.5791 9.5542C3.15335 8.61585 2.93362 7.59731 2.93359 6.56689V3.47998C2.9336 3.46996 2.93667 3.4599 2.94238 3.45166C2.94903 3.44217 2.95729 3.436 2.96484 3.43311L7.99902 1.54443L13.0342 3.43311ZM8 5.0835C8.01285 5.08359 8.02505 5.0891 8.03418 5.09814C8.04342 5.10738 8.04883 5.12024 8.04883 5.1333V7.23389H10.1494C10.1625 7.23389 10.1753 7.23931 10.1846 7.24854C10.1938 7.25777 10.1992 7.27063 10.1992 7.28369C10.1991 7.29658 10.1937 7.30874 10.1846 7.31787C10.1753 7.32711 10.1625 7.33252 10.1494 7.33252H8.04883V9.43311C8.04883 9.44617 8.04342 9.45903 8.03418 9.46826C8.02504 9.47735 8.01288 9.48281 8 9.48291C7.98694 9.48291 7.97408 9.4775 7.96484 9.46826C7.95562 9.45903 7.9502 9.44616 7.9502 9.43311V7.33252H5.84961C5.83655 7.33252 5.82369 7.32711 5.81445 7.31787C5.80541 7.30875 5.79991 7.29653 5.7998 7.28369C5.7998 7.27067 5.80528 7.25776 5.81445 7.24854C5.82369 7.2393 5.83655 7.23389 5.84961 7.23389H7.9502V5.1333C7.9502 5.12024 7.95561 5.10738 7.96484 5.09814C7.97408 5.08894 7.98696 5.0835 8 5.0835ZM12.9678 3.51318L12.5342 3.35107L8.23438 1.73877L8 1.65088L7.76562 1.73877L3.46484 3.35107L3.03125 3.51318V6.56689C3.0314 7.58317 3.249 8.58773 3.66895 9.51318C4.08893 10.4386 4.70203 11.2638 5.4668 11.9331L7.56055 13.7651L8 14.1489L8.43945 13.7651L10.5322 11.9331C11.2971 11.2638 11.9101 10.4387 12.3301 9.51318C12.7501 8.5877 12.9677 7.58321 12.9678 6.56689V3.51318Z" fill="#0185B7" stroke="#0185B7" stroke-width="1.335"/>
</svg>
