<svg width="16" height="16" viewBox="0 0 16 16" fill="none" xmlns="http://www.w3.org/2000/svg">
<path d="M7.99984 9.66667V11M4.6665 6.68587C4.98078 6.66667 5.36823 6.66667 5.8665 6.66667H10.1332C10.6314 6.66667 11.0189 6.66667 11.3332 6.68587M4.6665 6.68587C4.27429 6.7098 3.99603 6.76367 3.75852 6.88467C3.3822 7.0764 3.07624 7.38233 2.88449 7.75867C2.6665 8.18653 2.6665 8.74653 2.6665 9.86667V10.8C2.6665 11.9201 2.6665 12.4801 2.88449 12.908C3.07624 13.2843 3.3822 13.5903 3.75852 13.782C4.18634 14 4.7464 14 5.8665 14H10.1332C11.2533 14 11.8133 14 12.2412 13.782C12.6175 13.5903 12.9234 13.2843 13.1152 12.908C13.3332 12.4801 13.3332 11.9201 13.3332 10.8V9.86667C13.3332 8.74653 13.3332 8.18653 13.1152 7.75867C12.9234 7.38233 12.6175 7.0764 12.2412 6.88467C12.0036 6.76367 11.7254 6.7098 11.3332 6.68587M4.6665 6.68587V5.33333C4.6665 3.49239 6.15889 2 7.99984 2C9.84077 2 11.3332 3.49239 11.3332 5.33333V6.68587" stroke="#0185B7" stroke-width="1.33333" stroke-linecap="round" stroke-linejoin="round"/>
</svg>
