<svg width="32" height="32" viewBox="0 0 32 32" fill="none" xmlns="http://www.w3.org/2000/svg">
<path d="M7.42139 3.40698C8.87437 2.36928 10.8951 2.72133 11.9116 4.18921L13.8667 7.01245C14.4473 7.85124 14.2466 9.00055 13.4165 9.59351L11.8579 10.7068L11.4097 11.0271L11.5493 11.5603C11.8223 12.6047 12.63 14.5813 15.0239 16.9753C17.4182 19.3696 19.3956 20.1779 20.4399 20.4509L20.9731 20.5906L21.2935 20.1414L22.4058 18.5837C22.9989 17.7535 24.1491 17.5529 24.9878 18.1335L27.811 20.0876C29.2792 21.1042 29.6311 23.1258 28.5933 24.5789L26.3755 27.6833C25.6942 28.637 24.5203 29.1643 23.3335 28.8669C20.726 28.2136 15.3612 26.3643 10.4985 21.5017C5.63563 16.6388 3.78657 11.2731 3.1333 8.66577C2.83616 7.47908 3.36337 6.30592 4.31689 5.62476L7.42139 3.40698ZM11.0347 4.79663C10.357 3.81797 9.01018 3.58337 8.0415 4.27515L4.93701 6.49194C4.28807 6.95547 3.99145 7.70426 4.16748 8.40698C4.79198 10.8995 6.5717 16.0651 11.2534 20.7468C15.6425 25.1359 20.4568 26.9737 23.0952 27.7009L23.5933 27.8328C24.2958 28.0085 25.0437 27.7121 25.5073 27.0632H25.5083L27.7251 23.9587C28.4169 22.9901 28.1825 21.6423 27.2036 20.9646L24.3804 19.0105L23.7329 18.5623L23.2739 19.2039L22.0796 20.8757C21.7308 21.3641 21.1256 21.6956 20.4575 21.5515C19.2992 21.3016 17.0105 20.4707 14.27 17.7302C11.5296 14.9898 10.6987 12.701 10.4487 11.5427C10.3046 10.8746 10.6361 10.2695 11.1245 9.92065L12.7964 8.72632L13.438 8.26733L12.9897 7.61987L11.0347 4.79663Z" fill="#0185B7" stroke="#0185B7" stroke-width="1.6"/>
</svg>
