<svg width="48" height="48" viewBox="0 0 48 48" fill="none" xmlns="http://www.w3.org/2000/svg">
<path d="M17.3604 25.4398H20.8404V33.5398C20.8404 34.7398 22.3204 35.2998 23.1204 34.3998L31.6404 24.7198C32.3804 23.8798 31.7804 22.5598 30.6604 22.5598H27.1804V14.4597C27.1804 13.2597 25.7004 12.6997 24.9004 13.5997L16.3804 23.2798C15.6404 24.1198 16.2404 25.4398 17.3604 25.4398Z" stroke="#0185B7" stroke-width="4" stroke-miterlimit="10" stroke-linecap="round" stroke-linejoin="round"/>
<path d="M23.9399 44C34.9855 44 43.9399 35.0456 43.9399 24C43.9399 12.9543 34.9855 4 23.9399 4C12.8941 4 3.93982 12.9543 3.93982 24C3.93982 35.0456 12.8941 44 23.9399 44Z" stroke="#0185B7" stroke-width="4" stroke-miterlimit="10" stroke-linecap="round" stroke-linejoin="round"/>
</svg>
