<svg xmlns="http://www.w3.org/2000/svg" width="1232" height="305" fill="none" xmlns:v="https://vecta.io/nano"><g clip-path="url(#C)"><g opacity=".5" fill-rule="evenodd"><path d="M366.948 105.507c22.131 4.098 41.426 16.278 54.706 33.367 2.401 3.084 4.601 6.33 6.588 9.718 7.85 13.371 12.35 28.946 12.35 45.571 0 44.153-31.737 80.893-73.644 88.656-9.888 19.236-22.895 36.603-38.349 51.438 7.116 1.1 14.403 1.669 21.827 1.669 72.978 0 133.074-55.141 140.9-126.033a143.36 143.36 0 0 0 .863-15.73c0-35.357-12.943-67.691-34.353-92.522C431.84 71.485 393.363 52.4 350.427 52.4c-7.423 0-14.712.57-21.827 1.669 15.455 14.835 28.46 32.203 38.348 51.438z" fill="url(#A)"/><path d="M294.002 123.83a122.71 122.71 0 0 0-38.282-35.153c-28.889 25.951-47.055 63.596-47.055 105.486s18.166 79.534 47.055 105.485a122.77 122.77 0 0 0 38.282-35.153c-20.571-16.526-33.742-41.891-33.742-70.332s13.17-53.807 33.742-70.333z" fill="url(#A)"/><path d="M255.719 88.677c19.983-17.955 45.1-30.314 72.879-34.608C293.706 20.582 246.34 0 194.162 0 86.933 0 0 86.933 0 194.162s86.933 194.162 194.162 194.162c52.176 0 99.544-20.583 134.436-54.069-27.78-4.294-52.896-16.651-72.879-34.608-18.075 10.57-39.107 16.628-61.556 16.628-67.44 0-122.114-54.673-122.114-122.115S126.722 72.046 194.163 72.046c22.45 0 43.481 6.058 61.556 16.628v.003z" fill="url(#A)"/><path d="M331.967 133.653h35.75v41.191h41.19v35.748h-41.19v41.192h-35.75v-41.192h-41.189v-35.748h41.189v-41.191z" fill="url(#A)"/></g><g opacity=".5"><path d="M592.941 215.12c-10.312 0-19.925-1.655-28.837-4.965-8.785-3.438-16.424-8.276-22.917-14.514s-11.586-13.56-15.278-21.963c-3.565-8.402-5.347-17.633-5.347-27.691s1.782-19.288 5.347-27.691c3.692-8.403 8.785-15.724 15.278-21.963 6.62-6.239 14.323-11.013 23.108-14.323 8.785-3.438 18.397-5.156 28.837-5.156 11.586 0 22.026 2.037 31.32 6.111 9.422 3.947 17.315 9.803 23.681 17.57l-19.861 18.334c-4.584-5.22-9.676-9.104-15.278-11.65-5.602-2.674-11.714-4.01-18.334-4.01-6.239 0-11.968 1.018-17.188 3.055s-9.74 4.966-13.559 8.785-6.812 8.339-8.976 13.559c-2.037 5.22-3.055 11.013-3.055 17.379s1.018 12.159 3.055 17.379c2.164 5.22 5.156 9.74 8.976 13.559s8.339 6.748 13.559 8.785 10.949 3.056 17.188 3.056c6.62 0 12.732-1.274 18.334-3.82 5.602-2.674 10.694-6.684 15.278-12.031l19.861 18.333c-6.366 7.767-14.259 13.687-23.681 17.761-9.294 4.074-19.798 6.111-31.511 6.111z" fill="url(#B)"/><path d="M666.925 212.828V110.084h29.792v102.744h-29.792zm14.896-117.068c-5.475 0-9.931-1.591-13.368-4.774s-5.157-7.13-5.157-11.84 1.719-8.657 5.157-11.84 7.893-4.774 13.368-4.774 9.931 1.528 13.368 4.583c3.438 2.928 5.157 6.748 5.157 11.459 0 4.965-1.719 9.103-5.157 12.413-3.31 3.183-7.766 4.774-13.368 4.774z" fill="url(#B)"/><path d="M766.381 214.356c-12.095 0-21.516-3.055-28.264-9.167-6.748-6.238-10.122-15.469-10.122-27.691v-90.14h29.792v89.758c0 4.329 1.146 7.703 3.438 10.122 2.292 2.291 5.411 3.437 9.358 3.437 4.71 0 8.721-1.273 12.031-3.819l8.021 21.007c-3.055 2.164-6.748 3.82-11.076 4.965-4.202 1.019-8.594 1.528-13.178 1.528zm-54.237-79.064v-22.917h71.234v22.917h-71.234z" fill="url(#B)"/><path d="M870.381 212.828v-20.052l-1.91-4.392V152.48c0-6.366-1.973-11.331-5.92-14.896-3.82-3.565-9.74-5.347-17.761-5.347-5.475 0-10.885.891-16.233 2.673-5.22 1.656-9.676 3.947-13.368 6.876l-10.695-20.817c5.602-3.947 12.35-7.002 20.244-9.167s15.914-3.246 24.063-3.246c15.66 0 27.818 3.692 36.476 11.076s12.986 18.907 12.986 34.567v58.629h-27.882zm-31.32 1.528c-8.021 0-14.896-1.337-20.626-4.01-5.729-2.801-10.121-6.557-13.177-11.268s-4.583-9.994-4.583-15.851c0-6.111 1.464-11.458 4.392-16.042 3.056-4.583 7.83-8.148 14.323-10.694 6.494-2.674 14.96-4.011 25.4-4.011h27.31v17.379h-24.063c-7.003 0-11.841 1.146-14.514 3.438-2.547 2.291-3.82 5.156-3.82 8.593 0 3.82 1.464 6.876 4.392 9.167 3.056 2.165 7.194 3.247 12.414 3.247 4.965 0 9.421-1.146 13.368-3.438 3.947-2.419 6.812-5.92 8.594-10.503l4.583 13.75c-2.164 6.62-6.111 11.649-11.84 15.087s-13.114 5.156-22.153 5.156z" fill="url(#B)"/><path d="M970.088 214.356c-9.676 0-18.397-2.164-26.164-6.493-7.766-4.456-13.941-10.631-18.524-18.525-4.456-7.893-6.684-17.187-6.684-27.882 0-10.822 2.228-20.18 6.684-28.073 4.583-7.894 10.758-14.005 18.524-18.334s16.488-6.493 26.164-6.493c8.657 0 16.233 1.91 22.726 5.729s11.526 9.613 15.086 17.379c3.57 7.766 5.35 17.697 5.35 29.792 0 11.968-1.72 21.899-5.16 29.792-3.44 7.767-8.401 13.559-14.894 17.379-6.366 3.82-14.069 5.729-23.108 5.729zm5.156-24.445c4.838 0 9.231-1.145 13.178-3.437s7.066-5.538 9.357-9.74c2.421-4.329 3.631-9.421 3.631-15.278 0-5.984-1.21-11.077-3.631-15.278-2.291-4.201-5.411-7.448-9.357-9.74s-8.34-3.437-13.178-3.437c-4.965 0-9.421 1.146-13.368 3.437s-7.13 5.539-9.549 9.74c-2.291 4.201-3.437 9.294-3.437 15.278 0 5.857 1.146 10.949 3.437 15.278 2.419 4.202 5.602 7.448 9.549 9.74s8.403 3.437 13.368 3.437zm26.926 22.917v-21.007l.57-30.556-1.91-30.365V71.125h29.8v141.703h-28.46z" fill="url(#B)"/><path d="M1109.19 214.356c-11.71 0-22.02-2.291-30.94-6.875-8.78-4.583-15.59-10.822-20.43-18.715-4.84-8.021-7.26-17.125-7.26-27.31 0-10.313 2.36-19.416 7.07-27.309 4.84-8.021 11.39-14.26 19.67-18.716 8.27-4.583 17.63-6.875 28.07-6.875 10.06 0 19.1 2.164 27.12 6.493 8.15 4.201 14.58 10.313 19.29 18.334 4.71 7.893 7.06 17.378 7.06 28.455 0 1.146-.06 2.483-.19 4.011l-.38 4.01h-83.45V152.48h67.79l-11.46 5.157c0-5.348-1.08-9.995-3.24-13.942-2.17-3.946-5.16-7.002-8.98-9.166-3.82-2.292-8.27-3.438-13.37-3.438-5.09 0-9.61 1.146-13.56 3.438-3.82 2.164-6.81 5.283-8.97 9.357-2.17 3.947-3.25 8.658-3.25 14.133v4.583c0 5.602 1.21 10.567 3.63 14.896 2.55 4.201 6.05 7.448 10.5 9.74 4.59 2.164 9.93 3.246 16.05 3.246 5.47 0 10.24-.827 14.32-2.482 4.2-1.655 8.02-4.138 11.46-7.448l15.85 17.187c-4.71 5.348-10.63 9.486-17.76 12.414-7.13 2.801-15.34 4.201-24.64 4.201z" fill="url(#B)"/><path d="M1178.68 212.828V71.125h29.79v141.703h-29.79z" fill="url(#B)"/><path d="M523.134 324.167V229.35h18.151l40.365 66.914h-9.617l39.688-66.914h18.015l.271 94.817h-20.589l-.135-63.256h3.792l-31.696 53.233h-9.888l-32.373-53.233h4.605v63.256h-20.589z" fill="url(#B)"/><path d="M672.685 267.548h45.648v17.067h-45.648v-17.067zm1.626 39.01h51.607v17.609h-73.415V229.35h71.654v17.609h-49.846v59.599z" fill="url(#B)"/><path d="M743.378 324.167V229.35h43.074c10.294 0 19.37 1.987 27.226 5.96 7.856 3.883 13.997 9.346 18.421 16.39s6.638 15.396 6.638 25.059c0 9.572-2.213 17.925-6.638 25.058-4.424 7.044-10.565 12.552-18.421 16.526-7.856 3.883-16.932 5.824-27.226 5.824h-43.074zm21.943-18.015h20.047c6.321 0 11.785-1.174 16.39-3.522 4.696-2.438 8.308-5.869 10.836-10.294 2.619-4.425 3.928-9.617 3.928-15.577 0-6.051-1.309-11.243-3.928-15.577-2.528-4.425-6.14-7.812-10.836-10.159-4.605-2.439-10.069-3.658-16.39-3.658h-20.047v58.787z" fill="url(#B)"/><path d="M886.439 325.793c-7.585 0-14.854-.994-21.808-2.98-6.953-2.077-12.552-4.741-16.796-7.992l7.45-16.525c4.064 2.889 8.85 5.282 14.358 7.179 5.599 1.806 11.243 2.709 16.932 2.709 4.334 0 7.811-.407 10.43-1.219 2.709-.903 4.695-2.122 5.96-3.658a8.07 8.07 0 0 0 1.896-5.282c0-2.529-.993-4.515-2.98-5.96-1.987-1.535-4.605-2.754-7.856-3.657-3.251-.994-6.863-1.897-10.836-2.709a153.77 153.77 0 0 1-11.785-3.251c-3.883-1.265-7.45-2.89-10.701-4.877s-5.914-4.605-7.991-7.856c-1.987-3.251-2.98-7.405-2.98-12.462 0-5.418 1.444-10.339 4.334-14.764 2.98-4.515 7.405-8.082 13.275-10.701 5.959-2.709 13.409-4.063 22.349-4.063a72.32 72.32 0 0 1 17.609 2.167c5.779 1.354 10.882 3.431 15.306 6.231l-6.772 16.66c-4.425-2.528-8.85-4.379-13.275-5.553-4.424-1.264-8.759-1.896-13.003-1.896s-7.721.496-10.43 1.49-4.651 2.302-5.825 3.928c-1.173 1.535-1.76 3.341-1.76 5.418 0 2.438.993 4.425 2.98 5.96 1.986 1.445 4.605 2.618 7.856 3.521a261.37 261.37 0 0 0 10.701 2.71c3.973.903 7.901 1.941 11.784 3.115 3.973 1.174 7.585 2.754 10.836 4.741a23.33 23.33 0 0 1 7.856 7.856c2.077 3.251 3.116 7.36 3.116 12.326 0 5.328-1.49 10.204-4.47 14.629s-7.45 7.992-13.41 10.701c-5.87 2.709-13.319 4.064-22.35 4.064z" fill="url(#B)"/><path d="M980.024 324.167V229.35h21.946v76.937h47.54v17.88h-69.486z" fill="url(#B)"/><path d="M1072.55 324.167V247.23h-30.34v-17.88h82.62v17.88h-30.34v76.937h-21.94z" fill="url(#B)"/><path d="M1136.64 324.167V229.35h43.08c10.29 0 19.36 1.987 27.22 5.96 7.86 3.883 14 9.346 18.42 16.39 4.43 7.043 6.64 15.396 6.64 25.059 0 9.572-2.21 17.925-6.64 25.058-4.42 7.044-10.56 12.552-18.42 16.526-7.86 3.883-16.93 5.824-27.22 5.824h-43.08zm21.94-18.015h20.05c6.32 0 11.79-1.174 16.39-3.522 4.7-2.438 8.31-5.869 10.84-10.294 2.62-4.425 3.93-9.617 3.93-15.577 0-6.051-1.31-11.243-3.93-15.577-2.53-4.425-6.14-7.812-10.84-10.159-4.6-2.439-10.07-3.658-16.39-3.658h-20.05v58.787z" fill="url(#B)"/></g><path d="M337.651 176h-1.293l3.739-10.182h1.272L345.108 176h-1.293l-3.042-8.571h-.08L337.651 176zm.477-3.977h5.21v1.093h-5.21v-1.093zm9.58-6.205V176h-1.173v-10.182h1.173zm3.322 0V176h-1.173v-10.182h1.173zM337.233 190v-10.182h3.44c.796 0 1.449.136 1.959.408s.888.638 1.134 1.109.368 1.005.368 1.605-.123 1.132-.368 1.596-.622.829-1.129 1.094-1.155.393-1.944.393h-2.784v-1.114h2.744c.544 0 .981-.079 1.313-.239s.577-.384.726-.676.228-.646.228-1.054-.076-.764-.228-1.069-.396-.54-.731-.706-.777-.253-1.327-.253h-2.168V190h-1.233zm4.793-4.574l2.505 4.574h-1.432l-2.465-4.574h1.392zm4.003 4.574v-7.636h1.173V190h-1.173zm.597-8.909c-.229 0-.426-.078-.592-.234s-.244-.343-.244-.562a.75.75 0 0 1 .244-.561c.166-.156.363-.234.592-.234s.424.078.586.234a.74.74 0 0 1 .249.561c0 .219-.083.406-.249.562s-.358.234-.586.234zm5.808 11.932c-.567 0-1.054-.073-1.462-.219s-.747-.331-1.019-.567-.482-.48-.642-.746l.935-.656c.106.139.24.299.403.477a2.03 2.03 0 0 0 .666.473c.285.136.658.204 1.119.204.616 0 1.125-.15 1.526-.448s.601-.765.601-1.402v-1.551h-.099c-.086.139-.209.312-.368.517s-.381.383-.676.542-.686.234-1.183.234c-.617 0-1.17-.146-1.661-.438s-.873-.716-1.158-1.273-.423-1.233-.423-2.028c0-.782.138-1.463.413-2.043s.658-1.034 1.148-1.353 1.058-.482 1.701-.482c.497 0 .891.083 1.183.249s.52.348.676.557l.368.507h.119v-1.213h1.134v7.855c0 .656-.149 1.19-.448 1.601s-.692.717-1.193.909-1.051.294-1.66.294zm-.04-4.196c.47 0 .868-.108 1.193-.323s.572-.526.741-.93.253-.888.253-1.452c0-.55-.083-1.036-.248-1.457s-.411-.75-.736-.989-.726-.358-1.203-.358c-.497 0-.912.126-1.243.378s-.575.59-.741 1.014-.243.895-.243 1.412c0 .53.082.999.248 1.407a2.16 2.16 0 0 0 .746.955c.331.228.742.343 1.233.343zm6.662-3.421V190h-1.174v-10.182h1.174v3.739h.099c.179-.395.448-.708.806-.94s.841-.353 1.441-.353c.521 0 .976.105 1.368.313s.694.522.909.95.328.964.328 1.621V190h-1.173v-4.773c0-.606-.157-1.075-.472-1.407s-.744-.502-1.298-.502a2.16 2.16 0 0 0-1.034.244 1.78 1.78 0 0 0-.716.711c-.172.311-.258.689-.258 1.133zm10.419-3.042v.994h-3.957v-.994h3.957zm-2.804-1.83h1.173v7.278c0 .332.048.581.144.746s.226.272.378.328a1.52 1.52 0 0 0 .492.08c.13 0 .236-.007.319-.02l.199-.04.238 1.054c-.079.03-.19.06-.333.09s-.323.049-.542.049c-.331 0-.656-.071-.974-.213a1.94 1.94 0 0 1-.786-.652c-.205-.291-.308-.659-.308-1.103v-7.597zm9.841 3.54l-1.054.298c-.066-.176-.164-.346-.293-.512a1.43 1.43 0 0 0-.517-.418c-.219-.109-.499-.164-.84-.164-.468 0-.857.108-1.169.324s-.462.482-.462.81c0 .292.106.522.318.691s.544.31.995.423l1.133.278c.683.166 1.192.419 1.526.761s.502.774.502 1.307c0 .438-.125.829-.377 1.173s-.597.617-1.044.816-.968.298-1.561.298c-.779 0-1.424-.169-1.934-.507s-.834-.832-.97-1.482l1.114-.278c.106.411.306.719.601.925s.688.308 1.169.308c.546 0 .981-.116 1.302-.348s.487-.517.487-.845c0-.265-.092-.487-.278-.666s-.471-.319-.855-.408l-1.273-.298c-.699-.166-1.213-.423-1.541-.771s-.487-.79-.487-1.317a1.89 1.89 0 0 1 .363-1.144 2.47 2.47 0 0 1 .999-.78c.424-.189.905-.284 1.442-.284.755 0 1.349.166 1.78.497a2.68 2.68 0 0 1 .924 1.313zM337.233 204v-10.182h3.44c.796 0 1.449.136 1.959.408s.888.638 1.134 1.109.368 1.005.368 1.605-.123 1.132-.368 1.596-.622.829-1.129 1.094-1.155.393-1.944.393h-2.784v-1.114h2.744c.544 0 .981-.079 1.313-.239s.577-.384.726-.676.228-.646.228-1.054-.076-.764-.228-1.069-.396-.54-.731-.706-.777-.253-1.327-.253h-2.168V204h-1.233zm4.793-4.574l2.505 4.574h-1.432l-2.465-4.574h1.392zm7.123 4.733c-.736 0-1.371-.162-1.905-.487a3.27 3.27 0 0 1-1.227-1.372c-.286-.59-.428-1.276-.428-2.059s.142-1.471.428-2.068.689-1.067 1.203-1.402 1.12-.507 1.809-.507c.398 0 .791.066 1.179.199s.74.348 1.059.646.571.686.76 1.174.284 1.087.284 1.799v.498h-5.887v-1.015h4.693c0-.431-.086-.815-.258-1.153s-.411-.605-.726-.8-.679-.294-1.104-.294c-.467 0-.871.116-1.213.348a2.29 2.29 0 0 0-.78.895 2.62 2.62 0 0 0-.274 1.183v.676c0 .577.1 1.066.299 1.467a2.15 2.15 0 0 0 .84.91c.358.205.774.308 1.248.308.308 0 .586-.043.835-.129s.469-.222.651-.398a1.82 1.82 0 0 0 .423-.666l1.133.318a2.51 2.51 0 0 1-.601 1.014c-.282.289-.63.514-1.044.676s-.88.239-1.397.239zm10.355-6.085l-1.054.298c-.066-.176-.164-.346-.293-.512a1.43 1.43 0 0 0-.517-.418c-.219-.109-.499-.164-.84-.164-.467 0-.857.108-1.168.324s-.463.482-.463.81c0 .292.106.522.318.691s.544.31.995.423l1.133.278c.683.166 1.192.419 1.527.761s.502.774.502 1.307c0 .438-.126.829-.378 1.173s-.597.617-1.044.816-.968.298-1.561.298c-.779 0-1.424-.169-1.934-.507s-.834-.832-.97-1.482l1.114-.278c.106.411.306.719.601.925s.688.308 1.169.308c.547 0 .981-.116 1.302-.348s.488-.517.488-.845c0-.265-.093-.487-.279-.666s-.47-.319-.855-.408l-1.273-.298c-.699-.166-1.213-.423-1.541-.771s-.487-.79-.487-1.317a1.89 1.89 0 0 1 .363-1.144 2.47 2.47 0 0 1 .999-.78c.424-.189.905-.284 1.442-.284.756 0 1.349.166 1.78.497a2.68 2.68 0 0 1 .924 1.313zm5.108 6.085c-.736 0-1.371-.162-1.905-.487s-.939-.786-1.228-1.372-.427-1.276-.427-2.059.142-1.471.427-2.068.69-1.067 1.204-1.402 1.12-.507 1.809-.507c.398 0 .791.066 1.178.199s.741.348 1.059.646.572.686.761 1.174.283 1.087.283 1.799v.498h-5.886v-1.015h4.693c0-.431-.086-.815-.258-1.153s-.411-.605-.726-.8-.68-.294-1.104-.294c-.467 0-.871.116-1.213.348a2.29 2.29 0 0 0-.78.895 2.62 2.62 0 0 0-.274 1.183v.676c0 .577.1 1.066.298 1.467s.483.701.841.91.774.308 1.248.308c.308 0 .586-.043.835-.129s.469-.222.651-.398a1.82 1.82 0 0 0 .423-.666l1.133.318a2.51 2.51 0 0 1-.601 1.014c-.282.289-.63.514-1.044.676s-.88.239-1.397.239zm4.946-.159v-7.636h1.134v1.153h.079c.14-.378.391-.684.756-.92a2.23 2.23 0 0 1 1.233-.353l.323.005.293.015v1.193c-.039-.01-.13-.024-.273-.044s-.287-.035-.442-.035c-.372 0-.703.078-.995.234a1.76 1.76 0 0 0-.686.636 1.71 1.71 0 0 0-.248.92V204h-1.174zm11.686-7.636L378.42 204h-1.193l-2.824-7.636h1.273l2.108 6.085h.079l2.108-6.085h1.273zm4.477 7.795c-.736 0-1.371-.162-1.904-.487s-.94-.786-1.228-1.372-.428-1.276-.428-2.059.143-1.471.428-2.068.689-1.067 1.203-1.402 1.12-.507 1.81-.507a3.61 3.61 0 0 1 1.178.199c.388.133.741.348 1.059.646s.572.686.76 1.174.284 1.087.284 1.799v.498h-5.887v-1.015h4.694c0-.431-.087-.815-.259-1.153s-.411-.605-.726-.8-.679-.294-1.103-.294c-.468 0-.872.116-1.214.348a2.29 2.29 0 0 0-.78.895 2.63 2.63 0 0 0-.273 1.183v.676c0 .577.099 1.066.298 1.467a2.15 2.15 0 0 0 .84.91c.358.205.774.308 1.248.308a2.54 2.54 0 0 0 .835-.129c.252-.09.469-.222.651-.398s.324-.401.423-.666l1.133.318c-.119.385-.319.723-.601 1.014s-.63.514-1.044.676-.88.239-1.397.239zm7.83 0c-.636 0-1.198-.161-1.685-.482s-.869-.782-1.144-1.372-.412-1.295-.412-2.103c0-.802.137-1.498.412-2.088s.658-1.046 1.149-1.368 1.057-.482 1.7-.482c.497 0 .89.083 1.178.249s.514.348.666.557l.363.507h.1v-3.759h1.173V204h-1.133v-1.173h-.14c-.086.139-.208.315-.367.527s-.387.396-.682.561-.687.244-1.178.244zm.159-1.054c.471 0 .869-.123 1.193-.368s.572-.591.741-1.029.254-.949.254-1.526c0-.57-.083-1.069-.249-1.497s-.411-.765-.736-1.004-.725-.363-1.203-.363c-.497 0-.911.128-1.243.383s-.575.595-.74 1.029a4.08 4.08 0 0 0-.244 1.452c0 .543.083 1.037.249 1.481s.417.792.745 1.054.743.388 1.233.388z" fill="#ccc"/></g><defs><linearGradient id="A" x1="246.094" y1="0" x2="246.094" y2="388.324" gradientUnits="userSpaceOnUse"><stop stop-color="#4b75d2" stop-opacity=".5"/><stop offset="1" stop-color="#7d7d8c"/></linearGradient><linearGradient id="B" x1="876.281" y1="62.531" x2="876.281" y2="325.793" gradientUnits="userSpaceOnUse"><stop stop-color="#4b75d2" stop-opacity=".5"/><stop offset="1" stop-color="#7d7d8c"/></linearGradient><clipPath id="C"><path fill="#fff" d="M0 0h1232v305H0z"/></clipPath></defs></svg>