<svg width="32" height="32" viewBox="0 0 32 32" fill="none" xmlns="http://www.w3.org/2000/svg">
<g clip-path="url(#clip0_720_1000)">
<path d="M26.6663 26.6667C26.6663 27.0203 26.5259 27.3594 26.2758 27.6095C26.0258 27.8595 25.6866 28 25.333 28H6.66634C6.31272 28 5.97358 27.8595 5.72353 27.6095C5.47348 27.3594 5.33301 27.0203 5.33301 26.6667V14.6667H1.33301L15.1023 2.14933C15.3478 1.92597 15.6678 1.80219 15.9997 1.80219C16.3316 1.80219 16.6515 1.92597 16.897 2.14933L30.6663 14.6667H26.6663V26.6667ZM23.9997 25.3333V12.2093L15.9997 4.93733L7.99967 12.2093V25.3333H23.9997ZM15.9997 22.6667L11.521 18.188C11.2424 17.9094 11.0215 17.5787 10.8707 17.2147C10.7199 16.8507 10.6423 16.4606 10.6423 16.0667C10.6423 15.6727 10.7199 15.2826 10.8707 14.9186C11.0215 14.5546 11.2424 14.2239 11.521 13.9453C11.7996 13.6667 12.1303 13.4458 12.4943 13.295C12.8583 13.1442 13.2484 13.0666 13.6423 13.0666C14.0363 13.0666 14.4264 13.1442 14.7904 13.295C15.1544 13.4458 15.4851 13.6667 15.7637 13.9453L15.9997 14.1813L16.2357 13.9453C16.5143 13.6667 16.845 13.4458 17.2089 13.295C17.5729 13.1442 17.963 13.0666 18.357 13.0666C18.751 13.0666 19.1411 13.1442 19.5051 13.295C19.869 13.4458 20.1998 13.6667 20.4783 13.9453C20.7569 14.2239 20.9779 14.5546 21.1287 14.9186C21.2794 15.2826 21.357 15.6727 21.357 16.0667C21.357 16.4606 21.2794 16.8507 21.1287 17.2147C20.9779 17.5787 20.7569 17.9094 20.4783 18.188L15.9997 22.6667Z" fill="#0185B7"/>
</g>
<defs>
<clipPath id="clip0_720_1000">
<rect width="32" height="32" fill="white"/>
</clipPath>
</defs>
</svg>
