<svg width="25" height="25" viewBox="0 0 25 25" fill="none" xmlns="http://www.w3.org/2000/svg">
<path d="M11.0416 1.5415H13.9586C15.7166 1.5415 17.0051 1.54146 18.0221 1.62451C19.0334 1.70714 19.7328 1.86976 20.319 2.16846C21.4008 2.71974 22.2805 3.59933 22.8317 4.68115C23.1303 5.26733 23.292 5.96594 23.3746 6.97705C23.4577 7.99417 23.4586 9.28309 23.4586 11.0415V13.9585C23.4586 15.7165 23.4577 17.005 23.3746 18.022C23.292 19.0333 23.1304 19.7327 22.8317 20.3188C22.2805 21.4007 21.4008 22.2803 20.319 22.8315C19.7328 23.1303 19.0334 23.2919 18.0221 23.3745C17.0051 23.4576 15.7166 23.4585 13.9586 23.4585H11.0416C9.28321 23.4585 7.99429 23.4576 6.97717 23.3745C5.96607 23.2919 5.26745 23.1302 4.68127 22.8315C3.59946 22.2804 2.71986 21.4007 2.16858 20.3188C1.86988 19.7327 1.70726 19.0333 1.62463 18.022C1.54158 17.005 1.54163 15.7164 1.54163 13.9585V11.0415C1.54163 9.28309 1.54153 7.99417 1.62463 6.97705C1.70726 5.96585 1.86989 5.26736 2.16858 4.68115C2.71985 3.59923 3.59935 2.71973 4.68127 2.16846C5.26749 1.86977 5.96597 1.70714 6.97717 1.62451C7.99429 1.54141 9.28321 1.5415 11.0416 1.5415ZM11.0416 2.62451C9.26584 2.62451 8.02878 2.62597 7.06604 2.70459C6.12231 2.78169 5.58161 2.92543 5.17346 3.1333C4.29537 3.58072 3.58084 4.29525 3.13342 5.17334C2.92555 5.58149 2.78182 6.12219 2.70471 7.06592C2.62609 8.02866 2.62463 9.26572 2.62463 11.0415V13.9585C2.62463 15.7344 2.62607 16.9713 2.70471 17.9341C2.78183 18.878 2.92549 19.4185 3.13342 19.8267C3.58084 20.7047 4.29538 21.4183 5.17346 21.8657C5.58164 22.0737 6.12209 22.2183 7.06604 22.2954C8.02877 22.374 9.26582 22.3745 11.0416 22.3745H13.9586C15.7345 22.3745 16.9715 22.374 17.9342 22.2954C18.8784 22.2183 19.4186 22.0737 19.8268 21.8657C20.7048 21.4183 21.4184 20.7047 21.8658 19.8267C22.0739 19.4185 22.2184 18.8782 22.2955 17.9341C22.3741 16.9713 22.3746 15.7344 22.3746 13.9585V11.0415C22.3746 9.2657 22.3741 8.02864 22.2955 7.06592C22.2185 6.12197 22.0738 5.58151 21.8658 5.17334C21.4184 4.29526 20.7048 3.58072 19.8268 3.1333C19.4186 2.92537 18.8782 2.78171 17.9342 2.70459C16.9714 2.62595 15.7345 2.62451 13.9586 2.62451H11.0416Z" fill="white" stroke="white"/>
<mask id="path-2-inside-1_211_3418" fill="white">
<path fill-rule="evenodd" clip-rule="evenodd" d="M9.90002 12C9.90002 11.4477 9.4523 11 8.90002 11C8.34774 11 7.90002 11.4477 7.90002 12V18C7.90002 18.5523 8.34774 19 8.90002 19C9.4523 19 9.90002 18.5523 9.90002 18V12ZM10.4 8.5C10.4 9.32843 9.72845 10 8.90002 10C8.07159 10 7.40002 9.32843 7.40002 8.5C7.40002 7.67157 8.07159 7 8.90002 7C9.72845 7 10.4 7.67157 10.4 8.5ZM12.9 11C13.2395 11 13.5395 11.1692 13.7203 11.4279C14.2329 11.1502 14.8036 11 15.4 11C17.5594 11 18.9 12.9258 18.9 14.5714V14.579V14.5865V14.5941V14.6017V14.6093V14.617V14.6246V14.6323V14.64V14.6477V14.6555V14.6632V14.671V14.6788V14.6866V14.6944V14.7022V14.7101V14.718V14.7258V14.7338V14.7417V14.7496V14.7576V14.7655V14.7735V14.7815V14.7896V14.7976V14.8057V14.8137V14.8218V14.8299V14.838V14.8462V14.8543V14.8625V14.8706V14.8788V14.887V14.8953V14.9035V14.9117V14.92V14.9283V14.9365V14.9448V14.9532V14.9615V14.9698V14.9782V14.9866V14.9949V15.0033V15.0117V15.0201V15.0286V15.037V15.0455V15.0539V15.0624V15.0709V15.0794V15.0879V15.0964V15.1049V15.1135V15.122V15.1306V15.1392V15.1478V15.1563V15.165V15.1736V15.1822V15.1908V15.1995V15.2081V15.2168V15.2254V15.2341V15.2428V15.2515V15.2602V15.2689V15.2776V15.2864V15.2951V15.3039V15.3126V15.3214V15.3301V15.3389V15.3477V15.3565V15.3653V15.3741V15.3829V15.3917V15.4005V15.4093V15.4182V15.427V15.4359V15.4447V15.4536V15.4624V15.4713V15.4802V15.4891V15.4979V15.5068V15.5157V15.5246V15.5335V15.5424V15.5513V15.5602V15.5692V15.5781V15.587V15.5959V15.6049V15.6138V15.6227V15.6317V15.6406V15.6496V15.6585V15.6674V15.6764V15.6854V15.6943V15.7033V15.7122V15.7212V15.7302V15.7391V15.7481V15.757V15.766V15.775V15.7839V15.7929V15.8019V15.8108V15.8198V15.8288V15.8378V15.8467V15.8557V15.8647V15.8736V15.8826V15.8916V15.9005V15.9095V15.9184V15.9274V15.9363V15.9453V15.9543V15.9632V15.9722V15.9811V15.99V15.999V16.0079V16.0169V16.0258V16.0347V16.0436V16.0526V16.0615V16.0704V16.0793V16.0882V16.0971V16.106V16.1149V16.1238V16.1327V16.1416V16.1504V16.1593V16.1682V16.177V16.1859V16.1947V16.2036V16.2124V16.2213V16.2301V16.2389V16.2477V16.2565V16.2653V16.2741V16.2829V16.2917V16.3005V16.3092V16.318V16.3267V16.3355V16.3442V16.3529V16.3616V16.3703V16.379V16.3877V16.3964V16.4051V16.4138V16.4224V16.4311V16.4397V16.4483V16.457V16.4656V16.4742V16.4827V16.4913V16.4999V16.5085V16.517V16.5255V16.5341V16.5426V16.5511V16.5596V16.5681V16.5765V16.585V16.5934V16.6019V16.6103V16.6187V16.6271V16.6355V16.6439V16.6522V16.6606V16.6689V16.6772V16.6855V16.6938V16.7021V16.7104V16.7186V16.7269V16.7351V16.7433V16.7515V16.7597V16.7679V16.776V16.7842V16.7923V16.8004V16.8085V16.8166V16.8246V16.8327V16.8407V16.8487V16.8567V16.8647V16.8727V16.8806V16.8885V16.8965V16.9044V16.9122V16.9201V16.928V16.9358V16.9436V16.9514V16.9592V16.9669V16.9747V16.9824V16.9901V16.9978V17.0055V17.0131V17.0208V17.0284V17.036V17.0435V17.0511V17.0586V17.0661V17.0736V17.0811V17.0886V17.096V17.1034V17.1108V17.1182V17.1255V17.1329V17.1402V17.1475V17.1547V17.162V17.1692V17.1764V17.1836V17.1908V17.1979V17.205V17.2121V17.2192V17.2262V17.2332V17.2402V17.2472V17.2542V17.2611V17.268V17.2749V17.2818V17.2886V17.2954V17.3022V17.309V17.3157V17.3224V17.3291V17.3358V17.3425V17.3491V17.3557V17.3622V17.3688V17.3753V17.3818V17.3882V17.3947V17.4011V17.4075V17.4138V17.4202V17.4265V17.4328V17.439V17.4452V17.4514V17.4576V17.4638V17.4699V17.476V17.482V17.4881V17.4941V17.5V17.506V17.5119V17.5178V17.5237V17.5295V17.5353V17.5411V17.5468V17.5525V17.5582V17.5639V17.5695V17.5751V17.5807V17.5862V17.5917V17.5972V17.6026V17.6081V17.6134V17.6188V17.6241V17.6294V17.6347V17.6399V17.6451V17.6503V17.6554V17.6605V17.6656V17.6706V17.6756V17.6806V17.6855V17.6904V17.6953V17.7001V17.7049V17.7097V17.7144V17.7191V17.7238V17.7284V17.733V17.7376V17.7421V17.7466V17.7511V17.7555V17.7599V17.7643V17.7686V17.7729V17.7771V17.7813V17.7855V17.7897V17.7938V17.7978V17.8019V17.8059V17.8098V17.8138V17.8177V17.8215V17.8253V17.8291V17.8328V17.8365V17.8402V17.8438V17.8474V17.851V17.8545V17.858V17.8614V17.8648V17.8682V17.8715V17.8748V17.878V17.8812V17.8844V17.8875V17.8906V17.8936V17.8966V17.8996V17.9025V17.9054V17.9083V17.9111V17.9138V17.9165V17.9192V17.9219V17.9245V17.927V17.9295V17.932V17.9344V17.9368V17.9392V17.9415V17.9438V17.946V17.9481V17.9503V17.9524V17.9544V17.9564V17.9584V17.9603V17.9622V17.964V17.9658V17.9676V17.9693V17.9709V17.9725V17.9741V17.9756V17.9771V17.9785V17.9799V17.9813V17.9826V17.9838V17.985V17.9862V17.9873V17.9884V17.9894V17.9913V17.993V17.9946V17.9959V17.9971V17.9984V17.9996C18.9 18.5519 18.4523 19 17.9 19C17.3477 19 16.9 18.5523 16.9 18V17.9988V17.9976V17.9965V17.9953V17.9938V17.9922V17.9904V17.9884V17.9873V17.9862V17.985V17.9838V17.9826V17.9813V17.9799V17.9785V17.9771V17.9756V17.9741V17.9725V17.9709V17.9693V17.9676V17.9658V17.964V17.9622V17.9603V17.9584V17.9564V17.9544V17.9524V17.9503V17.9481V17.946V17.9438V17.9415V17.9392V17.9368V17.9344V17.932V17.9295V17.927V17.9245V17.9219V17.9192V17.9165V17.9138V17.9111V17.9083V17.9054V17.9025V17.8996V17.8966V17.8936V17.8906V17.8875V17.8844V17.8812V17.878V17.8748V17.8715V17.8682V17.8648V17.8614V17.858V17.8545V17.851V17.8474V17.8438V17.8402V17.8365V17.8328V17.8291V17.8253V17.8215V17.8177V17.8138V17.8098V17.8059V17.8019V17.7978V17.7938V17.7897V17.7855V17.7813V17.7771V17.7729V17.7686V17.7643V17.7599V17.7555V17.7511V17.7466V17.7421V17.7376V17.733V17.7284V17.7238V17.7191V17.7144V17.7097V17.7049V17.7001V17.6953V17.6904V17.6855V17.6806V17.6756V17.6706V17.6656V17.6605V17.6554V17.6503V17.6451V17.6399V17.6347V17.6294V17.6241V17.6188V17.6134V17.6081V17.6026V17.5972V17.5917V17.5862V17.5807V17.5751V17.5695V17.5639V17.5582V17.5525V17.5468V17.5411V17.5353V17.5295V17.5237V17.5178V17.5119V17.506V17.5V17.4941V17.4881V17.482V17.476V17.4699V17.4638V17.4576V17.4514V17.4452V17.439V17.4328V17.4265V17.4202V17.4138V17.4075V17.4011V17.3947V17.3882V17.3818V17.3753V17.3688V17.3622V17.3557V17.3491V17.3425V17.3358V17.3291V17.3224V17.3157V17.309V17.3022V17.2954V17.2886V17.2818V17.2749V17.268V17.2611V17.2542V17.2472V17.2402V17.2332V17.2262V17.2192V17.2121V17.205V17.1979V17.1908V17.1836V17.1764V17.1692V17.162V17.1547V17.1475V17.1402V17.1329V17.1255V17.1182V17.1108V17.1034V17.096V17.0886V17.0811V17.0736V17.0661V17.0586V17.0511V17.0435V17.036V17.0284V17.0208V17.0131V17.0055V16.9978V16.9901V16.9824V16.9747V16.9669V16.9592V16.9514V16.9436V16.9358V16.928V16.9201V16.9122V16.9044V16.8965V16.8885V16.8806V16.8727V16.8647V16.8567V16.8487V16.8407V16.8327V16.8246V16.8166V16.8085V16.8004V16.7923V16.7842V16.776V16.7679V16.7597V16.7515V16.7433V16.7351V16.7269V16.7186V16.7104V16.7021V16.6938V16.6855V16.6772V16.6689V16.6606V16.6522V16.6439V16.6355V16.6271V16.6187V16.6103V16.6019V16.5934V16.585V16.5765V16.5681V16.5596V16.5511V16.5426V16.5341V16.5255V16.517V16.5085V16.4999V16.4913V16.4827V16.4742V16.4656V16.457V16.4483V16.4397V16.4311V16.4224V16.4138V16.4051V16.3964V16.3877V16.379V16.3703V16.3616V16.3529V16.3442V16.3355V16.3267V16.318V16.3092V16.3005V16.2917V16.2829V16.2741V16.2653V16.2565V16.2477V16.2389V16.2301V16.2213V16.2124V16.2036V16.1947V16.1859V16.177V16.1682V16.1593V16.1504V16.1416V16.1327V16.1238V16.1149V16.106V16.0971V16.0882V16.0793V16.0704V16.0615V16.0526V16.0436V16.0347V16.0258V16.0169V16.0079V15.999V15.99V15.9811V15.9722V15.9632V15.9543V15.9453V15.9363V15.9274V15.9184V15.9095V15.9005V15.8916V15.8826V15.8736V15.8647V15.8557V15.8467V15.8378V15.8288V15.8198V15.8108V15.8019V15.7929V15.7839V15.775V15.766V15.757V15.7481V15.7391V15.7302V15.7212V15.7122V15.7033V15.6943V15.6854V15.6764V15.6674V15.6585V15.6496V15.6406V15.6317V15.6227V15.6138V15.6049V15.5959V15.587V15.5781V15.5692V15.5602V15.5513V15.5424V15.5335V15.5246V15.5157V15.5068V15.4979V15.4891V15.4802V15.4713V15.4624V15.4536V15.4447V15.4359V15.427V15.4182V15.4093V15.4005V15.3917V15.3829V15.3741V15.3653V15.3565V15.3477V15.3389V15.3301V15.3214V15.3126V15.3039V15.2951V15.2864V15.2776V15.2689V15.2602V15.2515V15.2428V15.2341V15.2254V15.2168V15.2081V15.1995V15.1908V15.1822V15.1736V15.165V15.1563V15.1478V15.1392V15.1306V15.122V15.1135V15.1049V15.0964V15.0879V15.0794V15.0709V15.0624V15.0539V15.0455V15.037V15.0286V15.0201V15.0117V15.0033V14.9949V14.9866V14.9782V14.9698V14.9615V14.9532V14.9448V14.9365V14.9283V14.92V14.9117V14.9035V14.8953V14.887V14.8788V14.8706V14.8625V14.8543V14.8462V14.838V14.8299V14.8218V14.8137V14.8057V14.7976V14.7896V14.7815V14.7735V14.7655V14.7576V14.7496V14.7417V14.7338V14.7258V14.718V14.7101V14.7022V14.6944V14.6866V14.6788V14.671V14.6632V14.6555V14.6477V14.64V14.6323V14.6246V14.617V14.6093V14.6017V14.5941V14.5865V14.579V14.5714C16.9 13.8032 16.2406 13 15.4 13C14.8759 13 14.2974 13.2849 13.9 13.9631V13.9658V13.9761V13.9864V13.9967V14.0071V14.0174V14.0278V14.0382V14.0487V14.0591V14.0695V14.08V14.0905V14.101V14.1115V14.122V14.1326V14.1432V14.1537V14.1643V14.1749V14.1855V14.1962V14.2068V14.2175V14.2282V14.2388V14.2496V14.2603V14.271V14.2817V14.2925V14.3033V14.314V14.3248V14.3356V14.3464V14.3573V14.3681V14.379V14.3898V14.4007V14.4116V14.4225V14.4334V14.4443V14.4552V14.4662V14.4771V14.4881V14.499V14.51V14.521V14.532V14.543V14.554V14.565V14.5761V14.5871V14.5981V14.6092V14.6203V14.6313V14.6424V14.6535V14.6646V14.6757V14.6868V14.6979V14.709V14.7202V14.7313V14.7424V14.7536V14.7647V14.7759V14.7871V14.7982V14.8094V14.8206V14.8318V14.8429V14.8541V14.8653V14.8765V14.8878V14.899V14.9102V14.9214V14.9326V14.9438V14.9551V14.9663V14.9775V14.9888V15V15.0113V15.0225V15.0338V15.045V15.0562V15.0675V15.0788V15.09V15.1013V15.1125V15.1238V15.135V15.1463V15.1576V15.1688V15.1801V15.1913V15.2026V15.2139V15.2251V15.2364V15.2476V15.2589V15.2701V15.2814V15.2926V15.3039V15.3151V15.3264V15.3376V15.3489V15.3601V15.3714V15.3826V15.3938V15.405V15.4163V15.4275V15.4387V15.4499V15.4611V15.4723V15.4835V15.4947V15.5059V15.5171V15.5283V15.5395V15.5506V15.5618V15.573V15.5841V15.5953V15.6064V15.6176V15.6287V15.6398V15.6509V15.662V15.6732V15.6843V15.6953V15.7064V15.7175V15.7286V15.7396V15.7507V15.7617V15.7728V15.7838V15.7948V15.8058V15.8168V15.8278V15.8388V15.8498V15.8607V15.8717V15.8826V15.8936V15.9045V15.9154V15.9263V15.9372V15.9481V15.9589V15.9698V15.9806V15.9915V16.0023V16.0131V16.0239V16.0347V16.0455V16.0562V16.067V16.0777V16.0884V16.0991V16.1098V16.1205V16.1312V16.1419V16.1525V16.1631V16.1737V16.1843V16.1949V16.2055V16.2161V16.2266V16.2371V16.2476V16.2581V16.2686V16.2791V16.2895V16.2999V16.3104V16.3208V16.3311V16.3415V16.3519V16.3622V16.3725V16.3828V16.3931V16.4033V16.4136V16.4238V16.434V16.4442V16.4544V16.4645V16.4747V16.4848V16.4949V16.5049V16.515V16.525V16.535V16.545V16.555V16.565V16.5749V16.5848V16.5947V16.6046V16.6144V16.6243V16.6341V16.6439V16.6536V16.6634V16.6731V16.6828V16.6925V16.7021V16.7118V16.7214V16.731V16.7405V16.7501V16.7596V16.7691V16.7786V16.788V16.7974V16.8068V16.8162V16.8256V16.8349V16.8442V16.8534V16.8627V16.8719V16.8811V16.8903V16.8994V16.9086V16.9177V16.9267V16.9358V16.9448V16.9538V16.9627V16.9717V16.9806V16.9895V16.9983V17.0071V17.0159V17.0247V17.0334V17.0421V17.0508V17.0595V17.0681V17.0767V17.0853V17.0938V17.1023V17.1108V17.1193V17.1277V17.1361V17.1444V17.1527V17.161V17.1693V17.1776V17.1858V17.1939V17.2021V17.2102V17.2183V17.2263V17.2343V17.2423V17.2503V17.2582V17.2661V17.2739V17.2817V17.2895V17.2973V17.305V17.3127V17.3203V17.328V17.3356V17.3431V17.3506V17.3581V17.3656V17.373V17.3803V17.3877V17.395V17.4023V17.4095V17.4167V17.4239V17.431V17.4381V17.4451V17.4522V17.4591V17.4661V17.473V17.4799V17.4867V17.4935V17.5002V17.507V17.5137V17.5203V17.5269V17.5335V17.54V17.5465V17.5529V17.5593V17.5657V17.5721V17.5783V17.5846V17.5908V17.597V17.6031V17.6092V17.6153V17.6213V17.6272V17.6332V17.6391V17.6449V17.6507V17.6565V17.6622V17.6679V17.6735V17.6791V17.6847V17.6902V17.6956V17.7011V17.7064V17.7118V17.7171V17.7223V17.7275V17.7327V17.7378V17.7429V17.7479V17.7529V17.7578V17.7627V17.7676V17.7724V17.7772V17.7819V17.7865V17.7912V17.7957V17.8003V17.8048V17.8092V17.8136V17.8179V17.8222V17.8265V17.8307V17.8348V17.839V17.843V17.847V17.851V17.8549V17.8588V17.8626V17.8664V17.8701V17.8738V17.8774V17.881V17.8845V17.888V17.8914V17.8948V17.8981V17.9014V17.9046V17.9078V17.9109V17.914V17.917V17.92V17.9229V17.9258V17.9286V17.9313V17.9341V17.9367V17.9393V17.9419V17.9444V17.9468V17.9492V17.9516V17.9539V17.9561V17.9583V17.9604V17.9625V17.9645V17.9665V17.9684V17.9703V17.9721V17.9738V17.9755V17.9771V17.9787V17.9803V17.9817V17.9831V17.9845V17.9858V17.9871V17.9883V17.9894V17.9905V17.9915V17.9934V17.995V17.9964V17.9976V17.9989V17.9999C13.9 18.5522 13.4523 19 12.9 19C12.3477 19 11.9 18.5523 11.9 18V17.9989V17.9976V17.9964V17.995V17.9934V17.9915V17.9905V17.9894V17.9883V17.9871V17.9858V17.9845V17.9831V17.9817V17.9803V17.9787V17.9771V17.9755V17.9738V17.9721V17.9703V17.9684V17.9665V17.9645V17.9625V17.9604V17.9583V17.9561V17.9539V17.9516V17.9492V17.9468V17.9444V17.9419V17.9393V17.9367V17.9341V17.9313V17.9286V17.9258V17.9229V17.92V17.917V17.914V17.9109V17.9078V17.9046V17.9014V17.8981V17.8948V17.8914V17.888V17.8845V17.881V17.8774V17.8738V17.8701V17.8664V17.8626V17.8588V17.8549V17.851V17.847V17.843V17.839V17.8348V17.8307V17.8265V17.8222V17.8179V17.8136V17.8092V17.8048V17.8003V17.7957V17.7912V17.7865V17.7819V17.7772V17.7724V17.7676V17.7627V17.7578V17.7529V17.7479V17.7429V17.7378V17.7327V17.7275V17.7223V17.7171V17.7118V17.7064V17.7011V17.6956V17.6902V17.6847V17.6791V17.6735V17.6679V17.6622V17.6565V17.6507V17.6449V17.6391V17.6332V17.6272V17.6213V17.6153V17.6092V17.6031V17.597V17.5908V17.5846V17.5783V17.5721V17.5657V17.5593V17.5529V17.5465V17.54V17.5335V17.5269V17.5203V17.5137V17.507V17.5002V17.4935V17.4867V17.4799V17.473V17.4661V17.4591V17.4522V17.4451V17.4381V17.431V17.4239V17.4167V17.4095V17.4023V17.395V17.3877V17.3803V17.373V17.3656V17.3581V17.3506V17.3431V17.3356V17.328V17.3203V17.3127V17.305V17.2973V17.2895V17.2817V17.2739V17.2661V17.2582V17.2503V17.2423V17.2343V17.2263V17.2183V17.2102V17.2021V17.1939V17.1858V17.1776V17.1693V17.161V17.1527V17.1444V17.1361V17.1277V17.1193V17.1108V17.1023V17.0938V17.0853V17.0767V17.0681V17.0595V17.0508V17.0421V17.0334V17.0247V17.0159V17.0071V16.9983V16.9895V16.9806V16.9717V16.9627V16.9538V16.9448V16.9358V16.9267V16.9177V16.9086V16.8994V16.8903V16.8811V16.8719V16.8627V16.8534V16.8442V16.8349V16.8256V16.8162V16.8068V16.7974V16.788V16.7786V16.7691V16.7596V16.7501V16.7405V16.731V16.7214V16.7118V16.7021V16.6925V16.6828V16.6731V16.6634V16.6536V16.6439V16.6341V16.6243V16.6144V16.6046V16.5947V16.5848V16.5749V16.565V16.555V16.545V16.535V16.525V16.515V16.5049V16.4949V16.4848V16.4747V16.4645V16.4544V16.4442V16.434V16.4238V16.4136V16.4033V16.3931V16.3828V16.3725V16.3622V16.3519V16.3415V16.3311V16.3208V16.3104V16.2999V16.2895V16.2791V16.2686V16.2581V16.2476V16.2371V16.2266V16.2161V16.2055V16.1949V16.1843V16.1737V16.1631V16.1525V16.1419V16.1312V16.1205V16.1098V16.0991V16.0884V16.0777V16.067V16.0562V16.0455V16.0347V16.0239V16.0131V16.0023V15.9915V15.9806V15.9698V15.9589V15.9481V15.9372V15.9263V15.9154V15.9045V15.8936V15.8826V15.8717V15.8607V15.8498V15.8388V15.8278V15.8168V15.8058V15.7948V15.7838V15.7728V15.7617V15.7507V15.7396V15.7286V15.7175V15.7064V15.6953V15.6843V15.6732V15.662V15.6509V15.6398V15.6287V15.6176V15.6064V15.5953V15.5841V15.573V15.5618V15.5506V15.5395V15.5283V15.5171V15.5059V15.4947V15.4835V15.4723V15.4611V15.4499V15.4387V15.4275V15.4163V15.405V15.3938V15.3826V15.3714V15.3601V15.3489V15.3376V15.3264V15.3151V15.3039V15.2926V15.2814V15.2701V15.2589V15.2476V15.2364V15.2251V15.2139V15.2026V15.1913V15.1801V15.1688V15.1576V15.1463V15.135V15.1238V15.1125V15.1013V15.09V15.0788V15.0675V15.0562V15.045V15.0338V15.0225V15.0113V15V14.9888V14.9775V14.9663V14.9551V14.9438V14.9326V14.9214V14.9102V14.899V14.8878V14.8765V14.8653V14.8541V14.8429V14.8318V14.8206V14.8094V14.7982V14.7871V14.7759V14.7647V14.7536V14.7424V14.7313V14.7202V14.709V14.6979V14.6868V14.6757V14.6646V14.6535V14.6424V14.6313V14.6203V14.6092V14.5981V14.5871V14.5761V14.565V14.554V14.543V14.532V14.521V14.51V14.499V14.4881V14.4771V14.4662V14.4552V14.4443V14.4334V14.4225V14.4116V14.4007V14.3898V14.379V14.3681V14.3573V14.3464V14.3356V14.3248V14.314V14.3033V14.2925V14.2817V14.271V14.2603V14.2496V14.2388V14.2282V14.2175V14.2068V14.1962V14.1855V14.1749V14.1643V14.1537V14.1432V14.1326V14.122V14.1115V14.101V14.0905V14.08V14.0695V14.0591V14.0487V14.0382V14.0278V14.0174V14.0071V13.9967V13.9864V13.9761V13.9658V13.9555V13.9452V13.9349V13.9247V13.9145V13.9043V13.8941V13.884V13.8738V13.8637V13.8536V13.8435V13.8335V13.8234V13.8134V13.8034V13.7934V13.7834V13.7735V13.7636V13.7537V13.7438V13.7339V13.7241V13.7143V13.7104V13.7064V13.7025V13.6985V13.6946V13.6906V13.6866V13.6826V13.6786V13.6746V13.6706V13.6666V13.6626V13.6586V13.6545V13.6505V13.6464V13.6423V13.6383V13.6342V13.6301V13.626V13.6219V13.6178V13.6137V13.6096V13.6055V13.6013V13.5972V13.593V13.5889V13.5847V13.5805V13.5764V13.5722V13.568V13.5638V13.5596V13.5554V13.5512V13.547V13.5427V13.5385V13.5343V13.53V13.5258V13.5215V13.5173V13.513V13.5087V13.5045V13.5002V13.4959V13.4916V13.4873V13.483V13.4787V13.4744V13.4701V13.4657V13.4614V13.4571V13.4528V13.4484V13.4441V13.4397V13.4354V13.431V13.4266V13.4223V13.4179V13.4135V13.4092V13.4048V13.4004V13.396V13.3916V13.3872V13.3828V13.3784V13.374V13.3696V13.3652V13.3607V13.3563V13.3519V13.3475V13.343V13.3386V13.3342V13.3297V13.3253V13.3208V13.3164V13.3119V13.3075V13.303V13.2986V13.2941V13.2896V13.2852V13.2807V13.2762V13.2718V13.2673V13.2628V13.2583V13.2539V13.2494V13.2449V13.2404V13.2359V13.2314V13.227V13.2225V13.218V13.2135V13.209V13.2045V13.2V13.1955V13.191V13.1865V13.182V13.1775V13.173V13.1685V13.164V13.1595V13.155V13.1505V13.146V13.1415V13.137V13.1325V13.128V13.1235V13.119V13.1145V13.11V13.1055V13.1009V13.0964V13.0919V13.0874V13.0829V13.0784V13.0739V13.0694V13.0649V13.0604V13.056V13.0515V13.047V13.0425V13.038V13.0335V13.029V13.0245V13.02V13.0155V13.0111V13.0066V13.0021V12.9976V12.9932V12.9887V12.9842V12.9797V12.9753V12.9708V12.9663V12.9619V12.9574V12.953V12.9485V12.9441V12.9396V12.9352V12.9307V12.9263V12.9219V12.9174V12.913V12.9086V12.9041V12.8997V12.8953V12.8909V12.8865V12.8821V12.8777V12.8733V12.8689V12.8645V12.8601V12.8557V12.8513V12.847V12.8426V12.8382V12.8338V12.8295V12.8251V12.8208V12.8164V12.8121V12.8077V12.8034V12.7991V12.7948V12.7904V12.7861V12.7818V12.7775V12.7732V12.7689V12.7646V12.7603V12.7561V12.7518V12.7475V12.7433V12.739V12.7347V12.7305V12.7263V12.722V12.7178V12.7136V12.7094V12.7052V12.7009V12.6967V12.6926V12.6884V12.6842V12.68V12.6759V12.6717V12.6675V12.6634V12.6593V12.6551V12.651V12.6469V12.6428V12.6387V12.6346V12.6305V12.6264V12.6223V12.6183V12.6142V12.6101V12.6061V12.6021V12.598V12.594V12.59V12.586V12.582V12.578V12.574V12.57V12.5661V12.5621V12.5582V12.5542V12.5503V12.5464V12.5424V12.5385V12.5346V12.5308V12.5269V12.523V12.5191V12.5153V12.5114V12.5076V12.5038V12.5V12.4962V12.4924V12.4886V12.4848V12.481V12.4773V12.4735V12.4698V12.4661V12.4623V12.4586V12.4549V12.4512V12.4476V12.4439V12.4402V12.4366V12.4329V12.4293V12.4257V12.4221V12.4185V12.4149V12.4113V12.4078V12.4042V12.4007V12.3971V12.3936V12.3901V12.3866V12.3831V12.3797V12.3762V12.3728V12.3693V12.3659V12.3625V12.3591V12.3557V12.3523V12.3489V12.3456V12.3422V12.3389V12.3356V12.3323V12.329V12.3257V12.3224V12.3192V12.3159V12.3127V12.3095V12.3063V12.3031V12.2999V12.2967V12.2936V12.2904V12.2873V12.2842V12.2811V12.278V12.2749V12.2719V12.2688V12.2658V12.2628V12.2598V12.2568V12.2538V12.2508V12.2479V12.2449V12.242V12.2391V12.2362V12.2333V12.2305V12.2276V12.2248V12.2219V12.2191V12.2163V12.2136V12.2108V12.2081V12.2053V12.2026V12.1999V12.1972V12.1945V12.1919V12.1892V12.1866V12.184V12.1814V12.1788V12.1763V12.1737V12.1712V12.1687V12.1662V12.1637V12.1612V12.1588V12.1563V12.1539V12.1515V12.1491V12.1467V12.1444V12.142V12.1397V12.1374V12.1351V12.1329V12.1306V12.1284V12.1261V12.1239V12.1217V12.1196V12.1174V12.1153V12.1132V12.1111V12.109V12.1069V12.1049V12.1028V12.1008V12.0988V12.0969V12.0949V12.093V12.091V12.0891V12.0873V12.0854V12.0835V12.0817V12.0799V12.0781V12.0763V12.0746V12.0728V12.0711V12.0694V12.0677V12.0661V12.0644V12.0628V12.0612V12.0596V12.058V12.0565V12.055V12.0535V12.052V12.0505V12.049V12.0476V12.0462V12.0448V12.0434V12.0421V12.0408V12.0394V12.0382V12.0369V12.0356V12.0344V12.0332V12.032V12.0308V12.0297V12.0286V12.0275V12.0264V12.0253V12.0243V12.0232V12.0222V12.0203V12.0185V12.0167V12.015V12.0134V12.0119V12.0105V12.0091V12.0079V12.0067V12.0052V12.0042V12.003V12.002V12.0008C11.9 11.4485 12.3477 11 12.9 11Z"/>
</mask>
<path fill-rule="evenodd" clip-rule="evenodd" d="M9.90002 12C9.90002 11.4477 9.4523 11 8.90002 11C8.34774 11 7.90002 11.4477 7.90002 12V18C7.90002 18.5523 8.34774 19 8.90002 19C9.4523 19 9.90002 18.5523 9.90002 18V12ZM10.4 8.5C10.4 9.32843 9.72845 10 8.90002 10C8.07159 10 7.40002 9.32843 7.40002 8.5C7.40002 7.67157 8.07159 7 8.90002 7C9.72845 7 10.4 7.67157 10.4 8.5ZM12.9 11C13.2395 11 13.5395 11.1692 13.7203 11.4279C14.2329 11.1502 14.8036 11 15.4 11C17.5594 11 18.9 12.9258 18.9 14.5714V14.579V14.5865V14.5941V14.6017V14.6093V14.617V14.6246V14.6323V14.64V14.6477V14.6555V14.6632V14.671V14.6788V14.6866V14.6944V14.7022V14.7101V14.718V14.7258V14.7338V14.7417V14.7496V14.7576V14.7655V14.7735V14.7815V14.7896V14.7976V14.8057V14.8137V14.8218V14.8299V14.838V14.8462V14.8543V14.8625V14.8706V14.8788V14.887V14.8953V14.9035V14.9117V14.92V14.9283V14.9365V14.9448V14.9532V14.9615V14.9698V14.9782V14.9866V14.9949V15.0033V15.0117V15.0201V15.0286V15.037V15.0455V15.0539V15.0624V15.0709V15.0794V15.0879V15.0964V15.1049V15.1135V15.122V15.1306V15.1392V15.1478V15.1563V15.165V15.1736V15.1822V15.1908V15.1995V15.2081V15.2168V15.2254V15.2341V15.2428V15.2515V15.2602V15.2689V15.2776V15.2864V15.2951V15.3039V15.3126V15.3214V15.3301V15.3389V15.3477V15.3565V15.3653V15.3741V15.3829V15.3917V15.4005V15.4093V15.4182V15.427V15.4359V15.4447V15.4536V15.4624V15.4713V15.4802V15.4891V15.4979V15.5068V15.5157V15.5246V15.5335V15.5424V15.5513V15.5602V15.5692V15.5781V15.587V15.5959V15.6049V15.6138V15.6227V15.6317V15.6406V15.6496V15.6585V15.6674V15.6764V15.6854V15.6943V15.7033V15.7122V15.7212V15.7302V15.7391V15.7481V15.757V15.766V15.775V15.7839V15.7929V15.8019V15.8108V15.8198V15.8288V15.8378V15.8467V15.8557V15.8647V15.8736V15.8826V15.8916V15.9005V15.9095V15.9184V15.9274V15.9363V15.9453V15.9543V15.9632V15.9722V15.9811V15.99V15.999V16.0079V16.0169V16.0258V16.0347V16.0436V16.0526V16.0615V16.0704V16.0793V16.0882V16.0971V16.106V16.1149V16.1238V16.1327V16.1416V16.1504V16.1593V16.1682V16.177V16.1859V16.1947V16.2036V16.2124V16.2213V16.2301V16.2389V16.2477V16.2565V16.2653V16.2741V16.2829V16.2917V16.3005V16.3092V16.318V16.3267V16.3355V16.3442V16.3529V16.3616V16.3703V16.379V16.3877V16.3964V16.4051V16.4138V16.4224V16.4311V16.4397V16.4483V16.457V16.4656V16.4742V16.4827V16.4913V16.4999V16.5085V16.517V16.5255V16.5341V16.5426V16.5511V16.5596V16.5681V16.5765V16.585V16.5934V16.6019V16.6103V16.6187V16.6271V16.6355V16.6439V16.6522V16.6606V16.6689V16.6772V16.6855V16.6938V16.7021V16.7104V16.7186V16.7269V16.7351V16.7433V16.7515V16.7597V16.7679V16.776V16.7842V16.7923V16.8004V16.8085V16.8166V16.8246V16.8327V16.8407V16.8487V16.8567V16.8647V16.8727V16.8806V16.8885V16.8965V16.9044V16.9122V16.9201V16.928V16.9358V16.9436V16.9514V16.9592V16.9669V16.9747V16.9824V16.9901V16.9978V17.0055V17.0131V17.0208V17.0284V17.036V17.0435V17.0511V17.0586V17.0661V17.0736V17.0811V17.0886V17.096V17.1034V17.1108V17.1182V17.1255V17.1329V17.1402V17.1475V17.1547V17.162V17.1692V17.1764V17.1836V17.1908V17.1979V17.205V17.2121V17.2192V17.2262V17.2332V17.2402V17.2472V17.2542V17.2611V17.268V17.2749V17.2818V17.2886V17.2954V17.3022V17.309V17.3157V17.3224V17.3291V17.3358V17.3425V17.3491V17.3557V17.3622V17.3688V17.3753V17.3818V17.3882V17.3947V17.4011V17.4075V17.4138V17.4202V17.4265V17.4328V17.439V17.4452V17.4514V17.4576V17.4638V17.4699V17.476V17.482V17.4881V17.4941V17.5V17.506V17.5119V17.5178V17.5237V17.5295V17.5353V17.5411V17.5468V17.5525V17.5582V17.5639V17.5695V17.5751V17.5807V17.5862V17.5917V17.5972V17.6026V17.6081V17.6134V17.6188V17.6241V17.6294V17.6347V17.6399V17.6451V17.6503V17.6554V17.6605V17.6656V17.6706V17.6756V17.6806V17.6855V17.6904V17.6953V17.7001V17.7049V17.7097V17.7144V17.7191V17.7238V17.7284V17.733V17.7376V17.7421V17.7466V17.7511V17.7555V17.7599V17.7643V17.7686V17.7729V17.7771V17.7813V17.7855V17.7897V17.7938V17.7978V17.8019V17.8059V17.8098V17.8138V17.8177V17.8215V17.8253V17.8291V17.8328V17.8365V17.8402V17.8438V17.8474V17.851V17.8545V17.858V17.8614V17.8648V17.8682V17.8715V17.8748V17.878V17.8812V17.8844V17.8875V17.8906V17.8936V17.8966V17.8996V17.9025V17.9054V17.9083V17.9111V17.9138V17.9165V17.9192V17.9219V17.9245V17.927V17.9295V17.932V17.9344V17.9368V17.9392V17.9415V17.9438V17.946V17.9481V17.9503V17.9524V17.9544V17.9564V17.9584V17.9603V17.9622V17.964V17.9658V17.9676V17.9693V17.9709V17.9725V17.9741V17.9756V17.9771V17.9785V17.9799V17.9813V17.9826V17.9838V17.985V17.9862V17.9873V17.9884V17.9894V17.9913V17.993V17.9946V17.9959V17.9971V17.9984V17.9996C18.9 18.5519 18.4523 19 17.9 19C17.3477 19 16.9 18.5523 16.9 18V17.9988V17.9976V17.9965V17.9953V17.9938V17.9922V17.9904V17.9884V17.9873V17.9862V17.985V17.9838V17.9826V17.9813V17.9799V17.9785V17.9771V17.9756V17.9741V17.9725V17.9709V17.9693V17.9676V17.9658V17.964V17.9622V17.9603V17.9584V17.9564V17.9544V17.9524V17.9503V17.9481V17.946V17.9438V17.9415V17.9392V17.9368V17.9344V17.932V17.9295V17.927V17.9245V17.9219V17.9192V17.9165V17.9138V17.9111V17.9083V17.9054V17.9025V17.8996V17.8966V17.8936V17.8906V17.8875V17.8844V17.8812V17.878V17.8748V17.8715V17.8682V17.8648V17.8614V17.858V17.8545V17.851V17.8474V17.8438V17.8402V17.8365V17.8328V17.8291V17.8253V17.8215V17.8177V17.8138V17.8098V17.8059V17.8019V17.7978V17.7938V17.7897V17.7855V17.7813V17.7771V17.7729V17.7686V17.7643V17.7599V17.7555V17.7511V17.7466V17.7421V17.7376V17.733V17.7284V17.7238V17.7191V17.7144V17.7097V17.7049V17.7001V17.6953V17.6904V17.6855V17.6806V17.6756V17.6706V17.6656V17.6605V17.6554V17.6503V17.6451V17.6399V17.6347V17.6294V17.6241V17.6188V17.6134V17.6081V17.6026V17.5972V17.5917V17.5862V17.5807V17.5751V17.5695V17.5639V17.5582V17.5525V17.5468V17.5411V17.5353V17.5295V17.5237V17.5178V17.5119V17.506V17.5V17.4941V17.4881V17.482V17.476V17.4699V17.4638V17.4576V17.4514V17.4452V17.439V17.4328V17.4265V17.4202V17.4138V17.4075V17.4011V17.3947V17.3882V17.3818V17.3753V17.3688V17.3622V17.3557V17.3491V17.3425V17.3358V17.3291V17.3224V17.3157V17.309V17.3022V17.2954V17.2886V17.2818V17.2749V17.268V17.2611V17.2542V17.2472V17.2402V17.2332V17.2262V17.2192V17.2121V17.205V17.1979V17.1908V17.1836V17.1764V17.1692V17.162V17.1547V17.1475V17.1402V17.1329V17.1255V17.1182V17.1108V17.1034V17.096V17.0886V17.0811V17.0736V17.0661V17.0586V17.0511V17.0435V17.036V17.0284V17.0208V17.0131V17.0055V16.9978V16.9901V16.9824V16.9747V16.9669V16.9592V16.9514V16.9436V16.9358V16.928V16.9201V16.9122V16.9044V16.8965V16.8885V16.8806V16.8727V16.8647V16.8567V16.8487V16.8407V16.8327V16.8246V16.8166V16.8085V16.8004V16.7923V16.7842V16.776V16.7679V16.7597V16.7515V16.7433V16.7351V16.7269V16.7186V16.7104V16.7021V16.6938V16.6855V16.6772V16.6689V16.6606V16.6522V16.6439V16.6355V16.6271V16.6187V16.6103V16.6019V16.5934V16.585V16.5765V16.5681V16.5596V16.5511V16.5426V16.5341V16.5255V16.517V16.5085V16.4999V16.4913V16.4827V16.4742V16.4656V16.457V16.4483V16.4397V16.4311V16.4224V16.4138V16.4051V16.3964V16.3877V16.379V16.3703V16.3616V16.3529V16.3442V16.3355V16.3267V16.318V16.3092V16.3005V16.2917V16.2829V16.2741V16.2653V16.2565V16.2477V16.2389V16.2301V16.2213V16.2124V16.2036V16.1947V16.1859V16.177V16.1682V16.1593V16.1504V16.1416V16.1327V16.1238V16.1149V16.106V16.0971V16.0882V16.0793V16.0704V16.0615V16.0526V16.0436V16.0347V16.0258V16.0169V16.0079V15.999V15.99V15.9811V15.9722V15.9632V15.9543V15.9453V15.9363V15.9274V15.9184V15.9095V15.9005V15.8916V15.8826V15.8736V15.8647V15.8557V15.8467V15.8378V15.8288V15.8198V15.8108V15.8019V15.7929V15.7839V15.775V15.766V15.757V15.7481V15.7391V15.7302V15.7212V15.7122V15.7033V15.6943V15.6854V15.6764V15.6674V15.6585V15.6496V15.6406V15.6317V15.6227V15.6138V15.6049V15.5959V15.587V15.5781V15.5692V15.5602V15.5513V15.5424V15.5335V15.5246V15.5157V15.5068V15.4979V15.4891V15.4802V15.4713V15.4624V15.4536V15.4447V15.4359V15.427V15.4182V15.4093V15.4005V15.3917V15.3829V15.3741V15.3653V15.3565V15.3477V15.3389V15.3301V15.3214V15.3126V15.3039V15.2951V15.2864V15.2776V15.2689V15.2602V15.2515V15.2428V15.2341V15.2254V15.2168V15.2081V15.1995V15.1908V15.1822V15.1736V15.165V15.1563V15.1478V15.1392V15.1306V15.122V15.1135V15.1049V15.0964V15.0879V15.0794V15.0709V15.0624V15.0539V15.0455V15.037V15.0286V15.0201V15.0117V15.0033V14.9949V14.9866V14.9782V14.9698V14.9615V14.9532V14.9448V14.9365V14.9283V14.92V14.9117V14.9035V14.8953V14.887V14.8788V14.8706V14.8625V14.8543V14.8462V14.838V14.8299V14.8218V14.8137V14.8057V14.7976V14.7896V14.7815V14.7735V14.7655V14.7576V14.7496V14.7417V14.7338V14.7258V14.718V14.7101V14.7022V14.6944V14.6866V14.6788V14.671V14.6632V14.6555V14.6477V14.64V14.6323V14.6246V14.617V14.6093V14.6017V14.5941V14.5865V14.579V14.5714C16.9 13.8032 16.2406 13 15.4 13C14.8759 13 14.2974 13.2849 13.9 13.9631V13.9658V13.9761V13.9864V13.9967V14.0071V14.0174V14.0278V14.0382V14.0487V14.0591V14.0695V14.08V14.0905V14.101V14.1115V14.122V14.1326V14.1432V14.1537V14.1643V14.1749V14.1855V14.1962V14.2068V14.2175V14.2282V14.2388V14.2496V14.2603V14.271V14.2817V14.2925V14.3033V14.314V14.3248V14.3356V14.3464V14.3573V14.3681V14.379V14.3898V14.4007V14.4116V14.4225V14.4334V14.4443V14.4552V14.4662V14.4771V14.4881V14.499V14.51V14.521V14.532V14.543V14.554V14.565V14.5761V14.5871V14.5981V14.6092V14.6203V14.6313V14.6424V14.6535V14.6646V14.6757V14.6868V14.6979V14.709V14.7202V14.7313V14.7424V14.7536V14.7647V14.7759V14.7871V14.7982V14.8094V14.8206V14.8318V14.8429V14.8541V14.8653V14.8765V14.8878V14.899V14.9102V14.9214V14.9326V14.9438V14.9551V14.9663V14.9775V14.9888V15V15.0113V15.0225V15.0338V15.045V15.0562V15.0675V15.0788V15.09V15.1013V15.1125V15.1238V15.135V15.1463V15.1576V15.1688V15.1801V15.1913V15.2026V15.2139V15.2251V15.2364V15.2476V15.2589V15.2701V15.2814V15.2926V15.3039V15.3151V15.3264V15.3376V15.3489V15.3601V15.3714V15.3826V15.3938V15.405V15.4163V15.4275V15.4387V15.4499V15.4611V15.4723V15.4835V15.4947V15.5059V15.5171V15.5283V15.5395V15.5506V15.5618V15.573V15.5841V15.5953V15.6064V15.6176V15.6287V15.6398V15.6509V15.662V15.6732V15.6843V15.6953V15.7064V15.7175V15.7286V15.7396V15.7507V15.7617V15.7728V15.7838V15.7948V15.8058V15.8168V15.8278V15.8388V15.8498V15.8607V15.8717V15.8826V15.8936V15.9045V15.9154V15.9263V15.9372V15.9481V15.9589V15.9698V15.9806V15.9915V16.0023V16.0131V16.0239V16.0347V16.0455V16.0562V16.067V16.0777V16.0884V16.0991V16.1098V16.1205V16.1312V16.1419V16.1525V16.1631V16.1737V16.1843V16.1949V16.2055V16.2161V16.2266V16.2371V16.2476V16.2581V16.2686V16.2791V16.2895V16.2999V16.3104V16.3208V16.3311V16.3415V16.3519V16.3622V16.3725V16.3828V16.3931V16.4033V16.4136V16.4238V16.434V16.4442V16.4544V16.4645V16.4747V16.4848V16.4949V16.5049V16.515V16.525V16.535V16.545V16.555V16.565V16.5749V16.5848V16.5947V16.6046V16.6144V16.6243V16.6341V16.6439V16.6536V16.6634V16.6731V16.6828V16.6925V16.7021V16.7118V16.7214V16.731V16.7405V16.7501V16.7596V16.7691V16.7786V16.788V16.7974V16.8068V16.8162V16.8256V16.8349V16.8442V16.8534V16.8627V16.8719V16.8811V16.8903V16.8994V16.9086V16.9177V16.9267V16.9358V16.9448V16.9538V16.9627V16.9717V16.9806V16.9895V16.9983V17.0071V17.0159V17.0247V17.0334V17.0421V17.0508V17.0595V17.0681V17.0767V17.0853V17.0938V17.1023V17.1108V17.1193V17.1277V17.1361V17.1444V17.1527V17.161V17.1693V17.1776V17.1858V17.1939V17.2021V17.2102V17.2183V17.2263V17.2343V17.2423V17.2503V17.2582V17.2661V17.2739V17.2817V17.2895V17.2973V17.305V17.3127V17.3203V17.328V17.3356V17.3431V17.3506V17.3581V17.3656V17.373V17.3803V17.3877V17.395V17.4023V17.4095V17.4167V17.4239V17.431V17.4381V17.4451V17.4522V17.4591V17.4661V17.473V17.4799V17.4867V17.4935V17.5002V17.507V17.5137V17.5203V17.5269V17.5335V17.54V17.5465V17.5529V17.5593V17.5657V17.5721V17.5783V17.5846V17.5908V17.597V17.6031V17.6092V17.6153V17.6213V17.6272V17.6332V17.6391V17.6449V17.6507V17.6565V17.6622V17.6679V17.6735V17.6791V17.6847V17.6902V17.6956V17.7011V17.7064V17.7118V17.7171V17.7223V17.7275V17.7327V17.7378V17.7429V17.7479V17.7529V17.7578V17.7627V17.7676V17.7724V17.7772V17.7819V17.7865V17.7912V17.7957V17.8003V17.8048V17.8092V17.8136V17.8179V17.8222V17.8265V17.8307V17.8348V17.839V17.843V17.847V17.851V17.8549V17.8588V17.8626V17.8664V17.8701V17.8738V17.8774V17.881V17.8845V17.888V17.8914V17.8948V17.8981V17.9014V17.9046V17.9078V17.9109V17.914V17.917V17.92V17.9229V17.9258V17.9286V17.9313V17.9341V17.9367V17.9393V17.9419V17.9444V17.9468V17.9492V17.9516V17.9539V17.9561V17.9583V17.9604V17.9625V17.9645V17.9665V17.9684V17.9703V17.9721V17.9738V17.9755V17.9771V17.9787V17.9803V17.9817V17.9831V17.9845V17.9858V17.9871V17.9883V17.9894V17.9905V17.9915V17.9934V17.995V17.9964V17.9976V17.9989V17.9999C13.9 18.5522 13.4523 19 12.9 19C12.3477 19 11.9 18.5523 11.9 18V17.9989V17.9976V17.9964V17.995V17.9934V17.9915V17.9905V17.9894V17.9883V17.9871V17.9858V17.9845V17.9831V17.9817V17.9803V17.9787V17.9771V17.9755V17.9738V17.9721V17.9703V17.9684V17.9665V17.9645V17.9625V17.9604V17.9583V17.9561V17.9539V17.9516V17.9492V17.9468V17.9444V17.9419V17.9393V17.9367V17.9341V17.9313V17.9286V17.9258V17.9229V17.92V17.917V17.914V17.9109V17.9078V17.9046V17.9014V17.8981V17.8948V17.8914V17.888V17.8845V17.881V17.8774V17.8738V17.8701V17.8664V17.8626V17.8588V17.8549V17.851V17.847V17.843V17.839V17.8348V17.8307V17.8265V17.8222V17.8179V17.8136V17.8092V17.8048V17.8003V17.7957V17.7912V17.7865V17.7819V17.7772V17.7724V17.7676V17.7627V17.7578V17.7529V17.7479V17.7429V17.7378V17.7327V17.7275V17.7223V17.7171V17.7118V17.7064V17.7011V17.6956V17.6902V17.6847V17.6791V17.6735V17.6679V17.6622V17.6565V17.6507V17.6449V17.6391V17.6332V17.6272V17.6213V17.6153V17.6092V17.6031V17.597V17.5908V17.5846V17.5783V17.5721V17.5657V17.5593V17.5529V17.5465V17.54V17.5335V17.5269V17.5203V17.5137V17.507V17.5002V17.4935V17.4867V17.4799V17.473V17.4661V17.4591V17.4522V17.4451V17.4381V17.431V17.4239V17.4167V17.4095V17.4023V17.395V17.3877V17.3803V17.373V17.3656V17.3581V17.3506V17.3431V17.3356V17.328V17.3203V17.3127V17.305V17.2973V17.2895V17.2817V17.2739V17.2661V17.2582V17.2503V17.2423V17.2343V17.2263V17.2183V17.2102V17.2021V17.1939V17.1858V17.1776V17.1693V17.161V17.1527V17.1444V17.1361V17.1277V17.1193V17.1108V17.1023V17.0938V17.0853V17.0767V17.0681V17.0595V17.0508V17.0421V17.0334V17.0247V17.0159V17.0071V16.9983V16.9895V16.9806V16.9717V16.9627V16.9538V16.9448V16.9358V16.9267V16.9177V16.9086V16.8994V16.8903V16.8811V16.8719V16.8627V16.8534V16.8442V16.8349V16.8256V16.8162V16.8068V16.7974V16.788V16.7786V16.7691V16.7596V16.7501V16.7405V16.731V16.7214V16.7118V16.7021V16.6925V16.6828V16.6731V16.6634V16.6536V16.6439V16.6341V16.6243V16.6144V16.6046V16.5947V16.5848V16.5749V16.565V16.555V16.545V16.535V16.525V16.515V16.5049V16.4949V16.4848V16.4747V16.4645V16.4544V16.4442V16.434V16.4238V16.4136V16.4033V16.3931V16.3828V16.3725V16.3622V16.3519V16.3415V16.3311V16.3208V16.3104V16.2999V16.2895V16.2791V16.2686V16.2581V16.2476V16.2371V16.2266V16.2161V16.2055V16.1949V16.1843V16.1737V16.1631V16.1525V16.1419V16.1312V16.1205V16.1098V16.0991V16.0884V16.0777V16.067V16.0562V16.0455V16.0347V16.0239V16.0131V16.0023V15.9915V15.9806V15.9698V15.9589V15.9481V15.9372V15.9263V15.9154V15.9045V15.8936V15.8826V15.8717V15.8607V15.8498V15.8388V15.8278V15.8168V15.8058V15.7948V15.7838V15.7728V15.7617V15.7507V15.7396V15.7286V15.7175V15.7064V15.6953V15.6843V15.6732V15.662V15.6509V15.6398V15.6287V15.6176V15.6064V15.5953V15.5841V15.573V15.5618V15.5506V15.5395V15.5283V15.5171V15.5059V15.4947V15.4835V15.4723V15.4611V15.4499V15.4387V15.4275V15.4163V15.405V15.3938V15.3826V15.3714V15.3601V15.3489V15.3376V15.3264V15.3151V15.3039V15.2926V15.2814V15.2701V15.2589V15.2476V15.2364V15.2251V15.2139V15.2026V15.1913V15.1801V15.1688V15.1576V15.1463V15.135V15.1238V15.1125V15.1013V15.09V15.0788V15.0675V15.0562V15.045V15.0338V15.0225V15.0113V15V14.9888V14.9775V14.9663V14.9551V14.9438V14.9326V14.9214V14.9102V14.899V14.8878V14.8765V14.8653V14.8541V14.8429V14.8318V14.8206V14.8094V14.7982V14.7871V14.7759V14.7647V14.7536V14.7424V14.7313V14.7202V14.709V14.6979V14.6868V14.6757V14.6646V14.6535V14.6424V14.6313V14.6203V14.6092V14.5981V14.5871V14.5761V14.565V14.554V14.543V14.532V14.521V14.51V14.499V14.4881V14.4771V14.4662V14.4552V14.4443V14.4334V14.4225V14.4116V14.4007V14.3898V14.379V14.3681V14.3573V14.3464V14.3356V14.3248V14.314V14.3033V14.2925V14.2817V14.271V14.2603V14.2496V14.2388V14.2282V14.2175V14.2068V14.1962V14.1855V14.1749V14.1643V14.1537V14.1432V14.1326V14.122V14.1115V14.101V14.0905V14.08V14.0695V14.0591V14.0487V14.0382V14.0278V14.0174V14.0071V13.9967V13.9864V13.9761V13.9658V13.9555V13.9452V13.9349V13.9247V13.9145V13.9043V13.8941V13.884V13.8738V13.8637V13.8536V13.8435V13.8335V13.8234V13.8134V13.8034V13.7934V13.7834V13.7735V13.7636V13.7537V13.7438V13.7339V13.7241V13.7143V13.7104V13.7064V13.7025V13.6985V13.6946V13.6906V13.6866V13.6826V13.6786V13.6746V13.6706V13.6666V13.6626V13.6586V13.6545V13.6505V13.6464V13.6423V13.6383V13.6342V13.6301V13.626V13.6219V13.6178V13.6137V13.6096V13.6055V13.6013V13.5972V13.593V13.5889V13.5847V13.5805V13.5764V13.5722V13.568V13.5638V13.5596V13.5554V13.5512V13.547V13.5427V13.5385V13.5343V13.53V13.5258V13.5215V13.5173V13.513V13.5087V13.5045V13.5002V13.4959V13.4916V13.4873V13.483V13.4787V13.4744V13.4701V13.4657V13.4614V13.4571V13.4528V13.4484V13.4441V13.4397V13.4354V13.431V13.4266V13.4223V13.4179V13.4135V13.4092V13.4048V13.4004V13.396V13.3916V13.3872V13.3828V13.3784V13.374V13.3696V13.3652V13.3607V13.3563V13.3519V13.3475V13.343V13.3386V13.3342V13.3297V13.3253V13.3208V13.3164V13.3119V13.3075V13.303V13.2986V13.2941V13.2896V13.2852V13.2807V13.2762V13.2718V13.2673V13.2628V13.2583V13.2539V13.2494V13.2449V13.2404V13.2359V13.2314V13.227V13.2225V13.218V13.2135V13.209V13.2045V13.2V13.1955V13.191V13.1865V13.182V13.1775V13.173V13.1685V13.164V13.1595V13.155V13.1505V13.146V13.1415V13.137V13.1325V13.128V13.1235V13.119V13.1145V13.11V13.1055V13.1009V13.0964V13.0919V13.0874V13.0829V13.0784V13.0739V13.0694V13.0649V13.0604V13.056V13.0515V13.047V13.0425V13.038V13.0335V13.029V13.0245V13.02V13.0155V13.0111V13.0066V13.0021V12.9976V12.9932V12.9887V12.9842V12.9797V12.9753V12.9708V12.9663V12.9619V12.9574V12.953V12.9485V12.9441V12.9396V12.9352V12.9307V12.9263V12.9219V12.9174V12.913V12.9086V12.9041V12.8997V12.8953V12.8909V12.8865V12.8821V12.8777V12.8733V12.8689V12.8645V12.8601V12.8557V12.8513V12.847V12.8426V12.8382V12.8338V12.8295V12.8251V12.8208V12.8164V12.8121V12.8077V12.8034V12.7991V12.7948V12.7904V12.7861V12.7818V12.7775V12.7732V12.7689V12.7646V12.7603V12.7561V12.7518V12.7475V12.7433V12.739V12.7347V12.7305V12.7263V12.722V12.7178V12.7136V12.7094V12.7052V12.7009V12.6967V12.6926V12.6884V12.6842V12.68V12.6759V12.6717V12.6675V12.6634V12.6593V12.6551V12.651V12.6469V12.6428V12.6387V12.6346V12.6305V12.6264V12.6223V12.6183V12.6142V12.6101V12.6061V12.6021V12.598V12.594V12.59V12.586V12.582V12.578V12.574V12.57V12.5661V12.5621V12.5582V12.5542V12.5503V12.5464V12.5424V12.5385V12.5346V12.5308V12.5269V12.523V12.5191V12.5153V12.5114V12.5076V12.5038V12.5V12.4962V12.4924V12.4886V12.4848V12.481V12.4773V12.4735V12.4698V12.4661V12.4623V12.4586V12.4549V12.4512V12.4476V12.4439V12.4402V12.4366V12.4329V12.4293V12.4257V12.4221V12.4185V12.4149V12.4113V12.4078V12.4042V12.4007V12.3971V12.3936V12.3901V12.3866V12.3831V12.3797V12.3762V12.3728V12.3693V12.3659V12.3625V12.3591V12.3557V12.3523V12.3489V12.3456V12.3422V12.3389V12.3356V12.3323V12.329V12.3257V12.3224V12.3192V12.3159V12.3127V12.3095V12.3063V12.3031V12.2999V12.2967V12.2936V12.2904V12.2873V12.2842V12.2811V12.278V12.2749V12.2719V12.2688V12.2658V12.2628V12.2598V12.2568V12.2538V12.2508V12.2479V12.2449V12.242V12.2391V12.2362V12.2333V12.2305V12.2276V12.2248V12.2219V12.2191V12.2163V12.2136V12.2108V12.2081V12.2053V12.2026V12.1999V12.1972V12.1945V12.1919V12.1892V12.1866V12.184V12.1814V12.1788V12.1763V12.1737V12.1712V12.1687V12.1662V12.1637V12.1612V12.1588V12.1563V12.1539V12.1515V12.1491V12.1467V12.1444V12.142V12.1397V12.1374V12.1351V12.1329V12.1306V12.1284V12.1261V12.1239V12.1217V12.1196V12.1174V12.1153V12.1132V12.1111V12.109V12.1069V12.1049V12.1028V12.1008V12.0988V12.0969V12.0949V12.093V12.091V12.0891V12.0873V12.0854V12.0835V12.0817V12.0799V12.0781V12.0763V12.0746V12.0728V12.0711V12.0694V12.0677V12.0661V12.0644V12.0628V12.0612V12.0596V12.058V12.0565V12.055V12.0535V12.052V12.0505V12.049V12.0476V12.0462V12.0448V12.0434V12.0421V12.0408V12.0394V12.0382V12.0369V12.0356V12.0344V12.0332V12.032V12.0308V12.0297V12.0286V12.0275V12.0264V12.0253V12.0243V12.0232V12.0222V12.0203V12.0185V12.0167V12.015V12.0134V12.0119V12.0105V12.0091V12.0079V12.0067V12.0052V12.0042V12.003V12.002V12.0008C11.9 11.4485 12.3477 11 12.9 11Z" fill="white" stroke="white" stroke-width="2" mask="url(#path-2-inside-1_211_3418)"/>
</svg>
