<svg xmlns="http://www.w3.org/2000/svg" width="127" height="40" fill="none" xmlns:v="https://vecta.io/nano"><g fill-rule="evenodd"><path d="M37.798 10.868c2.28.422 4.267 1.677 5.635 3.437.247.318.474.652.679 1.001A9.24 9.24 0 0 1 45.384 20c0 4.548-3.269 8.333-7.586 9.132-1.019 1.981-2.358 3.77-3.95 5.298a14.71 14.71 0 0 0 2.248.172c7.517 0 13.708-5.68 14.514-12.982a14.77 14.77 0 0 0 .089-1.62c0-3.642-1.333-6.973-3.538-9.53-2.678-3.106-6.641-5.072-11.064-5.072a14.72 14.72 0 0 0-2.248.172c1.592 1.528 2.932 3.317 3.95 5.298z" fill="#00afef"/><path d="M36.096 29.288a9.25 9.25 0 0 1-5.812-2.043 12.64 12.64 0 0 1-3.943 3.621 14.55 14.55 0 0 0 7.507 3.565c1.592-1.528 2.932-3.317 3.95-5.298a9.36 9.36 0 0 1-1.702.155zm-5.812-16.533a9.25 9.25 0 0 1 5.812-2.043 9.36 9.36 0 0 1 1.702.155c-1.019-1.981-2.358-3.77-3.95-5.298a14.55 14.55 0 0 0-7.507 3.565 12.65 12.65 0 0 1 3.943 3.621z" fill="#fefefe"/><path d="M30.284 12.755c-1.038-1.471-2.384-2.709-3.943-3.621-2.976 2.673-4.847 6.551-4.847 10.866s1.871 8.192 4.847 10.866a12.65 12.65 0 0 0 3.943-3.621 9.27 9.27 0 0 1 0-14.49z" fill="#00afef"/><path d="M26.341 9.134a14.55 14.55 0 0 1 7.507-3.565C30.254 2.12 25.375 0 20 0 8.955 0 0 8.955 0 20s8.955 20 20 20c5.375 0 10.254-2.12 13.848-5.569-2.861-.442-5.449-1.715-7.507-3.565A12.52 12.52 0 0 1 20 32.579 12.58 12.58 0 0 1 7.421 20 12.58 12.58 0 0 1 20 7.421a12.52 12.52 0 0 1 6.341 1.713h0z" fill="#3e4095"/><path d="M34.195 13.767h3.683v4.243h4.243v3.682h-4.243v4.243h-3.683v-4.243h-4.243V18.01h4.243v-4.243z" fill="#ed3237"/></g><path d="M61.077 22.159c-1.062 0-2.052-.171-2.971-.511-.905-.354-1.692-.852-2.361-1.495a7.02 7.02 0 0 1-1.574-2.262c-.367-.866-.551-1.816-.551-2.852s.184-1.987.551-2.852a7.02 7.02 0 0 1 1.574-2.262c.682-.643 1.475-1.134 2.38-1.475.905-.354 1.895-.531 2.971-.531 1.193 0 2.269.21 3.226.629a6.2 6.2 0 0 1 2.439 1.81l-2.046 1.889c-.472-.538-.997-.938-1.574-1.2-.577-.275-1.206-.413-1.889-.413a4.83 4.83 0 0 0-1.77.315 4.01 4.01 0 0 0-1.397.905c-.394.394-.702.859-.925 1.397-.21.538-.315 1.134-.315 1.79s.105 1.252.315 1.79c.223.538.531 1.003.925 1.397a4.01 4.01 0 0 0 1.397.905 4.83 4.83 0 0 0 1.77.315c.682 0 1.312-.131 1.889-.393.577-.275 1.102-.688 1.574-1.239l2.046 1.888c-.656.8-1.469 1.41-2.439 1.829-.957.42-2.039.63-3.246.63zm7.621-.236V11.339h3.069v10.583h-3.069zm1.534-12.059c-.564 0-1.023-.164-1.377-.492s-.531-.734-.531-1.22.177-.892.531-1.22.813-.492 1.377-.492 1.023.157 1.377.472c.354.302.531.695.531 1.18a1.7 1.7 0 0 1-.531 1.279c-.341.328-.8.492-1.377.492zm8.711 12.216c-1.246 0-2.216-.315-2.911-.944-.695-.643-1.043-1.593-1.043-2.852V8.999h3.069v9.246c0 .446.118.794.354 1.043.236.236.557.354.964.354.485 0 .898-.131 1.239-.393l.826 2.164c-.315.223-.695.393-1.141.511-.433.105-.885.157-1.357.157zm-5.587-8.144v-2.361h7.338v2.361h-7.338zm16.299 7.987v-2.066l-.197-.452v-3.698c0-.656-.203-1.167-.61-1.534-.393-.367-1.003-.551-1.829-.551-.564 0-1.121.092-1.672.275-.538.17-.997.406-1.377.708l-1.102-2.144c.577-.406 1.272-.721 2.085-.944a9.33 9.33 0 0 1 2.479-.334c1.613 0 2.865.38 3.757 1.141s1.338 1.947 1.338 3.561v6.039h-2.872zm-3.226.157c-.826 0-1.534-.138-2.124-.413-.59-.289-1.043-.675-1.357-1.161s-.472-1.029-.472-1.633c0-.63.151-1.18.452-1.652.315-.472.807-.839 1.475-1.102.669-.275 1.541-.413 2.616-.413h2.813v1.79h-2.479c-.721 0-1.22.118-1.495.354a1.14 1.14 0 0 0-.393.885 1.14 1.14 0 0 0 .452.944c.315.223.741.334 1.279.334a2.69 2.69 0 0 0 1.377-.354c.407-.249.702-.61.885-1.082l.472 1.416a2.74 2.74 0 0 1-1.22 1.554c-.59.354-1.351.531-2.282.531zm13.497 0c-.997 0-1.895-.223-2.695-.669-.8-.459-1.436-1.095-1.908-1.908-.459-.813-.688-1.77-.688-2.872 0-1.115.229-2.079.688-2.892a4.98 4.98 0 0 1 1.908-1.889c.8-.446 1.698-.669 2.695-.669.892 0 1.672.197 2.341.59s1.187.99 1.554 1.79.551 1.823.551 3.069c0 1.233-.177 2.256-.531 3.069-.355.8-.866 1.397-1.535 1.79-.656.393-1.449.59-2.38.59zm.531-2.518c.498 0 .951-.118 1.357-.354s.728-.571.964-1.003c.249-.446.374-.97.374-1.574 0-.616-.125-1.141-.374-1.574a2.53 2.53 0 0 0-.964-1.003c-.407-.236-.859-.354-1.357-.354-.511 0-.97.118-1.377.354s-.734.57-.984 1.003c-.236.433-.354.957-.354 1.574 0 .603.118 1.128.354 1.574a2.67 2.67 0 0 0 .984 1.003c.407.236.866.354 1.377.354zm2.774 2.361v-2.164l.059-3.148-.197-3.128V7.326h3.069v14.597h-2.931zm11.023.157c-1.206 0-2.268-.236-3.186-.708-.905-.472-1.607-1.115-2.105-1.928-.499-.826-.748-1.764-.748-2.813 0-1.062.243-2 .728-2.813a5.21 5.21 0 0 1 2.026-1.928c.853-.472 1.817-.708 2.892-.708 1.036 0 1.967.223 2.793.669.84.433 1.502 1.062 1.987 1.889.486.813.728 1.79.728 2.931l-.02.413-.039.413h-8.596v-1.79h6.983l-1.18.531c0-.551-.112-1.03-.335-1.436s-.531-.721-.924-.944c-.394-.236-.853-.354-1.377-.354s-.99.118-1.397.354c-.393.223-.702.544-.925.964-.222.407-.334.892-.334 1.456v.472c0 .577.125 1.089.374 1.534a2.66 2.66 0 0 0 1.082 1.003c.472.223 1.023.335 1.652.335.564 0 1.056-.085 1.476-.256a3.6 3.6 0 0 0 1.18-.767l1.633 1.771c-.486.551-1.095.977-1.83 1.279-.734.288-1.58.433-2.538.433zm7.158-.157V7.326h3.069v14.597h-3.069z" fill="#3e4095"/><path d="M53.887 33.392v-9.767h1.87l4.158 6.893h-.991l4.088-6.893h1.856l.028 9.767h-2.121l-.014-6.516h.391l-3.265 5.483h-1.019l-3.335-5.483h.474v6.516h-2.121zm15.404-5.833h4.702v1.758h-4.702v-1.758zm.167 4.018h5.316v1.814h-7.562v-9.767h7.381v1.814h-5.135v6.139zm7.115 1.815v-9.767h4.437c1.06 0 1.995.205 2.805.614.809.4 1.442.963 1.898 1.688s.684 1.586.684 2.581c0 .986-.228 1.846-.684 2.581-.456.726-1.088 1.293-1.898 1.702-.809.4-1.744.6-2.805.6h-4.437zm2.26-1.856h2.065c.651 0 1.214-.121 1.688-.363a2.67 2.67 0 0 0 1.116-1.06c.27-.456.405-.991.405-1.605 0-.623-.135-1.158-.405-1.604a2.59 2.59 0 0 0-1.116-1.047c-.474-.251-1.037-.377-1.688-.377h-2.065v6.055zm12.477 2.023a8.14 8.14 0 0 1-2.246-.307c-.716-.214-1.293-.488-1.73-.823l.767-1.702c.419.298.912.544 1.479.739a5.65 5.65 0 0 0 1.744.279c.447 0 .805-.042 1.074-.126.279-.093.484-.219.614-.377a.83.83 0 0 0 .195-.544c0-.261-.102-.465-.307-.614-.205-.158-.474-.284-.809-.377a12.22 12.22 0 0 0-1.116-.279l-1.214-.335a5.2 5.2 0 0 1-1.102-.502c-.335-.204-.609-.474-.823-.809-.205-.335-.307-.763-.307-1.284a2.72 2.72 0 0 1 .447-1.521c.307-.465.763-.832 1.367-1.102.614-.279 1.381-.419 2.302-.419a7.45 7.45 0 0 1 1.814.223 5.13 5.13 0 0 1 1.577.642l-.698 1.716c-.456-.26-.911-.451-1.367-.572a4.87 4.87 0 0 0-1.34-.195c-.438 0-.795.051-1.074.154s-.479.237-.6.405a.89.89 0 0 0-.181.558.74.74 0 0 0 .307.614c.205.149.474.27.809.363l1.102.279 1.214.321c.409.121.781.284 1.116.488a2.39 2.39 0 0 1 .809.809c.214.335.321.758.321 1.27a2.64 2.64 0 0 1-.46 1.507c-.307.456-.767.823-1.381 1.102-.605.279-1.372.419-2.302.419zm9.639-.167v-9.767h2.261v7.925h4.897v1.842h-7.158zm9.531 0v-7.925h-3.125v-1.842h8.511v1.842h-3.126v7.925h-2.26zm6.602 0v-9.767h4.437c1.06 0 1.995.205 2.804.614.81.4 1.442.963 1.898 1.688s.684 1.586.684 2.581c0 .986-.228 1.846-.684 2.581-.456.726-1.088 1.293-1.898 1.702-.809.4-1.744.6-2.804.6h-4.437zm2.26-1.856h2.065c.651 0 1.214-.121 1.689-.363a2.68 2.68 0 0 0 1.116-1.06c.27-.456.404-.991.404-1.605 0-.623-.134-1.158-.404-1.604a2.59 2.59 0 0 0-1.116-1.047c-.475-.251-1.038-.377-1.689-.377h-2.065v6.055z" fill="#00afef"/></svg>