<svg width="40" height="40" viewBox="0 0 40 40" fill="none" xmlns="http://www.w3.org/2000/svg">
<path d="M20.2222 4H11.6889C9.6976 4 8.70194 4 7.94137 4.38754C7.27234 4.72841 6.72841 5.27234 6.38754 5.94137C6 6.70194 6 7.6976 6 9.68889V30.3111C6 32.3024 6 33.2981 6.38754 34.0587C6.72841 34.7276 7.27234 35.2716 7.94137 35.6124C8.70194 36 9.6976 36 11.6889 36H18.4444M20.2222 4L30.8889 14.6667M20.2222 4V11.8222C20.2222 12.8179 20.2222 13.3157 20.416 13.696C20.5865 14.0305 20.8583 14.3025 21.1929 14.4729C21.5732 14.6667 22.0709 14.6667 23.0667 14.6667H30.8889M30.8889 14.6667V16.4444M13.1111 28.8889H16.6667M13.1111 21.7778H18.4444M13.1111 14.6667H14.8889M34.4444 25.7067C34.3232 25.714 33.9746 25.7067 33.8519 25.7067C32.0306 25.7067 30.3692 24.8932 29.1111 23.5556C27.853 24.8932 26.1916 25.7065 24.3703 25.7065C24.2476 25.7065 23.8994 25.714 23.7781 25.7067C23.7781 25.7067 23.7778 27.0853 23.7778 27.8185C23.7778 31.7548 26.0441 35.0622 29.1111 36C32.1781 35.0622 34.4444 31.7548 34.4444 27.8185C34.4444 27.0853 34.4444 25.7067 34.4444 25.7067Z" stroke="#0185B7" stroke-width="3.55556" stroke-linecap="round" stroke-linejoin="round"/>
</svg>
