<svg width="48" height="48" viewBox="0 0 48 48" fill="none" xmlns="http://www.w3.org/2000/svg">
<path fill-rule="evenodd" clip-rule="evenodd" d="M24.8944 2.21163C24.3314 1.93011 23.6686 1.93011 23.1056 2.21163L7.10558 10.2116C6.428 10.5504 6 11.243 6 12.0005V24.0005C6 29.3249 7.72108 33.7831 10.8059 37.4327C13.8585 41.0441 18.1694 43.7761 23.2428 45.8515C23.728 46.0501 24.272 46.0501 24.7572 45.8515C29.8306 43.7761 34.1414 41.0441 37.1942 37.4327C40.279 33.7831 42 29.3249 42 24.0005V12.0005C42 11.243 41.572 10.5504 40.8944 10.2116L24.8944 2.21163ZM10 24.0005V13.2366L24 6.23655L38 13.2366V24.0005C38 28.3855 36.61 31.9275 34.1392 34.8505C31.7722 37.6509 28.3442 39.9611 24 41.8317C19.6557 39.9611 16.2278 37.6509 13.8608 34.8505C11.39 31.9275 10 28.3855 10 24.0005ZM33.5144 19.3069C34.2358 18.4706 34.1428 17.2077 33.3064 16.4862C32.4702 15.7646 31.2072 15.8577 30.4856 16.694L21.5254 27.0797L17.4004 23.0341C16.6118 22.2607 15.3456 22.2729 14.5721 23.0615C13.7987 23.8501 13.811 25.1163 14.5996 25.8897L20.2466 31.4283C20.6412 31.8153 21.1782 32.0217 21.7302 31.9987C22.2824 31.9757 22.8004 31.7253 23.1614 31.3069L33.5144 19.3069Z" fill="#0185B7"/>
</svg>
