<svg width="32" height="32" viewBox="0 0 32 32" fill="none" xmlns="http://www.w3.org/2000/svg">
<path d="M7.39874 7.95225V13.1329C7.39894 14.9756 7.79298 16.7969 8.55445 18.4749C9.31592 20.1528 10.4272 21.6486 11.8139 22.8621L15.9997 26.5247L20.1856 22.8621C21.5723 21.6487 22.6837 20.1529 23.4452 18.4749C24.2066 16.7969 24.6006 14.9756 24.6007 13.1329V7.95225L15.9997 4.72687L7.39874 7.95225ZM5.46208 5.61564L15.9997 1.66492L26.5374 5.61708C26.8106 5.71948 27.046 5.9028 27.2123 6.14256C27.3785 6.38231 27.4676 6.66708 27.4677 6.95883V13.1329C27.4677 17.6871 25.501 22.0206 22.0735 25.0209L15.9997 30.3349L9.926 25.0209C8.23155 23.5383 6.87364 21.7106 5.94329 19.6603C5.01295 17.6099 4.53168 15.3844 4.53174 13.1329V6.95883C4.53185 6.66708 4.62098 6.38231 4.78721 6.14256C4.95345 5.9028 5.18889 5.71805 5.46208 5.61564ZM17.4332 13.1329H20.3002C20.6804 13.1329 21.045 13.2839 21.3139 13.5528C21.5827 13.8216 21.7337 14.1862 21.7337 14.5664C21.7337 14.9466 21.5827 15.3112 21.3139 15.5801C21.045 15.8489 20.6804 15.9999 20.3002 15.9999H17.4332V18.8669C17.4332 19.2471 17.2822 19.6117 17.0134 19.8806C16.7445 20.1494 16.3799 20.3004 15.9997 20.3004C15.6196 20.3004 15.2549 20.1494 14.9861 19.8806C14.7173 19.6117 14.5662 19.2471 14.5662 18.8669V15.9999H11.6992C11.3191 15.9999 10.9544 15.8489 10.6856 15.5801C10.4168 15.3112 10.2657 14.9466 10.2657 14.5664C10.2657 14.1862 10.4168 13.8216 10.6856 13.5528C10.9544 13.2839 11.3191 13.1329 11.6992 13.1329H14.5662V10.2659C14.5662 9.88573 14.7173 9.52111 14.9861 9.25228C15.2549 8.98345 15.6196 8.83242 15.9997 8.83242C16.3799 8.83242 16.7445 8.98345 17.0134 9.25228C17.2822 9.52111 17.4332 9.88573 17.4332 10.2659V13.1329Z" fill="#0185B7"/>
</svg>
