<svg width="48" height="48" viewBox="0 0 48 48" fill="none" xmlns="http://www.w3.org/2000/svg">
<path fill-rule="evenodd" clip-rule="evenodd" d="M39.5994 20.36C38.9794 14 35.2194 4 23.5994 4C11.9794 4 8.21936 14 7.59936 20.36C5.42439 21.1855 3.98974 23.2737 3.99932 25.6V28.4C3.99932 31.4928 6.50657 34 9.59936 34C12.6922 34 15.1994 31.4928 15.1994 28.4V25.6C15.1893 23.3239 13.8074 21.2786 11.6994 20.42C12.0994 16.74 14.0594 8 23.5994 8C33.1394 8 35.0794 16.74 35.4794 20.42C33.3756 21.2804 32.0007 23.3271 31.9994 25.6V28.4C32.008 30.55 33.2426 32.5066 35.1794 33.44C34.3394 35.02 32.1994 37.16 26.9394 37.8C25.8879 36.2034 23.8537 35.574 22.0842 36.2978C20.3148 37.0216 19.3049 38.8963 19.6739 40.772C20.0429 42.6478 21.6876 44 23.5994 44C25.11 43.9916 26.4871 43.1329 27.1594 41.78C35.7394 40.8 38.4794 36.38 39.3394 33.78C41.666 33.0263 43.2307 30.8455 43.1994 28.4V25.6C43.209 23.2737 41.7743 21.1855 39.5994 20.36ZM11.1994 28.4C11.1994 29.2837 10.483 30 9.59936 30C8.71571 30 7.99936 29.2837 7.99936 28.4V25.6C7.99936 25.0284 8.30432 24.5002 8.79936 24.2144C9.2944 23.9285 9.90432 23.9285 10.3994 24.2144C10.8944 24.5002 11.1994 25.0284 11.1994 25.6V28.4ZM35.9994 25.6C35.9994 24.7163 36.7157 24 37.5994 24C38.483 24 39.1994 24.7163 39.1994 25.6V28.4C39.1994 29.2837 38.483 30 37.5994 30C36.7157 30 35.9994 29.2837 35.9994 28.4V25.6Z" fill="#0185B7"/>
</svg>
