<svg width="32" height="32" viewBox="0 0 32 32" fill="none" xmlns="http://www.w3.org/2000/svg">
<path fill-rule="evenodd" clip-rule="evenodd" d="M26.4001 13.5732C25.9867 9.33317 23.4801 2.6665 15.7334 2.6665C7.98675 2.6665 5.48008 9.33317 5.06675 13.5732C3.61677 14.1235 2.66033 15.5156 2.66672 17.0665V18.9332C2.66672 20.995 4.33822 22.6665 6.40008 22.6665C8.46195 22.6665 10.1334 20.995 10.1334 18.9332V17.0665C10.1267 15.5491 9.20541 14.1856 7.80008 13.6132C8.06675 11.1598 9.37342 5.33317 15.7334 5.33317C22.0934 5.33317 23.3867 11.1598 23.6534 13.6132C22.2509 14.1868 21.3343 15.5512 21.3334 17.0665V18.9332C21.3392 20.3665 22.1622 21.6709 23.4534 22.2932C22.8934 23.3465 21.4667 24.7732 17.9601 25.1998C17.2591 24.1354 15.903 23.7158 14.7233 24.1984C13.5437 24.6809 12.8705 25.9307 13.1165 27.1812C13.3624 28.4317 14.4589 29.3332 15.7334 29.3332C16.7405 29.3276 17.6586 28.7551 18.1067 27.8532C23.8267 27.1998 25.6534 24.2532 26.2267 22.5198C27.7778 22.0174 28.821 20.5635 28.8001 18.9332V17.0665C28.8065 15.5156 27.8501 14.1235 26.4001 13.5732ZM7.46675 18.9332C7.46675 19.5223 6.98919 19.9998 6.40008 19.9998C5.81098 19.9998 5.33342 19.5223 5.33342 18.9332V17.0665C5.33342 16.6854 5.53672 16.3333 5.86675 16.1427C6.19678 15.9522 6.60339 15.9522 6.93342 16.1427C7.26344 16.3333 7.46675 16.6854 7.46675 17.0665V18.9332ZM24.0001 17.0665C24.0001 16.4774 24.4776 15.9998 25.0667 15.9998C25.6559 15.9998 26.1334 16.4774 26.1334 17.0665V18.9332C26.1334 19.5223 25.6559 19.9998 25.0667 19.9998C24.4776 19.9998 24.0001 19.5223 24.0001 18.9332V17.0665Z" fill="#0185B7"/>
</svg>
