<svg xmlns="http://www.w3.org/2000/svg" width="1233" height="489" fill="none" xmlns:v="https://vecta.io/nano"><style><![CDATA[.B{fill:#01adee}.C{color-interpolation-filters:sRGB}.D{flood-opacity:0}]]></style><g clip-path="url(#E)"><g opacity=".8" filter="url(#A)" class="B"><path d="M1155.27 85.504c-156.743 5.678-184.641 165.345-218.33 304.033-2.248 9.252 4.785 18.268 13.74 15.038 69.66-25.122 112.84-203.909 211.56-279.448 13.08-10.011 9.49-40.22-6.97-39.623z"/></g><g opacity=".8" filter="url(#B)" class="B"><path d="M163.923 502.538c31.961 50.49 121.237-59.317 161.005-122.932 2.312-3.698.25-8.485-4.088-8.029-38.926 4.091-90.075 96.829-153.424 121.97-3.644 1.446-5.59 5.678-3.493 8.991z"/></g><g opacity=".9" filter="url(#C)"><use href="#F" class="B"/><use href="#F" stroke="#01adee" stroke-width="3.733"/></g><g opacity=".8" filter="url(#D)" class="B"><path d="M143.608 244.547L14.379 106.482C-1.877 89.115-31 100.618-31 124.406V393.91c0 23.475 28.475 35.128 44.933 18.389l129.229-131.438c9.859-10.028 10.056-26.047.446-36.314z"/></g></g><defs><filter id="A" x="756.517" y="-94.505" width="593.666" height="679.749" filterUnits="userSpaceOnUse" class="C"><feFlood class="D"/><feBlend in="SourceGraphic"/><feGaussianBlur stdDeviation="90"/></filter><filter id="B" x="63.061" y="271.547" width="362.827" height="343.88" filterUnits="userSpaceOnUse" class="C"><feFlood class="D"/><feBlend in="SourceGraphic"/><feGaussianBlur stdDeviation="50"/></filter><filter id="C" x="910.996" y="32.167" width="525.403" height="610.765" filterUnits="userSpaceOnUse" class="C"><feFlood class="D"/><feBlend in="SourceGraphic"/><feGaussianBlur stdDeviation="50"/></filter><filter id="D" x="-231" y="-101.876" width="581.688" height="722.068" filterUnits="userSpaceOnUse" class="C"><feFlood class="D"/><feBlend in="SourceGraphic"/><feGaussianBlur stdDeviation="100"/></filter><clipPath id="E"><path fill="#fff" d="M0 0h1233v489H0z"/></clipPath><path id="F" d="M1328.86 214.868c-289.4-238.038-100.81 113.567-307.65 235.347-10.33 6.08-11.45 21.484-1.22 27.718 213.77 130.221 241.65 64.368 314.19-247.797 1.27-5.491-.96-11.687-5.32-15.268z"/></defs></svg>