<svg width="48" height="48" viewBox="0 0 48 48" fill="none" xmlns="http://www.w3.org/2000/svg">
<path fill-rule="evenodd" clip-rule="evenodd" d="M35.1006 22.0996C41.1754 22.0999 46.0999 27.0243 46.1001 33.0991C46.1001 39.1741 41.1755 44.0998 35.1006 44.1001C29.0255 44.1001 24.0996 39.1743 24.0996 33.0991C24.0998 27.0242 29.0256 22.0996 35.1006 22.0996ZM40.3594 28.5962C39.8367 28.1452 39.0467 28.2038 38.5957 28.7266L32.9956 35.2173L30.4175 32.689C29.9248 32.2058 29.1343 32.2127 28.6509 32.7051C28.1676 33.1979 28.1744 33.9897 28.667 34.4731L32.1973 37.9346C32.4439 38.1764 32.7796 38.3064 33.1245 38.292C33.4695 38.2775 33.7925 38.1198 34.0181 37.8584L40.4897 30.3584C40.9401 29.8358 40.8818 29.047 40.3594 28.5962Z" fill="#0185B7"/>
<path d="M28.6084 18.0991C30.2774 18.0992 31.7339 19.0083 32.5107 20.3579C31.4439 20.5732 30.4258 20.9191 29.4727 21.3774C29.2294 21.2019 28.931 21.0992 28.6084 21.0991H19.604C18.7757 21.0991 18.1042 21.7709 18.104 22.5991V31.0967C18.104 33.9185 20.0517 36.2865 22.6758 36.9282C23.0214 38.0592 23.5194 39.1258 24.145 40.1025L24.1055 40.0996C19.134 40.0993 15.104 36.0682 15.104 31.0967V22.5991C15.1042 20.114 17.1188 18.0991 19.604 18.0991H28.6084Z" fill="#0185B7"/>
<path d="M14.9136 18.1006C14.1242 18.9233 13.5483 19.9531 13.2773 21.1006L8.6001 21.0991C7.77179 21.0991 7.10029 21.7709 7.1001 22.5991V28.0967C7.1001 30.8595 9.33976 33.0991 12.1025 33.0991C12.5024 33.0991 12.8914 33.053 13.2642 32.9644C13.4336 33.972 13.7429 34.9337 14.1694 35.8281C13.5114 36.0061 12.8178 36.0991 12.1025 36.0991C7.68291 36.0991 4.1001 32.5163 4.1001 28.0967V22.5991C4.10029 20.2176 5.95102 18.2677 8.29248 18.1094L8.6001 18.0991L14.9136 18.1006Z" fill="#0185B7"/>
<path d="M39.6006 18.0991C42.0855 18.0994 44.1004 20.1142 44.1006 22.5991L44.1021 23.7197C41.7662 21.4774 38.5942 20.1002 35.1006 20.1001L34.6099 20.1089C34.3022 19.3582 33.8531 18.6783 33.2988 18.1006L39.6006 18.0991Z" fill="#0185B7"/>
<path fill-rule="evenodd" clip-rule="evenodd" d="M11.1006 6.09912C13.8618 6.09939 16.1001 8.33884 16.1001 11.1001C16.0998 13.8611 13.8616 16.0993 11.1006 16.0996C8.33937 16.0996 6.09994 13.8612 6.09961 11.1001C6.09961 8.33867 8.33916 6.09912 11.1006 6.09912ZM11.1006 9.09912C9.99602 9.09912 9.09961 9.99553 9.09961 11.1001C9.09994 12.2044 9.99622 13.0996 11.1006 13.0996C12.2047 13.0993 13.0998 12.2042 13.1001 11.1001C13.1001 9.99569 12.2049 9.09939 11.1006 9.09912Z" fill="#0185B7"/>
<path fill-rule="evenodd" clip-rule="evenodd" d="M24.0996 4.09961C27.4133 4.09961 30.0996 6.7859 30.0996 10.0996C30.0995 13.4133 27.4133 16.0996 24.0996 16.0996C20.7862 16.0993 18.0997 13.4131 18.0996 10.0996C18.0996 6.78606 20.7861 4.09987 24.0996 4.09961ZM24.0996 7.09961C22.443 7.09987 21.0996 8.44292 21.0996 10.0996C21.0997 11.7562 22.443 13.0993 24.0996 13.0996C25.7564 13.0996 27.0995 11.7564 27.0996 10.0996C27.0996 8.44276 25.7565 7.09961 24.0996 7.09961Z" fill="#0185B7"/>
<path fill-rule="evenodd" clip-rule="evenodd" d="M37.1001 6.09912C39.8615 6.09912 42.0996 8.33867 42.0996 11.1001C42.0993 13.8612 39.8613 16.0996 37.1001 16.0996C34.3389 16.0996 32.1009 13.8612 32.1006 11.1001C32.1006 8.33867 34.3387 6.09912 37.1001 6.09912ZM37.1001 9.09912C35.9955 9.09912 35.1006 9.99553 35.1006 11.1001C35.1009 12.2044 35.9957 13.0996 37.1001 13.0996C38.2045 13.0996 39.0993 12.2044 39.0996 11.1001C39.0996 9.99553 38.2047 9.09912 37.1001 9.09912Z" fill="#0185B7"/>
</svg>
