<svg xmlns="http://www.w3.org/2000/svg" width="516" height="240" fill="none" xmlns:v="https://vecta.io/nano"><style><![CDATA[.B{fill:#101618}.C{fill:#000}.D{fill:#00c8b3}.E{fill:#263238}.F{fill:#ff9a6c}.G{fill:#455a64}.H{fill:#00c0e8}.I{fill:#ffbf9d}.J{stroke-width:1.444}]]></style><g clip-path="url(#R)"><path d="M0 16C0 7.163 7.163 0 16 0h484c8.837 0 16 7.163 16 16v208c0 8.837-7.163 16-16 16H16c-8.837 0-16-7.163-16-16V16z" fill="url(#A)"/><g opacity=".6"><path d="M249.017 91.6921L230.188 241.37" stroke="url(#B)" class="J"/><path d="M273.871 91.6921V241.37" stroke="url(#C)" stroke-width="1.064"/><g class="J"><path d="M297.219 89.9717L316.801 241.37" stroke="url(#D)"/><path d="M229.435 91.6921L195.543 240.509" stroke="url(#E)"/><path d="M316.047 91.6921L351.446 241.37" stroke="url(#F)"/><path d="M210.606 89.1116L160.898 241.37" stroke="url(#G)"/><path d="M190.271 91.6921L119.474 239.649" stroke="url(#H)"/><path d="M335.629 92.5525L385.338 238.789" stroke="url(#I)"/><path d="M166.923 90.8323L69.7661 247.391" stroke="url(#J)"/><path d="M355.212 91.6921L426.009 241.37" stroke="url(#K)"/><path d="M141.316 87.3914L20.811 243.95" stroke="url(#L)"/><path d="M377.053 89.1116L478.729 242.23" stroke="url(#M)"/><path d="M101.398 88.2515L-16.0939 200.94" stroke="url(#N)"/><path d="M404.167 87.3914L532.956 247.391" stroke="url(#O)"/><path d="M47.1716 89.9717L-22.8718 149.327" stroke="url(#P)"/><path d="M444.837 88.2515L538.982 188.897" stroke="url(#Q)"/><g stroke="#ccdcff"><use href="#S"/><path d="M-16.454 201.501h554.289"/><path opacity=".9" d="M-16.454 178.095h554.289m-554.289-17.022h554.289"/><path opacity=".8" d="M-16.454 148.306h554.289"/><path opacity=".7" d="M-16.454 136.604h554.289"/><path opacity=".6" d="M-16.454 125.965h554.289"/><path opacity=".5" d="M-16.454 118.517h554.289"/><path opacity=".4" d="M-16.454 111.07h554.289"/><path opacity=".3" d="M-16.454 102.559h554.289"/><path opacity=".2" d="M-16.454 95.112h554.289"/><path opacity=".1" d="M-16.454 87.664h554.289"/></g></g></g><path d="M86.165 67.737a10.29 10.29 0 0 1 2.518-1.083l.514-2.486 4.203-.076.606 2.47c.891.22 1.749.557 2.551 1.002l2.123-1.392 3.028 2.924-1.316 2.166a10.23 10.23 0 0 1 1.083 2.513l2.486.515.075 4.203-2.469.601c-.219.891-.556 1.749-1.002 2.551l1.392 2.128-2.925 3.022-2.166-1.316c-.785.472-1.631.836-2.513 1.083l-.542 2.486-4.203.076-.606-2.47c-.889-.22-1.745-.557-2.545-1.002l-2.128 1.392-3.038-2.919 1.316-2.166c-.472-.787-.836-1.634-1.083-2.518l-2.486-.542-.076-4.203 2.47-.607a10.37 10.37 0 0 1 1.002-2.551l-1.392-2.128 2.957-2.989 2.166 1.316zm2.242 5.6a4.51 4.51 0 0 0-.894 4.932 4.51 4.51 0 0 0 4.215 2.714 4.51 4.51 0 0 0 4.12-2.855 4.51 4.51 0 0 0-1.061-4.899 4.52 4.52 0 0 0-1.484-.959c-.553-.219-1.144-.327-1.739-.316s-1.182.138-1.727.375-1.038.581-1.451 1.009h.022z" fill="#fc0"/><path d="M215.14 143.215a5.93 5.93 0 0 1 1.451-.628l.298-1.435 2.427-.044.346 1.425a5.86 5.86 0 0 1 1.473.574l1.224-.802 1.744 1.685-.731 1.24c.273.453.485.941.628 1.451l1.435.298.044 2.426-1.425.347a5.86 5.86 0 0 1-.574 1.473l.802 1.224-1.684 1.744-1.251-.758c-.455.273-.943.486-1.452.633l-.314 1.452-2.426.043-.347-1.424a5.95 5.95 0 0 1-1.473-.574l-1.224.801-1.744-1.684.758-1.251a6.21 6.21 0 0 1-.633-1.452l-1.43-.297-.043-2.427 1.424-.346a5.86 5.86 0 0 1 .574-1.473l-.801-1.224 1.684-1.744 1.251.758-.011-.011zm1.294 3.25c-.358.37-.599.838-.691 1.346a2.6 2.6 0 0 0 1.153 2.656 2.6 2.6 0 0 0 1.456.414c.515-.009 1.016-.171 1.44-.465a2.6 2.6 0 0 0 .938-1.187c.189-.48.231-1.005.121-1.509s-.368-.963-.739-1.32a2.59 2.59 0 0 0-.85-.554 2.6 2.6 0 0 0-.998-.187 2.61 2.61 0 0 0-.993.21 2.62 2.62 0 0 0-.837.574v.022z" class="H"/><path d="M34.325 41.109c.31-.187.643-.333.991-.433l.206-.98h1.652l.249.942c.351.089.689.222 1.007.395l.834-.542 1.191 1.148-.542.856a4.11 4.11 0 0 1 .433.991l.98.206v1.625l-.975.238c-.085.352-.216.69-.39 1.007l.542.834-1.148 1.191-.856-.541c-.31.187-.643.333-.991.433l-.206.98h-1.625l-.238-.975a4.08 4.08 0 0 1-1.007-.39l-.834.542-1.191-1.154.542-.85c-.187-.31-.333-.643-.433-.991l-.98-.206-.027-1.625.969-.238c.089-.351.222-.689.395-1.007l-.542-.834 1.148-1.192.856.542-.011.027zm.883 2.204c-.244.253-.407.572-.47.918s-.021.702.119 1.024.372.596.668.786.641.288.992.282.693-.116.981-.316.512-.481.641-.808.158-.684.084-1.028-.249-.657-.501-.901c-.168-.162-.366-.29-.583-.376s-.449-.128-.682-.124a1.78 1.78 0 0 0-1.248.542z" fill="#34c759"/><path d="M243.172 13.627a8.01 8.01 0 0 1 1.955-.85l.401-1.933 3.249-.06.471 1.923c.695.17 1.363.432 1.988.78l1.625-1.083 2.399 2.307-1.018 1.668c.37.612.656 1.272.85 1.96l1.939.401.054 3.249-1.917.471a8.17 8.17 0 0 1-.791 1.998l1.083 1.657-2.269 2.35-1.69-1.024a8.1 8.1 0 0 1-1.955.85l-.406 1.933-3.249.06-.471-1.923c-.702-.166-1.378-.426-2.01-.774l-1.624 1.083-2.356-2.269 1.023-1.69a8.15 8.15 0 0 1-.85-1.961l-1.933-.401-.06-3.249 1.923-.471a7.94 7.94 0 0 1 .779-1.982l-1.083-1.657 2.27-2.351 1.673.986zm1.744 4.333a3.51 3.51 0 0 0-.691 3.838c.278.636.738 1.176 1.322 1.551a3.51 3.51 0 0 0 3.899-.072c.57-.396 1.01-.953 1.263-1.599a3.51 3.51 0 0 0-.832-3.81 3.51 3.51 0 0 0-1.159-.731 3.5 3.5 0 0 0-1.35-.231c-.461.012-.915.116-1.335.304a3.5 3.5 0 0 0-1.117.793v-.043z" class="H"/><path d="M401.635 174.376c.783-.472 1.626-.836 2.507-1.083l.542-2.486 4.197-.076.606 2.47c.892.217 1.75.554 2.551 1.001l2.118-1.391 3.022 2.919-1.311 2.166a10.52 10.52 0 0 1 1.083 2.513l2.486.542.076 4.197-2.47.606c-.217.89-.554 1.746-1.001 2.546l1.391 2.123-2.913 2.989-2.167-1.316c-.785.471-1.63.836-2.512 1.083l-.542 2.486-4.197.071-.607-2.459a10.35 10.35 0 0 1-2.545-1.002l-2.123 1.392-3.022-2.919 1.316-2.167a10.19 10.19 0 0 1-1.083-2.507l-2.486-.542-.071-4.17 2.465-.606a10.35 10.35 0 0 1 1.001-2.551l-1.391-2.118 2.919-3.022 2.166 1.316-.005-.005zm2.236 5.594a4.51 4.51 0 0 0-1.19 2.329c-.158.877-.053 1.781.303 2.598a4.5 4.5 0 0 0 4.212 2.706 4.51 4.51 0 0 0 2.489-.804c.732-.508 1.297-1.222 1.623-2.051a4.51 4.51 0 0 0 .211-2.607c-.189-.87-.632-1.665-1.273-2.284-.426-.412-.928-.736-1.479-.954a4.52 4.52 0 0 0-1.732-.313 4.5 4.5 0 0 0-1.719.375c-.543.237-1.034.578-1.445 1.005z" fill="#34c759"/><path d="M364.308 19.663c.003-1.749-.398-3.476-1.17-5.045a11.37 11.37 0 0 0-3.286-4.003c-1.389-1.064-3.004-1.793-4.72-2.131s-3.488-.275-5.176.183-3.248 1.299-4.558 2.459a11.37 11.37 0 0 0-3.807 9.34 11.38 11.38 0 0 0 1.541 4.945l.033.043c.433.737.98 1.262 1.532 2.031l6.613 8.752a2.06 2.06 0 0 0 .719.588c.282.138.592.21.906.21s.623-.072.905-.21a2.05 2.05 0 0 0 .719-.588l6.499-8.606c.591-.691 1.142-1.414 1.652-2.166l.027-.033c1.032-1.747 1.574-3.739 1.571-5.768zm-11.373 4.95c-.99-.001-1.957-.296-2.779-.846s-1.463-1.332-1.841-2.247a5 5 0 0 1 1.088-5.452c.7-.699 1.592-1.175 2.563-1.368s1.976-.093 2.89.286a5 5 0 0 1 3.088 4.623 5 5 0 0 1-.381 1.916 5.01 5.01 0 0 1-2.712 2.709c-.608.251-1.259.38-1.916.379z" fill="#fc0"/><path d="M95.071 176.343a7.17 7.17 0 0 0 2.93-7.332c-.742-3.894-4.333-6.499-7.956-5.801s-6.011 4.414-5.27 8.313a7.15 7.15 0 0 0 5.486 5.757c-9.867 3.51-7.252 14.471-7.252 14.471l24.062-4.571s-1.625-11.275-12.001-10.837z" class="H"/><g fill="#ff383c"><path d="M164.224 223.07l-4.928-1.224s-1.024 4.159-5.367 3.168c-.84-.175-1.604-.608-2.187-1.238a4.13 4.13 0 0 1-1.063-2.276c-.102-.713-.035-1.44.198-2.122a4.56 4.56 0 0 1 1.14-1.799c1.18-1.181 3.336-1.988 6.499-.575l2.756-11.172-4.901-1.208-1.625 6.548s-7.305.081-9.169 7.652c-1.787 7.246 4.295 10.528 7.079 11.211 2.134.525 9.505 1.798 11.568-6.965zm-7.349-20.759l4.97 1.224 1.144-4.643-4.97-1.224-1.144 4.643z"/></g><g class="C"><path d="M154.05 103.636h11.313l-.996 5.075h-20.38l.807-4.035 12.267-9.613c3.033-2.426 3.959-3.845 3.959-5.616s-1.349-2.962-3.959-2.962a7.45 7.45 0 0 0-5.719 2.811l-4.192-3.038c2.166-2.962 6.19-4.923 10.831-4.923 5.692 0 9.418 3.038 9.418 7.23 0 3.19-1.456 5.882-6.19 9.537l-7.159 5.535zm38.267-.574h-4.419l-1.116 5.649h-6.076l1.154-5.649h-14.498l.806-4.192 15.847-17.076h6.802l-14.763 16.188h7.073l1.002-5.037h5.805l-1.001 5.037h4.424l-1.04 5.08zm17.764-26.727h5.616l-19.762 36.221h-5.6l19.746-36.221zm25.649 5.459l-.807 4.04-14.379 22.876h-6.921l13.799-21.842h-8.724l-.889 4.387h-5.534l1.89-9.461h21.565zm-94.261 48.152l1.576-2.99c1.404.898 3.034 1.38 4.701 1.392 1.538 0 2.426-.482 2.426-1.251 0-1.901-6.867-.85-6.867-5.291 0-3.049 2.605-5.048 6.786-5.048 1.773-.058 3.529.361 5.085 1.214l-1.451 2.967a7.31 7.31 0 0 0-3.878-1.083c-1.657 0-2.546.607-2.546 1.376 0 1.939 6.868.828 6.868 5.188 0 3.028-2.665 5.026-6.803 5.026-2.426.011-4.625-.634-5.897-1.5zm19.821-9.813l-.46 2.383h6.277l-.601 2.984h-6.282l-.51 2.588h7.415l-.65 3.087h-11.346l2.848-14.108h11.065l-.628 3.093-7.128-.027zm18.067 6.802l2.405 4.24h-4.181l-2.101-3.753h-2.015l-.747 3.753h-3.997l2.822-14.108h6.038c3.612 0 5.692 1.679 5.692 4.506a5.46 5.46 0 0 1-1.048 3.346c-.708.969-1.716 1.678-2.868 2.016zm-2.339-6.743h-2.101l-.829 4.138h2.383c1.76 0 2.789-.845 2.789-2.399-.022-1.192-.872-1.739-2.242-1.739zm23.775-3.125l-8.833 14.108h-3.937l-3.239-14.108h4.1l2.02 9.207 5.773-9.207h4.116zm.845 0h4.002l-2.848 14.108h-3.997l2.843-14.108zm4.625 8.173c0-4.907 3.612-8.481 8.86-8.481 2.605 0 4.728.953 5.736 2.664l-2.903 2.302a3.44 3.44 0 0 0-1.331-1.239c-.548-.286-1.162-.419-1.778-.386-2.746 0-4.565 2.118-4.565 4.902 0 1.901 1.294 3.173 3.455 3.173.66.003 1.312-.141 1.909-.422s1.123-.692 1.541-1.202l2.361 2.317c-1.592 1.923-3.672 2.627-6.196 2.627-4.321-.038-7.089-2.562-7.089-6.255zm20.428-5.107l-.465 2.383h6.276l-.584 2.984h-6.299l-.504 2.588h7.409l-.644 3.087h-11.325l2.816-14.108h11.065l-.623 3.093-7.122-.027z"/></g><path d="M156.84 73.829h-7.891c0-10.983 4.447-22.205 12.197-30.816 8.156-9.05 18.744-14.032 29.786-14.032 22.568 0 38.333 16.475 38.333 40.077h-7.874c0-19.242-12.235-32.17-30.442-32.17-17.851-.016-34.109 17.596-34.109 36.941z" class="D"/><g class="E"><path d="M161.167 71.635c1.262 0 2.286.125 2.28.238s-1.023.2-2.28.2-2.285-.103-2.285-.238 1.029-.222 2.285-.2zm5.448-17.298c1.083.693 1.815 1.403 1.695 1.592s-1.083-.195-2.166-.85-1.803-1.376-1.69-1.592 1.105.162 2.161.85zm13.648-11.92c.515 1.154.769 2.166.542 2.253s-.807-.753-1.36-1.885-.807-2.166-.541-2.253.85.715 1.359 1.885zm17.981-1.419c-.315 1.224-.742 2.166-.954 2.123s-.167-1.083.103-2.323.694-2.166.954-2.117.211 1.099-.103 2.318zm14.687 10.323c-1.051.693-1.999 1.116-2.123.942s.606-.921 1.625-1.663 1.971-1.159 2.123-.942-.574.964-1.625 1.663zm4.836 17.005c-1.256 0-2.28-.097-2.28-.206s1.019-.217 2.28-.233 2.281.076 2.286.206-1.013.233-2.286.233z"/></g><g class="D"><path d="M188.793 70.677a1.72 1.72 0 0 1-1.083-.374l-13.264-10.29a1.76 1.76 0 0 1 .869-3.133 1.76 1.76 0 0 1 1.298.36l12.099 9.38 16.707-15.343c.341-.317.794-.485 1.259-.468a1.76 1.76 0 0 1 1.222.56 1.75 1.75 0 0 1 .467 1.259 1.76 1.76 0 0 1-.559 1.221l-17.802 16.356c-.33.306-.764.474-1.213.471zm8.996-53.297h-15.208a.43.43 0 0 0-.428.428v5.508a.43.43 0 0 0 .428.428h15.208c.236 0 .427-.192.427-.428v-5.508c0-.236-.191-.428-.427-.428z"/><path d="M194.333 20.565h-8.302v7.528h8.302v-7.528zm-38.419 16.29l-6.236 7.724a.7.7 0 0 0 .104.982l4.264 3.443a.7.7 0 0 0 .983-.105l6.236-7.723a.7.7 0 0 0-.104-.983l-4.264-3.443a.7.7 0 0 0-.983.105z"/></g><g class="E"><path d="M197.788 23.744c0 .092-3.406.162-7.582.162s-7.582-.07-7.582-.162 3.401-.162 7.582-.162l7.582.162zm-42.015 23.829c-.087.097-1.235-.78-2.654-1.847l-2.502-2.042c.071-.108 1.343.596 2.779 1.673s2.458 2.123 2.377 2.215zm1.322-1.944c-.087.097-1.235-.78-2.654-1.847l-2.508-2.042c.071-.108 1.349.596 2.784 1.679s2.459 2.117 2.378 2.21zm1.619-1.63c-.081.097-1.23-.78-2.648-1.847l-2.508-2.042c.049-.108 1.349.596 2.778 1.679s2.464 2.117 2.378 2.21zm1.571-1.945c-.082.097-1.235-.78-2.654-1.847l-2.497-2.042c.076-.108 1.349.596 2.778 1.679s2.454 2.118 2.373 2.21z"/></g><path d="M228.359 39.296l-6.713-7.313a.7.7 0 0 0-.987-.042l-4.038 3.706a.7.7 0 0 0-.042.987l6.713 7.313a.7.7 0 0 0 .987.042l4.038-3.706a.7.7 0 0 0 .042-.987z" class="D"/><g class="E"><path d="M217.778 37.575c-.081-.098.953-1.083 2.221-2.35l2.388-2.166c.098.092-.785 1.246-2.069 2.502s-2.464 2.107-2.54 2.015zm1.728 1.593c-.087-.097.953-1.083 2.215-2.35s2.296-2.258 2.394-2.166-.791 1.246-2.069 2.502-2.464 2.107-2.54 2.015zm1.37 1.846c-.087-.097.953-1.083 2.215-2.35s2.296-2.258 2.394-2.166-.791 1.24-2.074 2.497-2.459 2.112-2.535 2.02zm1.69 1.858c-.087-.097.953-1.083 2.215-2.35s2.296-2.258 2.393-2.166-.79 1.246-2.074 2.502-2.459 2.09-2.534 2.015zm-38.279-19.134c-.125 0-.227-1.408-.227-3.136s.102-3.141.227-3.141.233 1.408.233 3.141-.103 3.136-.233 3.136zm2.979 0c-.125 0-.228-1.408-.228-3.136s.103-3.141.228-3.141.227 1.408.227 3.141-.103 3.136-.227 3.136zm2.973 0c-.125 0-.228-1.408-.228-3.136s.103-3.141.228-3.141.227 1.408.227 3.141-.097 3.136-.227 3.136zm2.979 0c-.13 0-.228-1.408-.228-3.136s.098-3.141.228-3.141.227 1.408.227 3.141-.103 3.136-.227 3.136zm2.973 0c-.125 0-.228-1.408-.228-3.136s.103-3.141.228-3.141.227 1.408.227 3.141-.124 3.136-.227 3.136z"/></g><path d="M192.012 71.13c1.552-1.552 1.552-4.069 0-5.622s-4.069-1.552-5.622 0-1.552 4.069 0 5.622 4.07 1.552 5.622 0z" class="D"/><path d="M193.174 68.326c-.038 0-.032-.352-.2-.953a3.94 3.94 0 0 0-1.457-2.09 3.79 3.79 0 0 0-3.963-.343c-.628.316-1.156.799-1.524 1.397a3.79 3.79 0 0 0 0 3.979c.368.598.896 1.082 1.524 1.397a3.79 3.79 0 0 0 3.963-.343 3.96 3.96 0 0 0 1.457-2.091c.168-.601.162-.953.2-.953s0 .087 0 .255c.009.248-.017.496-.075.736-.195.904-.701 1.711-1.43 2.28-.545.428-1.189.711-1.873.823s-1.385.049-2.037-.184c-.809-.286-1.508-.816-2.003-1.516s-.76-1.537-.76-2.394.265-1.694.76-2.394 1.194-1.23 2.003-1.516a4.12 4.12 0 0 1 2.036-.184c.683.111 1.328.392 1.874.817.729.571 1.235 1.38 1.43 2.285.058.241.084.489.075.736.027.157.017.255 0 .255z" class="E"/><path d="M385.451 103.978l11.831-1.887a39.91 39.91 0 0 0 27.514 8.773c9.944-.612 19.3-4.923 26.228-12.084a39.91 39.91 0 0 0 1.531-53.822 39.91 39.91 0 0 0-25.5-13.555c-9.894-1.177-19.87 1.39-27.967 7.196s-13.73 14.431-15.791 24.179-.4 19.915 4.655 28.501l-2.501 12.699z" fill="#fff"/><g class="C"><path d="M385.451 103.978s0-.264.132-.802l.453-2.415 1.792-9.501c.003-.014.007-.026.015-.038s.018-.021.029-.028.025-.012.039-.013.027 0 .04.004c.009-.005.018-.008.028-.008a.06.06 0 0 1 .029.008l-.17.132c-3.376-5.699-5.285-12.147-5.557-18.765a39.13 39.13 0 0 1 .236-6.17 43.14 43.14 0 0 1 1.34-6.482 40.01 40.01 0 0 1 34.586-28.7c6.258-.591 12.568.304 18.415 2.61s11.068 5.96 15.238 10.664l1.604 1.887c.5.66.943 1.349 1.434 2.01a39.75 39.75 0 0 1 2.538 4.189c.415.698.679 1.472 1.028 2.198s.708 1.453.944 2.227a37.76 37.76 0 0 1 1.387 4.585c1.451 6.048 1.499 12.347.141 18.416a40.02 40.02 0 0 1-33.445 30.643c-2.204.299-4.428.429-6.651.387a52.18 52.18 0 0 1-6.161-.66 39.54 39.54 0 0 1-17.699-8.189h.085l-8.85 1.33-2.255.33-.745.104.783-.142 2.274-.377 8.755-1.453h.085c5.118 4.096 11.174 6.855 17.623 8.029 2.023.337 4.065.548 6.114.632a42.77 42.77 0 0 0 6.604-.406 39.73 39.73 0 0 0 33.021-30.379 40.35 40.35 0 0 0-.161-18.199 41.33 41.33 0 0 0-1.368-4.529c-.235-.764-.632-1.462-.943-2.198s-.613-1.481-1.019-2.17a37.52 37.52 0 0 0-2.51-4.132l-1.415-1.991-1.585-1.887a39.53 39.53 0 0 0-15.049-10.541c-5.775-2.283-12.005-3.174-18.188-2.601-5.474.541-10.776 2.211-15.571 4.905a39.77 39.77 0 0 0-12.289 10.747c-2.884 3.843-5.039 8.183-6.359 12.803-.61 2.102-1.061 4.246-1.349 6.415a38.67 38.67 0 0 0-.265 6.123 39.93 39.93 0 0 0 5.388 18.671c.017.019.027.044.027.071s-.01.051-.027.071-.042.024-.066.024-.048-.008-.067-.024l.17-.057-1.887 9.434-.5 2.434c-.113.548-.226.774-.226.774zm48.956-31.756c-.002-.801.234-1.585.678-2.252a4.05 4.05 0 0 1 4.157-1.728 4.05 4.05 0 0 1 3.182 3.183 4.05 4.05 0 0 1-6.832 3.65 4.05 4.05 0 0 1-1.185-2.853zm-16.19 0c-.002-.801.234-1.584.678-2.251a4.05 4.05 0 0 1 6.228-.624 4.05 4.05 0 0 1 .882 4.412c-.306.74-.825 1.373-1.491 1.818s-1.448.683-2.249.683a4.05 4.05 0 0 1-4.048-4.038zm-16.142 2.019a4.05 4.05 0 0 1-.534-2.288c.053-.799.341-1.564.828-2.199a4.05 4.05 0 0 1 4.259-1.446c.773.207 1.467.639 1.995 1.241a4.05 4.05 0 0 1-1.019 6.174c-.93.534-2.034.678-3.07.4a4.06 4.06 0 0 1-2.459-1.882z"/></g><path d="M176.412 146.854l-5.307-2.642a7.04 7.04 0 0 0-4.642-.315c-.872.293-1.744.992-1.749 1.912l5.822 4.295 5.876-1.549v-1.701z" class="F"/><g class="I"><path d="M170.043 146.795s-10.458-2.269-12.202-3.163-10.831-5.443-12.353-5.443-2.822.412-3.098 1.928l1.988 1.544.254.79 3.401 1.771.601 1.116 8.666 4.625s9.087 4.614 10.604 4.874 9.087.894 12.326 3.651l12.998-5.34s-3.753-5.33-6.645-6.646c-2.578-1.169-6.905-1.169-9.933.071l-6.607.222z"/><path d="M178.741 155.52l19.209 43.326s18.495-3.044 19.129-13.307l-23.829-32.494-14.509 2.475z"/></g><g class="F"><path d="M163.376 147.613h-.179a2.49 2.49 0 0 1-.498-.103c-.593-.181-1.169-.413-1.722-.693l-2.421-1.295-1.414-.769c-.492-.254-1.029-.476-1.576-.715a21.71 21.71 0 0 0-3.13-1.137c-.98-.244-1.922-.428-2.632-.19-.275.111-.525.276-.733.487a2.16 2.16 0 0 0-.48.737 5.88 5.88 0 0 1-.276.618s0-.065.027-.174c.036-.166.085-.328.146-.487a2.99 2.99 0 0 1 .385-.709 1.85 1.85 0 0 1 .844-.661 2.95 2.95 0 0 1 1.306-.13c.491.048.978.133 1.456.254 1.094.289 2.163.665 3.196 1.127l1.587.726 1.419.796 2.382 1.337c.533.292 1.085.547 1.652.764l.661.217zm-9.976-5.188a5.78 5.78 0 0 1-1.467-.51c-1.117-.527-2.266-.984-3.439-1.37a5.22 5.22 0 0 0-1.977-.168c-.265.008-.525.07-.766.182s-.455.271-.631.468c-.212.294-.351.634-.407.991a1.29 1.29 0 0 1-.081.407 1.17 1.17 0 0 1 0-.417c.02-.387.144-.761.358-1.084a1.85 1.85 0 0 1 .628-.541 2.79 2.79 0 0 1 .899-.255 5.26 5.26 0 0 1 2.085.157 20.59 20.59 0 0 1 3.444 1.463 14.01 14.01 0 0 1 1.354.677zm26.104 3.346s-.146.087-.422.184c-.396.144-.799.267-1.208.369a19.48 19.48 0 0 1-4.11.612c-1.388.06-2.778-.024-4.149-.249l-1.229-.266c-.154-.023-.302-.072-.439-.146 0-.043.65.081 1.701.211 1.361.169 2.734.225 4.105.168a25.69 25.69 0 0 0 4.078-.541l1.673-.342z"/></g><g class="D"><path d="M333.551 124.352l-24.068-4.983-5.957-4.468-31.791 6.131c-.509.932-5.659 8.124-5.659 8.124l-12.522 4.251c-5.321 1.398-10.071 4.429-13.582 8.665a55.94 55.94 0 0 0-8.124 13.594c-5.632 13.22-13.762 28.492-13.762 28.492l-5.096-8.21-21.479 10.117s12.581 25.362 16.746 28.985c4.63 4.024 15.278 4.489 22.638-3.017 4.435-4.527 17.254-22.421 19.924-26.9l3.965 18.728 3.644 21.376-5.892 14.714h86.003l-3.559-13.907 4.474-42.996c2.28-15.917-5.903-58.696-5.903-58.696z"/><path d="M333.55 124.352s17.223 4.831 21.014 21.95c2.296 10.371 10.095 39.936 12.84 64.274 1.625 14.471 1.582 27.843 1.625 29.375H342.6l-11.2-110.768 2.15-4.831z"/></g><g class="C"><path d="M289.38 139.05s0 .065-.071.179l-.244.498-.893 1.901-3.114 6.727-.071.135-.119-.103-5.73-5.329-8.952-9.12-2.735-2.746-.753-.742a1.94 1.94 0 0 1-.249-.271c.105.066.201.144.287.233l.78.704 2.8 2.681 9.006 9.061 5.698 5.339-.195.033c1.462-2.654 2.394-5.053 3.195-6.667a38.2 38.2 0 0 1 .964-1.874l.276-.476c.034-.059.074-.113.12-.163zm20.438-19.069c-.001.128-.018.255-.048.379l-.201 1.083-.985 3.911c-.937 3.249-2.454 7.739-4.333 12.586l-2.876 7.143-.07.168-.136-.119c-2.453-2.166-4.652-3.872-6.141-5.14l-1.728-1.5-.438-.411c-.103-.098-.152-.147-.147-.152a.91.91 0 0 1 .174.119l.465.385 1.771 1.44c1.522 1.235 3.737 2.909 6.218 5.064l-.206.049 2.849-7.144c1.857-4.874 3.401-9.288 4.381-12.543.487-1.624.845-2.957 1.083-3.883l.255-1.083c.029-.12.067-.237.113-.352zm-55.712 81.481c-.022-.037-.039-.077-.048-.119l-.114-.369-.406-1.429-.58-2.27-.682-3.032c-1.198-5.876-2.041-11.819-2.524-17.797-.612-7.002-.747-13.366-.715-17.964a109.92 109.92 0 0 1 .125-5.448l.07-1.484c0-.151 0-.281.027-.384-.005-.044-.005-.087 0-.13a.61.61 0 0 1 0 .135v.385 1.478l-.032 5.448c0 4.593.184 10.951.796 17.937.487 5.969 1.301 11.906 2.437 17.786l.639 3.033c.211.866.368 1.662.542 2.28l.357 1.44.081.374c.027.087.033.13.027.13zm80.874-58.122c.032.046.058.097.076.151l.189.444.71 1.723.504 1.251.514 1.516.59 1.749c.212.618.352 1.295.542 1.993 1.625 5.573 2.437 13.637 1.971 22.459s-1.505 16.789-2.166 22.508l-.791 6.808-.222 1.847-.065.482c-.004.055-.015.11-.032.162-.007-.054-.007-.108 0-.162l.038-.488.173-1.852.699-6.818c.59-5.752 1.586-13.691 2.063-22.497s-.325-16.827-1.879-22.4l-.542-1.993-.541-1.744-.488-1.522c-.151-.465-.336-.882-.482-1.262l-.661-1.738c-.064-.19-.119-.336-.162-.455a.54.54 0 0 1-.038-.162zm-116.753 59.259c-.076 0-.168-4.127-.2-9.207l.081-9.207c.081 0 .168 4.127.2 9.207l-.081 9.207zm78.15 24.993v-.227c0-.162.043-.379.076-.661l.314-2.54.233-1.83.232-2.167.542-5.334.255-3.103.205-3.369.325-7.447c.119-5.247.103-11.021-.168-17.07s-.823-11.801-1.435-17.016l-1.023-7.382-.542-3.336c-.206-1.067-.374-2.091-.542-3.071-.33-1.955-.709-3.71-1.018-5.259l-.433-2.166c-.135-.672-.282-1.262-.406-1.803l-.542-2.497-.135-.65c-.033-.157-.038-.227-.038-.227.027.07.049.142.065.216l.168.645.601 2.491.428 1.798.46 2.166c.32 1.544.715 3.298 1.056 5.254l.542 3.07c.195 1.083.352 2.167.541 3.336.39 2.307.699 4.782 1.051 7.387a249.6 249.6 0 0 1 1.457 17.033c.303 6.055.282 11.839.146 17.092l-.352 7.452-.222 3.374-.276 3.109c-.152 1.982-.385 3.791-.542 5.329l-.254 2.166c-.076.65-.179 1.279-.26 1.831l-.363 2.529-.103.661a1.31 1.31 0 0 1-.043.216zm11.449-58.457h.108l.341-.038 1.327-.152 5.075-.541 18.061-1.874h.136v.135l.465 18.208v.06l-.038.037-2.166 2.346-7.896 8.437-.07.076-.092-.049-13.307-6.607-.06-.027v-.049l-1.391-14.536-.374-4.013-.092-1.05c-.022-.255 0-.347 0-.347a2.04 2.04 0 0 0 .049.368c.048.239.07.612.124 1.083l.433 4.041 1.506 14.449-.065-.092 13.323 6.569-.157.027 7.88-8.47 2.166-2.34-.038.098-.439-18.208.141.119-18.007 1.722-5.107.477-1.36.119-.352.033-.124-.011z"/><path d="M332.906 172.948c-.307.085-.62.145-.937.178l-2.573.363-8.524.915-8.535.834-2.584.271a5.56 5.56 0 0 1-.947.071 5.74 5.74 0 0 1 .937-.179l2.572-.363 8.53-.915 8.53-.834 2.583-.271c.313-.05.631-.074.948-.07z"/></g><g opacity=".3" class="C"><path d="M338.137 194.248l.91 11.064c2.009-9.477 5.167-19.664 4.674-29.337s-1.403-18.928-6.851-27.685c2.369 6.593 3.455 13.578 3.201 20.579-.499 11.319-1.934 25.379-1.934 25.379z"/></g><path d="M214.642 173.652c-.293-.667-.81-1.209-1.463-1.533-.758-.26-1.581.108-2.301.466l-19.649 9.781c-1.294.644-2.708 1.408-3.184 2.762-.623 1.733.541 3.563 1.625 5.053 1.808 2.485 3.975 5.193 7.04 5.545l16.903-11.589c2.063-.304 3.347-2.605 3.249-4.69s-1.17-3.986-2.22-5.795z" class="D"/><path d="M216.776 180.736c-.05.069-.108.133-.173.189l-.542.504-2.015 1.782-7.04 5.448-7.463 4.771-2.356 1.305-.65.331c-.151.075-.233.108-.238.097.063-.059.134-.108.211-.146l.623-.379 2.307-1.381 7.42-4.847 7.04-5.367 2.074-1.717.542-.461.26-.129z" class="C"/><g opacity=".3" class="C"><path d="M309.564 121.222c-2.313 7.679-5.552 16.366-8.287 23.829l-7.923-6.574a65.38 65.38 0 0 0 7.198 11.248c.325.406.758.85 1.262.753s.731-.617.904-1.083l4.262-11.281c1.993-5.275 3.916-11.428 2.584-16.892z"/></g><g class="B"><path d="M273.008 37.673c7.04-2.026 13.626 0 20.119 3.369s11.731 8.931 15.121 15.403c3.575 6.818 5.156 14.763 3.862 22.351s-5.584 14.736-12.007 18.955c-8.779 5.784-20.878 5.48-29.917.124s-14.991-15.229-16.567-25.622c-1.083-7.16-.205-14.709 3.136-21.122s9.25-11.611 16.247-13.464"/><path d="M296.122 59.709c-1.359-2.616-1.3-5.719-2.042-8.579-1.624-6.288-7.365-10.831-13.604-12.646-5.8-1.695-12.511-.422-18.955 2.491-4.409 1.998-8.422 5.064-11.054 9.126-1.721 2.722-2.767 5.817-3.05 9.026s.206 6.439 1.425 9.42l32.165-8.459c3.347 2.166 6.775 4.403 10.647 5.416a6.9 6.9 0 0 0 3.477.157c.572-.135 1.094-.432 1.502-.856s.686-.955.8-1.532c.135-1.289-.721-2.421-1.311-3.564z"/></g><path d="M303.796 116.742l-8.302-58.392c-.368-2.762-1.625-5.578-4.403-5.448l-29.245-2.816c-9.164.422-13.464 12.456-12.652 21.571.905 10.149 2.405 22.502 4.739 29.825 4.696 14.714 16.551 14.866 16.551 14.866s.72 2.925 1.625 8.395l18.955 12.607 12.732-20.607z" class="I"/><g class="B"><path d="M256.262 82.765c.073.505.34.962.745 1.272a1.96 1.96 0 0 0 1.421.391c.249-.018.493-.085.715-.198a1.86 1.86 0 0 0 .581-.461 1.85 1.85 0 0 0 .357-.65 1.86 1.86 0 0 0 .075-.738 1.96 1.96 0 0 0-.746-1.272 1.97 1.97 0 0 0-1.42-.396 1.88 1.88 0 0 0-.714.201c-.223.114-.42.271-.581.462a1.87 1.87 0 0 0-.356.651c-.075.239-.101.489-.077.738zm-3.412-5.118c.276.217 1.576-1.083 3.661-1.403s3.764.498 3.954.206c.092-.13-.222-.542-.959-.932-.996-.484-2.117-.65-3.211-.477a5.14 5.14 0 0 0-2.865 1.435c-.569.585-.715 1.056-.58 1.17zm22.654 1.987a1.96 1.96 0 0 0 .743 1.276 1.95 1.95 0 0 0 1.424.392 1.86 1.86 0 0 0 .714-.198c.223-.113.421-.27.582-.461s.282-.412.356-.651a1.86 1.86 0 0 0 .075-.738c-.071-.506-.338-.964-.743-1.276a1.95 1.95 0 0 0-1.423-.392c-.249.018-.492.086-.714.2a1.87 1.87 0 0 0-.58.461 1.89 1.89 0 0 0-.357.65c-.074.238-.101.489-.077.737zm-2.848-4.744c.276.217 1.581-1.083 3.661-1.403s3.764.498 3.953.206c.092-.13-.222-.541-.958-.931a5.42 5.42 0 0 0-3.217-.477 5.16 5.16 0 0 0-2.898 1.457c-.541.542-.688 1.083-.541 1.148zm-4.485 16.61c0-.119-1.337-.146-3.471-.092-.542 0-1.083 0-1.208-.352s-.049-.969.114-1.625l.958-4.284c1.3-6.098 2.167-11.075 1.912-11.124s-1.5 4.874-2.805 10.94l-.883 4.305c-.108.634-.352 1.37.043 2.123.104.177.248.327.42.439a1.32 1.32 0 0 0 .571.205 3.43 3.43 0 0 0 .921 0c2.128-.227 3.439-.422 3.428-.536z"/></g><g class="F"><path d="M270.489 116.347c7.121-.978 13.83-3.917 19.378-8.486 0 0-4.728 11.833-18.414 13.025l-.964-4.539zm-.671-19.962a3.79 3.79 0 0 1 1.326-1.36c.551-.334 1.177-.521 1.82-.546a3.46 3.46 0 0 1 1.376.2c.441.159.844.406 1.186.726a2.2 2.2 0 0 1 .658 1.144 2.21 2.21 0 0 1-.116 1.315c-.439.872-1.587 1.235-2.622 1.083a7.95 7.95 0 0 1-2.902-1.181 2.28 2.28 0 0 1-.688-.542c-.095-.103-.156-.231-.177-.369a.7.7 0 0 1 .058-.405"/></g><g class="B"><path d="M274.519 92.004c-.347.032 0 2.296-1.696 4.192s-4.126 2.02-4.099 2.334c0 .152.606.358 1.624.233a5.69 5.69 0 0 0 3.445-1.825 4.95 4.95 0 0 0 1.273-3.488c-.06-.959-.396-1.478-.547-1.446zm-2.459-23.331c.292.542 2.329-.049 4.815-.13s4.565.287 4.809-.271c.108-.265-.314-.742-1.197-1.17-1.165-.509-2.431-.746-3.702-.693s-2.512.393-3.631.997c-.84.498-1.224 1.013-1.094 1.267zm-19.984-.217c.438.417 1.798-.293 3.52-.579s3.249-.168 3.488-.715c.113-.265-.19-.699-.894-1.051-.939-.404-1.977-.521-2.982-.336s-1.933.664-2.667 1.376c-.547.579-.671 1.099-.465 1.305zm48.78-13.745c-3.943-8.362-18.208-18.744-27.263-16.886l-13.426 10.701c.806 2.428 2.253 4.594 4.188 6.268a14.21 14.21 0 0 0 6.806 3.242c2.681.444 5.822.244 7.653 2.258s1.391 5.481 3.162 7.62c2.454 2.968 7.956 2.08 9.938 5.383.872 1.441.769 3.314 1.657 4.744 1.192 1.901 6.656 3.791 8.666 2.827s1.554-4.56 1.993-6.548c.752-3.385.038-4.993-.591-6.748-1.467-4.159-.899-8.876-2.783-12.862z"/></g><path d="M296.241 83.49c-.168-1.126.726-3.97 1.809-4.333 2.892-.91 8.27-1.489 9.467 6.028 1.624 10.29-9.012 9.797-9.083 9.505s-1.608-7.333-2.193-11.2z" class="I"/><path d="M300.953 90.303c.043-.043.2.098.542.184.454.117.937.051 1.343-.184 1.018-.569 1.657-2.437 1.413-4.3a5.98 5.98 0 0 0-.91-2.48c-.146-.306-.366-.572-.639-.773a2.08 2.08 0 0 0-.926-.386c-.214-.022-.429.032-.608.153a.92.92 0 0 0-.367.508c-.092.309 0 .504-.048.542s-.244-.135-.233-.574c.018-.262.125-.511.303-.704a1.36 1.36 0 0 1 .948-.422c.801-.07 1.625.542 2.123 1.294.58.821.952 1.771 1.083 2.768.265 2.08-.487 4.186-1.906 4.874a1.96 1.96 0 0 1-.84.189c-.29 0-.577-.065-.839-.189-.379-.271-.471-.477-.439-.498z" class="F"/><g class="B"><path d="M262.81 45.065c-.471 4.333-6.25 10.425-8.665 14.016-4.642 6.851-5.465 9.044-3.829 22.995-3.076-4.533-5.546-9.039-5.958-14.503s.964-11.135 4.3-15.478 8.704-7.203 14.179-7.041m24.512-14.682c2.166-2.388 5.296-3.943 8.546-4.755 4.63-1.159 9.716-.845 13.929 1.17s7.474 5.795 8.324 10.128a12.45 12.45 0 0 1-4.484 12.045 20.86 20.86 0 0 0 8.562 5.015c-.877 1.316-2.496 2.085-4.132 2.361a18.96 18.96 0 0 1-4.95-.032c1.121 1.674 2.797 2.898 4.733 3.455a15.71 15.71 0 0 1-8.064-.265c-2.561-.776-5.013-1.877-7.295-3.276-7.923-4.598-12.293-8.627-17.644-15.706-.699-3.054.292-7.745 2.475-10.138z"/><path d="M304.43 52.078c-5.817-8.497-13.22-13.041-19.919-14.455z"/></g><g class="G"><path d="M284.511 37.624a5.73 5.73 0 0 0 .947.287l2.557.845a31.5 31.5 0 0 1 7.717 4.333c2.356 1.796 4.503 3.851 6.402 6.125l1.668 2.112a5.62 5.62 0 0 0 .628.774 6.03 6.03 0 0 0-.542-.845c-.346-.542-.899-1.273-1.597-2.166a36.4 36.4 0 0 0-6.348-6.271 29.39 29.39 0 0 0-7.853-4.279 22.51 22.51 0 0 0-2.599-.753c-.322-.08-.65-.135-.98-.163zm26.851 21.695l-.13.043-.379.152c-.325.141-.812.325-1.451.542-1.807.605-3.68.987-5.579 1.137-2.815.209-5.645.027-8.41-.542a54.6 54.6 0 0 1-9.89-3.082c-3.412-1.392-6.629-2.822-9.493-4.224a56.87 56.87 0 0 1-7.328-4.246 36.32 36.32 0 0 1-4.43-3.596c-.498-.46-.856-.845-1.083-1.083l-.287-.287c-.065-.059-.098-.092-.103-.087s0 .038.081.108l.265.309a14.67 14.67 0 0 0 1.084 1.143c1.357 1.351 2.826 2.585 4.392 3.688a54.31 54.31 0 0 0 7.327 4.333c2.871 1.424 6.082 2.865 9.5 4.262a53.98 53.98 0 0 0 9.954 3.071c2.792.557 5.65.714 8.486.466a22.67 22.67 0 0 0 5.557-1.224c.633-.244 1.115-.444 1.435-.607l.363-.179c.081-.07.124-.092.119-.097zm-30.686 51l-.98-1.917c.07-.038 6.873-3.525 9.488-5.724 6.164-5.178 11.828-13.447 11.888-13.54l1.787 1.219c-.238.352-5.887 8.6-12.283 13.973-2.816 2.35-9.613 5.843-9.9 5.989z"/></g><path d="M285.74 104.335s-9.293 4.149-9.293 5.069 1.473 2.762 2.578 2.67 4.3-1.89 4.874-2.626 1.592-2.632 2.708-3.553l-.867-1.56z" class="B"/><g class="G"><path d="M302.783 76.45l-2.166-.103a50.71 50.71 0 0 0-3.174-18.311c-4.7-12.11-13.739-18.609-26.856-19.323a15.94 15.94 0 0 0-3.564.244l.948-.899a5.23 5.23 0 0 1 1.576-1.024 5.32 5.32 0 0 1 2.529-.39c16.561 1.435 24.046 11.964 27.409 20.672a51.99 51.99 0 0 1 3.298 19.134zM301.7 96.146c3.79 0 6.862-4.418 6.862-9.868s-3.072-9.867-6.862-9.867-6.861 4.418-6.861 9.867 3.072 9.868 6.861 9.868z"/></g><path d="M308.562 86.279a.44.44 0 0 1 0-.135c0-.108 0-.238-.032-.401a13.97 13.97 0 0 0-.158-1.527c-.279-1.866-1.006-3.636-2.117-5.161-.374-.493-.807-.938-1.289-1.327a5.87 5.87 0 0 0-1.749-.948c-.678-.219-1.395-.288-2.102-.2a5.42 5.42 0 0 0-2.101.785 8.35 8.35 0 0 0-3 3.791 13.42 13.42 0 0 0 0 10.29c.604 1.532 1.648 2.851 3 3.791.638.406 1.354.673 2.101.785.707.085 1.424.017 2.102-.2a5.87 5.87 0 0 0 1.749-.948c.481-.39.913-.835 1.289-1.327 1.111-1.525 1.838-3.295 2.117-5.161a13.97 13.97 0 0 0 .158-1.527c0-.162 0-.292.032-.401a.44.44 0 0 1 0-.135c.008.045.008.091 0 .135v.401a13.28 13.28 0 0 1-.108 1.543c-.243 1.899-.954 3.708-2.069 5.264-.379.51-.82.972-1.311 1.376-.541.437-1.155.776-1.814 1.002a5.15 5.15 0 0 1-2.204.222c-.784-.112-1.535-.389-2.204-.812-1.402-.953-2.486-2.304-3.115-3.878-.697-1.664-1.056-3.45-1.056-5.253s.359-3.59 1.056-5.253c.629-1.574 1.713-2.924 3.115-3.878a5.61 5.61 0 0 1 2.204-.812 5.15 5.15 0 0 1 2.204.222c.659.225 1.273.565 1.814 1.002.493.402.933.864 1.311 1.376 1.117 1.555 1.828 3.365 2.069 5.264.066.51.102 1.024.108 1.538v.406c.004.031.004.061 0 .092z" class="B"/><path d="M302.756 92.009c2.414 0 4.371-2.813 4.371-6.282s-1.957-6.282-4.371-6.282-4.37 2.813-4.37 6.282 1.957 6.282 4.37 6.282z" class="G"/><path d="M307.127 85.727c-.033 0 0-.477-.157-1.316-.181-1.177-.646-2.292-1.354-3.249-.482-.657-1.15-1.153-1.917-1.424a3.08 3.08 0 0 0-1.322-.125c-.468.07-.917.238-1.316.493-.85.592-1.507 1.421-1.89 2.383-.428 1.03-.647 2.134-.644 3.249-.006 1.115.213 2.221.644 3.249.383.962 1.04 1.791 1.89 2.383.399.255.848.423 1.316.493.445.055.896.013 1.322-.124.767-.271 1.435-.768 1.917-1.424a7.34 7.34 0 0 0 1.354-3.249l.157-1.311c.007.114.007.227 0 .341a7.92 7.92 0 0 1-.065.986c-.144 1.215-.593 2.374-1.305 3.369-.497.702-1.196 1.235-2.004 1.527a3.25 3.25 0 0 1-1.419.152 3.66 3.66 0 0 1-1.424-.542c-.901-.611-1.598-1.476-2.004-2.486-.447-1.066-.677-2.21-.677-3.366s.23-2.3.677-3.366c.406-1.01 1.103-1.875 2.004-2.486a3.67 3.67 0 0 1 1.418-.542c.481-.055.967-.003 1.425.152.808.293 1.507.826 2.004 1.527.712.995 1.161 2.154 1.305 3.369.042.327.064.656.065.986.007.117.007.235 0 .352z" class="B"/><path d="M303.06 90.243c1.734 0 3.141-2.022 3.141-4.517s-1.407-4.517-3.141-4.517-3.142 2.022-3.142 4.517 1.407 4.517 3.142 4.517z" class="G"/><path d="M306.201 85.727c-.027 0-.027-.341-.125-.942-.139-.845-.477-1.645-.985-2.334a2.88 2.88 0 0 0-1.365-1.013c-.311-.1-.641-.127-.965-.082s-.632.165-.904.347c-1.175.774-1.798 2.399-1.803 4.019s.628 3.249 1.803 4.024c.272.182.581.301.904.347s.654.018.965-.082a2.88 2.88 0 0 0 1.365-1.013c.508-.689.846-1.489.985-2.334l.125-.937c.013.081.013.163 0 .244.003.237-.01.474-.038.709a5.19 5.19 0 0 1-.932 2.443c-.365.499-.873.877-1.456 1.083-.333.112-.686.151-1.035.114a2.63 2.63 0 0 1-1.04-.379c-.655-.444-1.163-1.074-1.456-1.809a6.26 6.26 0 0 1 0-4.874c.293-.735.801-1.365 1.456-1.809a2.63 2.63 0 0 1 1.04-.379 2.45 2.45 0 0 1 1.035.114c.583.206 1.091.584 1.456 1.083a5.19 5.19 0 0 1 .932 2.442c.028.235.041.472.038.71.019.102.019.207 0 .309z" class="B"/></g><defs><linearGradient id="A" x1="258" y1="0" x2="258" y2="240" href="#T"><stop stop-color="#f2f3f3"/><stop offset="1" stop-color="#ccf1ff"/></linearGradient><linearGradient id="B" x1="230.188" y1="166.531" x2="249.017" y2="166.531" href="#T"><stop stop-color="#ccdcff"/><stop offset=".5" stop-color="#ccdcff" stop-opacity=".5"/><stop offset="1" stop-color="#ccdcff" stop-opacity="0"/></linearGradient><linearGradient id="C" x1="274.371" y1="91.692" x2="274.371" y2="241.37" href="#T"><stop stop-color="#ccdcff" stop-opacity="0"/><stop offset=".5" stop-color="#ccdcff"/></linearGradient><linearGradient id="D" x1="297.219" y1="165.671" x2="316.801" y2="165.671" href="#T"><stop offset=".5" stop-color="#ccdcff" stop-opacity="0"/><stop offset=".75" stop-color="#ccdcff" stop-opacity=".5"/><stop offset="1" stop-color="#ccdcff"/></linearGradient><linearGradient id="E" x1="195.543" y1="166.101" x2="229.435" y2="166.101" href="#T"><stop stop-color="#ccdcff"/><stop offset=".5" stop-color="#ccdcff" stop-opacity=".5"/><stop offset="1" stop-color="#ccdcff" stop-opacity="0"/></linearGradient><linearGradient id="F" x1="316.047" y1="166.531" x2="351.446" y2="166.531" href="#T"><stop offset=".5" stop-color="#ccdcff" stop-opacity="0"/><stop offset=".75" stop-color="#ccdcff" stop-opacity=".5"/><stop offset="1" stop-color="#ccdcff"/></linearGradient><linearGradient id="G" x1="160.898" y1="165.241" x2="210.606" y2="165.241" href="#T"><stop stop-color="#ccdcff"/><stop offset=".5" stop-color="#ccdcff" stop-opacity=".5"/><stop offset="1" stop-color="#ccdcff" stop-opacity="0"/></linearGradient><linearGradient id="H" x1="119.474" y1="165.671" x2="190.271" y2="165.671" href="#T"><stop stop-color="#ccdcff"/><stop offset=".5" stop-color="#ccdcff" stop-opacity=".5"/><stop offset="1" stop-color="#ccdcff" stop-opacity="0"/></linearGradient><linearGradient id="I" x1="335.629" y1="165.671" x2="385.338" y2="165.671" href="#T"><stop offset=".5" stop-color="#ccdcff" stop-opacity="0"/><stop offset=".75" stop-color="#ccdcff" stop-opacity=".5"/><stop offset="1" stop-color="#ccdcff"/></linearGradient><linearGradient id="J" x1="69.766" y1="169.112" x2="166.923" y2="169.112" href="#T"><stop stop-color="#ccdcff"/><stop offset=".5" stop-color="#ccdcff" stop-opacity=".5"/><stop offset="1" stop-color="#ccdcff" stop-opacity="0"/></linearGradient><linearGradient id="K" x1="355.212" y1="166.531" x2="426.009" y2="166.531" href="#T"><stop offset=".5" stop-color="#ccdcff" stop-opacity="0"/><stop offset=".75" stop-color="#ccdcff" stop-opacity=".5"/><stop offset="1" stop-color="#ccdcff"/></linearGradient><linearGradient id="L" x1="20.811" y1="165.671" x2="141.316" y2="165.671" href="#T"><stop stop-color="#ccdcff"/><stop offset=".5" stop-color="#ccdcff" stop-opacity=".5"/><stop offset="1" stop-color="#ccdcff" stop-opacity="0"/></linearGradient><linearGradient id="M" x1="377.053" y1="165.671" x2="478.729" y2="165.671" href="#T"><stop offset=".5" stop-color="#ccdcff" stop-opacity="0"/><stop offset=".75" stop-color="#ccdcff" stop-opacity=".5"/><stop offset="1" stop-color="#ccdcff"/></linearGradient><linearGradient id="N" x1="-16.094" y1="144.596" x2="101.398" y2="144.596" href="#T"><stop stop-color="#ccdcff"/><stop offset=".5" stop-color="#ccdcff" stop-opacity=".5"/><stop offset="1" stop-color="#ccdcff" stop-opacity="0"/></linearGradient><linearGradient id="O" x1="404.167" y1="167.391" x2="532.956" y2="167.391" href="#T"><stop offset=".5" stop-color="#ccdcff" stop-opacity="0"/><stop offset=".75" stop-color="#ccdcff" stop-opacity=".5"/><stop offset="1" stop-color="#ccdcff"/></linearGradient><linearGradient id="P" x1="-22.872" y1="119.649" x2="47.172" y2="119.649" href="#T"><stop stop-color="#ccdcff"/><stop offset=".5" stop-color="#ccdcff" stop-opacity=".5"/><stop offset="1" stop-color="#ccdcff" stop-opacity="0"/></linearGradient><linearGradient id="Q" x1="444.837" y1="138.574" x2="538.982" y2="138.574" href="#T"><stop offset=".5" stop-color="#ccdcff" stop-opacity="0"/><stop offset=".75" stop-color="#ccdcff" stop-opacity=".5"/><stop offset="1" stop-color="#ccdcff"/></linearGradient><clipPath id="R"><path d="M0 16C0 7.163 7.163 0 16 0h484c8.837 0 16 7.163 16 16v208c0 8.837-7.163 16-16 16H16c-8.837 0-16-7.163-16-16V16z" fill="#fff"/></clipPath><path id="S" d="M-16.454 228.099h554.289"/><linearGradient id="T" gradientUnits="userSpaceOnUse"/></defs></svg>