<svg xmlns="http://www.w3.org/2000/svg" width="516" height="240" fill="none" xmlns:v="https://vecta.io/nano"><style><![CDATA[.B{fill:#263238}.C{fill:#adadad}.D{fill:#192124}.E{fill:#ffbe9d}.F{fill:#eb996e}.G{fill:#fff}.H{opacity:.3}.I{fill:#00c8b3}.J{fill:#b78876}.K{fill:#aa6550}.L{stroke-width:1.444}]]></style><g clip-path="url(#R)"><path d="M0 16C0 7.163 7.163 0 16 0h484c8.837 0 16 7.163 16 16v208c0 8.837-7.163 16-16 16H16c-8.837 0-16-7.163-16-16V16z" fill="url(#A)"/><g opacity=".6"><path d="M249.017 91.6921L230.188 241.37" stroke="url(#B)" class="L"/><path d="M273.871 91.6921V241.37" stroke="url(#C)" stroke-width="1.064"/><g class="L"><path d="M297.219 89.9717L316.801 241.37" stroke="url(#D)"/><path d="M229.435 91.6921L195.543 240.509" stroke="url(#E)"/><path d="M316.047 91.6921L351.446 241.37" stroke="url(#F)"/><path d="M210.606 89.1116L160.898 241.37" stroke="url(#G)"/><path d="M190.271 91.6921L119.474 239.649" stroke="url(#H)"/><path d="M335.629 92.5525L385.338 238.789" stroke="url(#I)"/><path d="M166.923 90.8323L69.766 247.391" stroke="url(#J)"/><path d="M355.212 91.6921L426.009 241.37" stroke="url(#K)"/><path d="M141.316 87.3914L20.811 243.95" stroke="url(#L)"/><path d="M377.053 89.1116L478.729 242.23" stroke="url(#M)"/><path d="M101.398 88.2515L-16.0939 200.94" stroke="url(#N)"/><path d="M404.167 87.3914L532.956 247.391" stroke="url(#O)"/><path d="M47.1716 89.9717L-22.8718 149.327" stroke="url(#P)"/><path d="M444.837 88.2515L538.982 188.897" stroke="url(#Q)"/><g stroke="#ccdcff"><use href="#S"/><path d="M-16.454 201.501h554.289"/><path opacity=".9" d="M-16.454 178.095h554.289m-554.289-17.022h554.289"/><path opacity=".8" d="M-16.454 148.306h554.289"/><path opacity=".7" d="M-16.454 136.604h554.289"/><path opacity=".6" d="M-16.454 125.965h554.289"/><path opacity=".5" d="M-16.454 118.517h554.289"/><path opacity=".4" d="M-16.454 111.07h554.289"/><path d="M-16.454 102.559h554.289" class="H"/><path opacity=".2" d="M-16.454 95.112h554.289"/><path opacity=".1" d="M-16.454 87.664h554.289"/></g></g></g><path d="M479.826 0H378.144V130.895H479.826V0Z" fill="#fafafa"/><g fill="#ff383c"><path d="M453.814 19.249a1.48 1.48 0 0 1-.19.269l-.583.728a12.65 12.65 0 0 0-.895 1.209c-.405.558-.779 1.137-1.12 1.736-.965 1.621-1.771 3.331-2.407 5.106a42.7 42.7 0 0 0-1.87 7.245c-.485 2.992-.799 6.009-.941 9.036-.19 3.27-.201 6.718-.381 10.458-.124 3.87-.539 7.725-1.243 11.533-.405 2.013-.947 3.996-1.623 5.935-.729 1.993-1.66 3.906-2.777 5.71a26.64 26.64 0 0 1-8.958 8.6 48.14 48.14 0 0 1-10.693 4.479c-3.538 1.12-6.965 1.836-10.167 2.564s-6.159 1.433-8.823 2.239a57.45 57.45 0 0 0-7.055 2.542c-1.725.763-3.388 1.662-4.971 2.687-.65.426-1.221.806-1.691 1.176s-.885.661-1.198.94l-.717.594c-.077.074-.164.138-.257.19a1.31 1.31 0 0 1 .224-.235l.683-.638c.354-.349.728-.678 1.119-.985a20.62 20.62 0 0 1 1.68-1.232 33.2 33.2 0 0 1 4.96-2.788c2.29-1.048 4.651-1.931 7.066-2.642 2.676-.817 5.654-1.545 8.846-2.239s6.606-1.523 10.077-2.609a48.32 48.32 0 0 0 10.559-4.479c3.546-2.085 6.553-4.973 8.779-8.431a30.02 30.02 0 0 0 2.72-5.599 44.97 44.97 0 0 0 1.613-5.845c.699-3.779 1.125-7.603 1.276-11.444l.426-10.458a77.33 77.33 0 0 1 1.019-9.081 40.65 40.65 0 0 1 2.049-7.334c.66-1.787 1.5-3.501 2.508-5.117a16.53 16.53 0 0 1 1.176-1.713c.29-.416.608-.813.951-1.187l.628-.694c.111-.134.19-.235.201-.224z"/><path d="M468.259 34.7a2.83 2.83 0 0 1-.124.291l-.414.851a18.16 18.16 0 0 1-2.049 2.967 22.75 22.75 0 0 1-4.221 3.863c-2.067 1.464-4.299 2.678-6.651 3.617a56.14 56.14 0 0 1-8.779 2.642c-3.214.75-6.718 1.366-10.257 2.239-3.775.788-7.443 2.02-10.928 3.673-3.739 1.738-6.964 4.416-9.361 7.771-2.213 3.484-3.511 7.47-3.773 11.589-.303 3.841-.198 7.703.313 11.522.403 3.661.918 7.144 1.176 10.436a46.25 46.25 0 0 1-.067 9.181 27.99 27.99 0 0 1-1.915 7.323 19.81 19.81 0 0 1-2.889 4.927c-.745.929-1.59 1.774-2.519 2.519l-.773.549c-.164.127-.254.183-.269.168l.236-.213.727-.593c.905-.779 1.727-1.65 2.453-2.598 1.144-1.503 2.075-3.157 2.765-4.916.921-2.327 1.527-4.767 1.803-7.255a46.39 46.39 0 0 0 0-9.081c-.28-3.27-.806-6.718-1.232-10.425a55.4 55.4 0 0 1-.347-11.634 25.11 25.11 0 0 1 3.897-11.836 24.33 24.33 0 0 1 9.585-7.961 49.06 49.06 0 0 1 11.029-3.718c3.605-.817 7.076-1.433 10.268-2.15a57.11 57.11 0 0 0 8.745-2.553 32.74 32.74 0 0 0 6.606-3.505 22.73 22.73 0 0 0 4.233-3.74 20.46 20.46 0 0 0 2.127-2.889l.459-.806c.067-.168.134-.269.146-.258zm-36.705 50.892a21.25 21.25 0 0 1-2.9-1.96l-6.718-5.05-6.651-5.196a19.86 19.86 0 0 1-2.643-2.239c1.013.561 1.976 1.209 2.878 1.937l6.718 5.05 6.651 5.195a19.89 19.89 0 0 1 2.665 2.262z"/><path d="M439.593 78.18a3.81 3.81 0 0 1-.963-.593l-2.486-1.78-8.062-6.058-7.972-6.192-2.363-1.937a3.89 3.89 0 0 1-.828-.773c.347.152.671.352.963.593l2.486 1.78 8.061 6.069 7.962 6.192 2.373 1.926a4.22 4.22 0 0 1 .829.773zm3.158-9.094c-.987-.538-1.924-1.164-2.799-1.87l-6.483-4.86-6.394-4.949a20.8 20.8 0 0 1-2.542-2.239c.991.533 1.928 1.159 2.799 1.87l6.484 4.86 6.393 4.983a20.18 20.18 0 0 1 2.542 2.206zm2.24-10.311a32.17 32.17 0 0 1-5.017-3.471 32.07 32.07 0 0 1-4.646-3.919c1.775.991 3.451 2.149 5.005 3.46a32.18 32.18 0 0 1 4.658 3.93zm12.216-13.683c-1.978-1.127-3.851-2.427-5.599-3.885a41.15 41.15 0 0 1-5.218-4.345 38.43 38.43 0 0 1 5.599 3.885 41.14 41.14 0 0 1 5.218 4.344zm10.245-5.667a19.39 19.39 0 0 1-2.788-1.881l-6.494-4.848-6.382-4.994a19.12 19.12 0 0 1-2.542-2.239 20.69 20.69 0 0 1 2.788 1.881l6.494 4.848 6.383 4.994a17.46 17.46 0 0 1 2.541 2.239zm-45.46 49.448c-1.971-1.138-3.844-2.437-5.599-3.885-1.856-1.302-3.597-2.759-5.207-4.356a40.23 40.23 0 0 1 5.599 3.885c1.862 1.294 3.604 2.752 5.207 4.356zm-12.015 14.947c-1.841-1.036-3.58-2.243-5.195-3.605a34.03 34.03 0 0 1-4.838-4.065c1.835 1.047 3.573 2.254 5.196 3.606 1.73 1.209 3.348 2.569 4.837 4.064zm-.437 11.735c-1.003-.552-1.955-1.192-2.844-1.914l-6.628-4.949-6.517-5.095c-.925-.675-1.794-1.424-2.598-2.24 1.008.55 1.964 1.191 2.855 1.915l6.618 4.949 6.517 5.095c.921.679 1.79 1.428 2.597 2.239z"/></g><g fill="#ac7f5e"><path d="M389.386 7.727c0 .401-.119.793-.342 1.126s-.539.593-.909.746-.778.194-1.171.115a2.03 2.03 0 0 1-1.038-.555 2.04 2.04 0 0 1-.555-1.038c-.079-.393-.038-.801.116-1.171s.413-.687.746-.91.725-.342 1.126-.342a2.03 2.03 0 0 1 .776.154 2.02 2.02 0 0 1 .657.439c.188.188.338.412.439.658s.155.509.155.776zm83.239 0a2.03 2.03 0 0 1-1.251 1.872c-.37.153-.778.194-1.171.115s-.754-.271-1.037-.555a2.02 2.02 0 0 1-.555-1.038 2.03 2.03 0 0 1 .862-2.081c.334-.223.725-.342 1.126-.342a2.02 2.02 0 0 1 .775.154 2.04 2.04 0 0 1 .658.439 2.03 2.03 0 0 1 .439.658c.102.246.154.509.154.776z"/></g><path d="M109.255 7.132H29.8v115.163h79.455V7.132z" class="C"/><path d="M105.269 7.132H25.814v115.163h79.455V7.132z" fill="#f5f5f5"/><path d="M95.404 19.607H35.689v90.216h59.714V19.607z" class="G"/><g class="C"><path d="M95.393 109.822v-.437-1.276-4.95-18.587l-.09-64.944.19.202H35.79l.213-.224v90.216l-.168-.168 43.456.089h12.015 3.146 1.12-1.053-3.113-11.97l-43.747.292h-.179v-.18V19.64v-.213h.224 59.703.201v.19l-.101 65.1v18.531 4.916 1.254c0 .291-.145.403-.145.403z"/><path d="M105.492 7.132a12.9 12.9 0 0 1-1.422 2.06l-3.728 4.725-3.919 4.568c-.533.644-1.117 1.243-1.747 1.792a14.34 14.34 0 0 1 1.512-1.993l3.829-4.636 3.818-4.647a15.66 15.66 0 0 1 1.657-1.87z"/></g><path d="M95.706 109.543c2.965 4.722 6.459 9.091 10.414 13.022z" class="G"/><path d="M106.12 122.564a12.53 12.53 0 0 1-1.826-1.657l-3.919-4.479c-1.236-1.544-2.391-3.151-3.46-4.815a11.2 11.2 0 0 1-1.209-2.127 17.45 17.45 0 0 1 1.456 1.959l3.549 4.703 3.807 4.479a16.59 16.59 0 0 1 1.602 1.937z" class="C"/><path d="M25.802 122.207l10.413-12.832z" class="G"/><g class="C"><path d="M36.215 109.375a82.55 82.55 0 0 1-5.039 6.55 78.41 78.41 0 0 1-5.375 6.282 80.02 80.02 0 0 1 5.039-6.55 76 76 0 0 1 5.375-6.282zM25.814 7.132c1.796 1.918 3.482 3.937 5.05 6.047a68.4 68.4 0 0 1 4.714 6.304 73.24 73.24 0 0 1-5.05-6.035 72.1 72.1 0 0 1-4.714-6.315z"/></g><g fill="#34c759"><path d="M72.292 72.602c3.537 0 6.405-2.867 6.405-6.405s-2.868-6.405-6.405-6.405-6.405 2.867-6.405 6.405 2.867 6.405 6.405 6.405zm9.832-28.955a4.78 4.78 0 0 1-8.161 3.381 4.78 4.78 0 0 1 3.381-8.163 4.79 4.79 0 0 1 4.781 4.781zm-18.621 7.368a3.46 3.46 0 0 1-5.907 2.447 3.46 3.46 0 0 1 2.447-5.907 3.46 3.46 0 0 1 3.46 3.46zm19.091 36.289a2.15 2.15 0 0 1-3.667-1.522 2.15 2.15 0 0 1 3.667-1.523 2.16 2.16 0 0 1 0 3.046zM53.437 70.263a3.46 3.46 0 0 1-5.907 2.447 3.46 3.46 0 0 1 2.447-5.907 3.46 3.46 0 0 1 3.46 3.46z"/><path d="M72.293 66.198c.213-.101 2.351 4.02 4.781 9.193s4.21 9.473 3.997 9.574-2.363-4.02-4.781-9.204-4.165-9.473-3.997-9.562zm-.515.639c0 .235-4.636 1.12-10.436 1.982S50.85 70.185 50.85 69.95s4.624-1.12 10.425-1.982 10.469-1.366 10.503-1.131zm-.437-3.069c-.157.168-3.124-2.239-6.114-5.901s-4.792-7.021-4.602-7.177 2.318 3.012 5.274 6.584l5.442 6.494zm6.001-20.121v.168l-.112.616-.481 2.239-1.814 7.401c-1.478 5.755-2.71 10.413-2.934 10.369s.616-4.815 2.094-10.581c.739-2.889 1.467-5.475 2.06-7.345.291-.929.549-1.68.761-2.239a5.59 5.59 0 0 1 .258-.582l.101-.146h.056c-.022 0 .011.101.011.101z"/></g><path d="M358.933 179.759s-17.042-4.064-17.602-4.781l14.007-36.088a26.33 26.33 0 0 1 6.357-9.831c2.83-2.759 6.245-4.845 9.991-6.103a46.16 46.16 0 0 1 16.55-2.553l23.659-1.254c6.511.4 12.865 2.158 18.655 5.162 7.96 4.139 14.176 10.991 17.523 19.315l10.615 26.504-26.761 5.598-1.019 28.475 12.239 54.563-85.401-2.788 3.818-74.763-2.631-1.456z" class="I"/><g class="H G"><path d="M344.219 170.266c0 .078 4.39 1.523 9.876 3.225s9.932 3 9.955 2.922-4.39-1.523-9.865-3.214l-9.966-2.933z"/></g><g class="B"><path d="M421.547 144.893c.176-.192.329-.402.459-.628l1.221-1.69a28.83 28.83 0 0 1 2.004-2.341c.871-.912 1.798-1.768 2.777-2.564 1.785-1.434 3.732-2.655 5.8-3.639l1.915-.84c.246-.078.482-.184.705-.313a3.9 3.9 0 0 0-.75.201c-.47.146-1.12.404-1.959.751-3.285 1.46-6.241 3.57-8.689 6.203a25.91 25.91 0 0 0-1.982 2.475 17.52 17.52 0 0 0-1.12 1.757c-.149.195-.277.405-.381.628zm3.494 8.61c-.09 0 .739 8.7 1.836 19.416l2.15 19.382c.09-.011-.739-8.7-1.848-19.416l-2.138-19.382zm-58.181-16.112a12.57 12.57 0 0 0 .381-1.758 33.81 33.81 0 0 1 1.176-4.177c.492-1.359 1.076-2.683 1.746-3.964l.829-1.601c-.034-.022-.123.123-.302.381l-.717 1.12c-.727 1.265-1.341 2.591-1.836 3.963-.506 1.373-.881 2.79-1.12 4.233l-.168 1.321a2.22 2.22 0 0 0 .011.482zm-1.478 30.399a5.22 5.22 0 0 0 .146-.851l.257-2.351.504-7.76v-7.782l-.09-2.351a4.09 4.09 0 0 0-.089-.862 4.28 4.28 0 0 0 0 .862v2.351l-.135 7.771-.414 7.76-.168 2.351c-.031.286-.034.575-.011.862z"/></g><path d="M401.157 162.662c6.211.36 12.44.244 18.632-.347v2.418h-18.632v-2.071z" class="G"/><g class="H G"><path d="M382.627 122.442a1.95 1.95 0 0 0-.078.37c0 .268-.09.627-.157 1.119l-.414 4.076c-.28 3.494-.526 8.465-.616 14.344v.224l.201-.101 12.217-5.946 21.173-10.592 6.405-3.247 1.736-.896.448-.235.145-.09-.168.067-.459.213-1.758.84-6.438 3.124-21.219 10.514-12.193 5.968.19.123c.067-5.867.269-10.839.504-14.332.1-1.747.246-3.135.336-4.076 0-.459.089-.817.112-1.12.017-.115.028-.231.033-.347z"/></g><g class="H G"><path d="M427.078 172.739a1.28 1.28 0 0 0 .303 0l.873-.213 3.18-.806 10.526-2.62 10.547-2.474 3.203-.739.873-.213c.19 0 .302-.079.291-.09h-.302l-.885.157-3.224.638c-2.721.56-6.461 1.389-10.582 2.385s-7.838 1.971-10.503 2.721l-3.157.896-.851.269c-.168.089-.292.089-.292.089z"/></g><g class="B"><path d="M385.873 118.041c-1.315.692-2.406 1.745-3.146 3.034a28.62 28.62 0 0 0-3.74 9.887c-.368 1.911-.596 3.845-.683 5.789v2.553c0 .806.056 1.534.123 2.239a56.11 56.11 0 0 0 .202 1.814l.224 1.366a4.01 4.01 0 0 0 .28 1.12 5.03 5.03 0 0 0 0-1.176l-.202-1.377c0-.537-.067-1.12-.112-1.803s0-1.41 0-2.239l.067-2.508a44.41 44.41 0 0 1 .717-5.711c.615-3.427 1.8-6.727 3.505-9.764.549-.895 1.203-1.722 1.948-2.463.504-.493.851-.728.817-.761zm26.47.169c.365.62.777 1.211 1.232 1.769 1.118 1.588 2.039 3.307 2.743 5.117a35.07 35.07 0 0 1 2.038 8.365c.426 3.235.605 6.841.84 10.614s.201 7.379.213 10.66v8.734c0 2.486.067 4.479.145 5.89-.018.722.054 1.444.213 2.149.122-.713.167-1.437.134-2.161 0-1.41.09-3.415.157-5.878l.19-8.723c.045-3.28.056-6.908-.145-10.715s-.437-7.402-.918-10.682c-.366-2.92-1.119-5.778-2.24-8.499a21.48 21.48 0 0 0-3.045-5.084c-.442-.59-.966-1.115-1.557-1.556z"/><path d="M373.198 166.883a10.52 10.52 0 0 0 .123-1.926l.078-5.24v-3.628l.079-4.132a6.84 6.84 0 0 1 1.489-4.064c.51-.591 1.138-1.068 1.844-1.402a5.59 5.59 0 0 1 2.254-.535c1.589.001 3.121.591 4.3 1.657 1.083 1.016 1.836 2.335 2.161 3.785.358 1.377.515 2.776.728 4.053l.571 3.583.862 5.173a10.07 10.07 0 0 0 .403 1.881c-.009-.641-.066-1.281-.168-1.915l-.672-5.206-.492-3.583-.683-4.132a7.9 7.9 0 0 0-2.318-4.076c-1.281-1.174-2.954-1.829-4.692-1.836a6.15 6.15 0 0 0-4.546 2.161c-.999 1.257-1.561 2.806-1.601 4.412-.09 1.5 0 2.877 0 4.176v3.628l.112 5.24a13.21 13.21 0 0 0 .168 1.926z"/><path d="M378.819 140.267a9.87 9.87 0 0 0 2.239 5.811 8.23 8.23 0 0 0-3.762.068 12.77 12.77 0 0 0 .996-5.879m-5.117 13.235c.26-.788.57-1.558.93-2.306.436-.756 1.01-1.424 1.69-1.971.822-.695 1.809-1.166 2.867-1.366 1.062-.173 2.15-.065 3.158.314.826.308 1.586.772 2.239 1.366.576.597 1.111 1.233 1.601 1.903a4.18 4.18 0 0 0-1.31-2.239 6.71 6.71 0 0 0-2.34-1.568 6.33 6.33 0 0 0-3.46-.392 6.43 6.43 0 0 0-3.124 1.534c-.719.621-1.302 1.384-1.713 2.24a4.35 4.35 0 0 0-.538 2.485z"/></g><path d="M357.656 219.466c-3.471 0-6.561-2.497-8.196-5.599a23.49 23.49 0 0 1-2.239-10.077c-.423-9.191.713-18.386 3.359-27.198l15.194 2.654-4.131 40.925-3.987-.705z" class="E"/><path d="M419.061 224.56l-49.48-1.803-11.992-57.979 52.112 2.9 9.36 56.882z" class="B"/><path d="M393.599 166.681l-.75-1.478-3.953-.303s-.996-2.597-6.64-2.855c-5.061-.235-5.262 2.307-5.262 2.307h-2.732v1.243l19.337 1.086z" fill="#455a64"/><path d="M366.009 205.883l-3.751-1.119a4.59 4.59 0 0 0-2.172-.101c-.879.176-1.688.604-2.329 1.232-1.284 1.179-2.465 2.468-3.527 3.851-.206.466-.313.969-.313 1.478a3.65 3.65 0 0 0 .313 1.478c.414.571-.918 3.449-.75 4.412a5.96 5.96 0 0 0 .75 2.329c.336.403 0 1.769.84 2.811.482.603 1.013 1.165 1.59 1.679 0 0 10.301.482 11.309 0a14.78 14.78 0 0 0 2.766-2.329s.918-1.679-.504-1.836l5.856-2.24c.172-.059.33-.151.465-.272a1.36 1.36 0 0 0 .326-.43 1.37 1.37 0 0 0 .06-1.056.98.98 0 0 0-.2-.337.97.97 0 0 0-.315-.234s2.631-.828 3.247-1.119c1.209-.538 1.668-3.359-.84-3.001-1.332.19-3.135.571-3.135.571a1.85 1.85 0 0 0-.381-2.486c-.817-.571-4.479.123-4.479.123l-4.826-3.437v.033z" class="E"/><g class="F"><path d="M364.698 221.336c1.031.039 2.06-.113 3.035-.448a7.74 7.74 0 0 0 2.81-1.265c0-.078-1.265.526-2.889.974l-2.956.739zm2.24-3.662c1.616-.248 3.213-.604 4.782-1.063 1.598-.353 3.172-.805 4.714-1.355a39.29 39.29 0 0 0-4.782 1.064c-1.596.36-3.17.813-4.714 1.354zm-1.22-3.639a46.83 46.83 0 0 0 5.151-1.053 44.57 44.57 0 0 0 5.083-1.343 46.83 46.83 0 0 0-5.151 1.052 47.64 47.64 0 0 0-5.083 1.344zm-3.807-4.691a6.3 6.3 0 0 0 1.322.414l1.455.381.862.212a3.21 3.21 0 0 0 .986.09 4.47 4.47 0 0 0 .974-.157l.862-.19 1.456-.358a6.79 6.79 0 0 0 1.332-.392c-.465.009-.927.073-1.377.19l-1.478.28a14.35 14.35 0 0 1-1.78.325 6.59 6.59 0 0 1-1.77-.269l-1.466-.314a6.12 6.12 0 0 0-1.378-.212zm-.661 1.97s-.168.1-.291.38a1.72 1.72 0 0 0 0 1.12c.114.376.355.701.683.918.257.168.448.191.459.157s-.616-.403-.851-1.12a3.25 3.25 0 0 1 0-1.455zm.214 3.974c-.079 0-.303.37-.269.941s.302.952.369.907 0-.426-.067-.929.045-.919-.033-.919zm-.056 4.334c-.079 0-.236.246-.168.615s.324.56.392.504 0-.28-.09-.571-.056-.526-.134-.548z"/><path d="M360.277 209.108a3.95 3.95 0 0 0 .996 0l1.053-.134c.415-.091.842-.114 1.265-.068a3.11 3.11 0 0 1 1.12.504l.873.616c.273.211.607.325.952.325 0 0-.358-.146-.829-.504a5.2 5.2 0 0 0-2.071-1.243c-.239-.022-.478-.022-.717 0-.235 0-.425.067-.627.101l-1.052.201c-.33.015-.655.083-.963.202zm-5.98 10.548a4.79 4.79 0 0 0-.268-.739c-.26-.653-.401-1.347-.415-2.05.019-.484.094-.965.224-1.433.123-.515.359-1.019.482-1.635.082-.636.04-1.282-.123-1.903a3.35 3.35 0 0 1 .336-1.87 8.75 8.75 0 0 1 1.119-1.657l1.187-1.445c.651-.814 1.483-1.466 2.43-1.903a3.96 3.96 0 0 1 2.049-.314c.493.068.75.202.761.168s-.056 0-.179-.1c-.178-.083-.366-.144-.56-.18-.723-.134-1.469-.056-2.149.224a6.92 6.92 0 0 0-2.565 1.915l-1.209 1.444a8.98 8.98 0 0 0-1.12 1.725c-.32.624-.445 1.33-.358 2.027.15.592.199 1.205.146 1.813-.112.56-.347 1.12-.459 1.635a5.9 5.9 0 0 0-.191 1.489 5.32 5.32 0 0 0 .527 2.094 2.34 2.34 0 0 0 .335.695z"/></g><g class="E"><path d="M389.008 190.981l40.623 6.449-1.802-21.196 22.595-4.367 2.744 31.352.481 7.2c.156 2.396-.305 4.793-1.338 6.96s-2.604 4.035-4.563 5.424a14.02 14.02 0 0 1-6.012 2.429c-2.166.328-4.379.145-6.461-.537l-8.723-2.844-42.549-15.138"/><path d="M364.374 186.613a1.13 1.13 0 0 1 .003-.504 1.12 1.12 0 0 1 .223-.453 1.13 1.13 0 0 1 .4-.308 1.12 1.12 0 0 1 .494-.101c2.239 0 8.476 0 10.66.649 2.698.762 12.764 5.084 12.764 5.084l-4.266 15.754-15.452.168s-5.598-2.597-5.71-3.717a19.23 19.23 0 0 1 .145-2.105l-1.702-.918c-2.541-1.613-.918-4.692-.918-4.692-.496-.289-.919-.687-1.237-1.164a3.76 3.76 0 0 1-.599-1.591c-.041-.519.065-1.039.307-1.501a2.76 2.76 0 0 1 1.059-1.108s-.706-2.485.593-3.157 3.505.19 3.505.19c-.147-.14-.241-.325-.269-.526z"/></g><g class="F"><path d="M363.49 186.871c.153.072.315.125.481.157.314.089.761.19 1.332.291 1.12.202 2.721.369 4.479.56 1.483.138 2.956.362 4.412.672 1.12.257 1.736.604 1.758.559s-.146-.111-.426-.268a6.63 6.63 0 0 0-1.276-.493 26.76 26.76 0 0 0-4.479-.773l-4.479-.47-1.802-.235zm-2.901 3.147a3.62 3.62 0 0 0 1.12.559c.912.351 1.853.624 2.811.818l2.888.481c.398.08.805.111 1.21.09-1.328-.358-2.673-.646-4.031-.862l-2.811-.728c-.384-.154-.781-.274-1.187-.358zm.426 5.474c1.058.537 2.19.915 3.359 1.12a11.79 11.79 0 0 0 3.472.414c0-.089-1.546-.28-3.36-.705l-3.471-.829zm.963 4.668c.781.462 1.638.781 2.531.941a7.9 7.9 0 0 0 2.687.325 25.92 25.92 0 0 0-2.609-.627l-2.609-.639zm8.051-2.787s.156.134.47.167c.416.035.831-.079 1.171-.321a1.77 1.77 0 0 0 .688-1c.078-.302 0-.504 0-.504-.179.483-.476.914-.862 1.254a3.24 3.24 0 0 1-1.467.404zm.325 4.882c0 .078.605.112 1.12-.359s.571-1.119.482-1.119-.236.47-.683.862-.93.526-.919.616zm1.791-9.92c0 .078.392.224.783-.079s.381-.75.303-.739-.191.28-.482.493-.537.246-.604.325z"/><path d="M389.008 190.98l-.123-.067-.37-.168-1.433-.638-5.386-2.239-3.818-1.501a13.91 13.91 0 0 0-2.239-.694 23.79 23.79 0 0 0-2.452-.302l-5.353-.213h-2.127a1.47 1.47 0 0 0-.773.157 1.23 1.23 0 0 0-.577.583 1.22 1.22 0 0 0-.083.816.4.4 0 0 0 .179.202l.179.112.347.157c.236.104.479.19.728.257.018.007.038.01.057.008a.14.14 0 0 0 .056-.017c.017-.01.032-.022.043-.038a.13.13 0 0 0 .023-.054c.01-.037.006-.076-.013-.11s-.051-.058-.088-.069a15.46 15.46 0 0 0-1.926-.436 7.25 7.25 0 0 0-2.038-.068c-.368.043-.715.195-.996.437-.263.265-.435.606-.493.974a5.05 5.05 0 0 0 .135 2.128l.078-.18a2.94 2.94 0 0 0-.862.762 2.99 2.99 0 0 0-.558 1.323c-.076.48-.035.971.121 1.431.322.889.949 1.635 1.769 2.105l-.067-.201a4.89 4.89 0 0 0-.481 2.698 3.06 3.06 0 0 0 .472 1.286 3.08 3.08 0 0 0 .983.954l1.702.907-.078-.146c0 .415-.079.818-.112 1.221v.604a2.55 2.55 0 0 0 0 .303c.013.12.055.235.123.336.242.327.537.61.873.839l.963.639c1.242.739 2.524 1.409 3.841 2.004h.056l11.197-.168 3.102-.067h.817.28a1.31 1.31 0 0 0-.28 0h-3.93l-11.197.067-3.796-2.015-.941-.628a3.54 3.54 0 0 1-.806-.772c-.039-.062-.065-.13-.078-.202-.006-.097-.006-.194 0-.291v-.582c0-.403.067-.806.112-1.209.005-.027.001-.055-.011-.079s-.032-.044-.056-.056l-1.702-.918c-.356-.211-.66-.501-.889-.846a2.76 2.76 0 0 1-.433-1.147c-.088-.863.071-1.733.459-2.508a.16.16 0 0 0 .011-.112c-.01-.037-.034-.069-.067-.09a3.77 3.77 0 0 1-1.634-1.948 2.71 2.71 0 0 1-.099-1.286 2.73 2.73 0 0 1 .502-1.189c.202-.272.457-.501.75-.671.03-.015.055-.04.069-.07s.018-.066.009-.098a4.84 4.84 0 0 1-.123-1.993 1.42 1.42 0 0 1 .459-.907 1.6 1.6 0 0 1 .829-.359 6.7 6.7 0 0 1 1.948.079c.64.091 1.273.23 1.892.414l.068-.291a4.08 4.08 0 0 1-.683-.235l-.325-.146c-.101 0-.202-.157-.246-.145-.022-.211.013-.424.1-.616.103-.19.259-.345.448-.448.2-.093.419-.136.638-.123h2.128l5.33.19 2.43.28c.744.163 1.474.384 2.183.661l3.829 1.466 5.42 2.24 1.455.582.37.146.179-.012zm40.422 6.393c1.105.732 2.114 1.601 3.001 2.587a15.4 15.4 0 0 1 1.993 3.426 2.88 2.88 0 0 0-.303-1.12c-.709-1.801-1.976-3.327-3.616-4.355a3.35 3.35 0 0 0-1.075-.538z"/></g><path d="M376.378 71.775c.406-5.15 2.739-9.957 6.533-13.462s8.77-5.451 13.936-5.45h1.064c11.465.649 17.322 10.738 16.359 22.17l-1.982 45.908a2.07 2.07 0 0 1-.346 1.055c-.209.314-.5.565-.841.725l-25.754 12.071.795-24.063s-11.018-1.69-11.197-12.708c-.078-5.364.627-16.326 1.433-26.246z" class="E"/><path d="M386.03 110.663a26.65 26.65 0 0 0 14.422-4.255s-3.36 7.939-14.366 6.965l-.056-2.71z" class="F"/><g class="B"><path d="M379.042 80.396a1.58 1.58 0 0 0 1.523 1.579 1.53 1.53 0 0 0 .593-.073c.191-.063.366-.165.518-.297a1.51 1.51 0 0 0 .362-.474 1.53 1.53 0 0 0 .151-.578 1.58 1.58 0 0 0-1.523-1.579 1.51 1.51 0 0 0-.592.073c-.191.063-.367.165-.518.297a1.5 1.5 0 0 0-.363.474 1.53 1.53 0 0 0-.151.578zm-.29-3.235c.201.202 1.388-.683 3.079-.683s2.934.851 3.124.638-.112-.459-.65-.851c-.733-.507-1.605-.773-2.497-.761a4.03 4.03 0 0 0-2.452.795c-.526.403-.694.773-.604.862zm16.18 3.638c-.006.41.148.806.431 1.103a1.57 1.57 0 0 0 1.08.486 1.53 1.53 0 0 0 .593-.073 1.49 1.49 0 0 0 .518-.297 1.51 1.51 0 0 0 .513-1.052c.003-.411-.154-.807-.439-1.104a1.58 1.58 0 0 0-1.084-.486 1.5 1.5 0 0 0-1.106.371c-.15.133-.273.294-.36.474a1.52 1.52 0 0 0-.146.577zm.459-3.358c.202.201 1.389-.683 3.079-.672s2.934.84 3.124.627-.112-.459-.66-.851c-.732-.51-1.606-.776-2.497-.761-.878-.003-1.734.275-2.441.795-.526.403-.694.773-.605.862zm-6.114 12.562a12.04 12.04 0 0 0-2.754-.493c-.426 0-.84-.123-.907-.414-.038-.448.059-.896.28-1.288l1.276-3.292 2.844-8.611c-.19-.067-1.769 3.673-3.538 8.364l-1.209 3.359a2.43 2.43 0 0 0-.224 1.691 1.06 1.06 0 0 0 .716.627 2.58 2.58 0 0 0 .728.101 10.84 10.84 0 0 0 2.788-.045zm4.982 1.166c-.28 0-.28 1.825-1.847 3.124s-3.527 1.12-3.539 1.366.437.358 1.266.381a4.58 4.58 0 0 0 2.956-1.041c.797-.655 1.307-1.595 1.422-2.62.089-.773-.135-1.22-.258-1.209zm.683-20.324c.168.459 1.859.235 3.841.47s3.594.773 3.863.358c.112-.19-.168-.627-.817-1.12a6.42 6.42 0 0 0-2.856-.985c-1.018-.128-2.052-.005-3.012.358-.727.302-1.097.661-1.019.918zm-15.575 1.412c.303.392 1.467 0 2.867 0s2.586.246 2.866-.146c.112-.202-.078-.582-.593-.952a4.05 4.05 0 0 0-2.329-.627 3.98 3.98 0 0 0-2.24.784c-.537.358-.705.761-.571.941z"/></g><path d="M412.522 83.162c.19-.078 7.569-2.239 7.345 5.274s-7.737 5.755-7.748 5.531.403-10.805.403-10.805z" class="E"/><path d="M413.877 91.224a2.69 2.69 0 0 0 .347.202c.312.129.662.129.974 0a3.24 3.24 0 0 0 1.59-2.867c.042-.642-.061-1.285-.302-1.881a1.53 1.53 0 0 0-.354-.639 1.54 1.54 0 0 0-.609-.403.67.67 0 0 0-.452.028c-.143.061-.26.17-.332.308-.112.213-.067.358-.101.37s-.157-.123-.089-.437a.77.77 0 0 1 .313-.459c.21-.153.471-.218.728-.179a1.87 1.87 0 0 1 .821.434c.233.211.409.478.511.776.301.663.436 1.389.392 2.116.024.671-.155 1.334-.512 1.903s-.877 1.018-1.492 1.288c-.204.055-.419.062-.626.021a1.39 1.39 0 0 1-.572-.256c-.224-.146-.258-.314-.235-.325z" class="F"/><path d="M407.629 60.768l-31.408.694c1.071-2.135 2.656-3.971 4.613-5.341 4.087-3.154 9.061-4.943 14.22-5.117 5.117-.09 15.542 6.147 19.259 9.685 2.968 2.822 2.945 5.263 2.945 5.263.471 4.076-1.802 8.7-2.709 12.698-.471 2.06-1.366 8.297-1.366 8.297-1.736 0-2.374-1.377-2.117-3.09l.325-6.718c-1.736-1.365-2.979-3.26-3.539-5.397a10.14 10.14 0 0 1 .437-6.439c.448-.56 1.411-3.348-.66-4.535z" class="B"/><g class="F"><path d="M401.033 84.628a.21.21 0 0 0 .119-.004.2.2 0 0 0 .095-.07c.024-.032.038-.071.04-.112a.21.21 0 0 0-.119-.192c-.037-.016-.078-.022-.118-.014a.2.2 0 0 0-.162.158c-.01.05-.001.103.026.146a.21.21 0 0 0 .119.089zm-3.235-.728c.054.003.108-.015.15-.05s.068-.086.074-.14c.017-.053.013-.112-.012-.162a.21.21 0 0 0-.123-.107c-.054-.003-.108.015-.15.05s-.068.086-.074.14c-.018.053-.013.112.012.162s.069.089.123.107zm-2.184-.054c.101 0 .202-.112.224-.28s0-.314-.145-.325-.202.112-.224.28.044.314.145.325zm3.83 2.809c.101 0 .19-.056.19-.112s-.089-.123-.19-.123-.191 0-.191.123.09.112.191.112zm-2.967-.682a.2.2 0 0 0 .202-.19c.005-.026.004-.052-.002-.078s-.017-.05-.033-.071-.036-.039-.059-.052-.048-.021-.074-.024c-.051 0-.101.02-.139.055a.2.2 0 0 0-.063.135c-.004.026-.004.052.002.078a.2.2 0 0 0 .033.071c.015.021.036.039.059.052a.19.19 0 0 0 .074.024zm-15.441-1.804c.026.003.053.001.079-.006a.21.21 0 0 0 .07-.036.2.2 0 0 0 .051-.061c.013-.024.021-.049.024-.076s.008-.05.005-.075-.011-.049-.023-.071-.03-.041-.05-.056-.042-.027-.067-.033c-.052-.006-.104.007-.146.039s-.069.078-.078.129-.007.104.018.15.067.08.117.096zm-2.194-.2c.1 0 .19-.09.201-.213s-.056-.246-.157-.257-.201.09-.212.224c-.01.055.002.111.033.157s.08.078.135.089zm4.142.245c.022.007.045.009.068.006s.045-.01.065-.021a.16.16 0 0 0 .051-.046c.014-.019.024-.04.029-.062.006-.046-.005-.093-.032-.13a.18.18 0 0 0-.114-.071.18.18 0 0 0-.134.023c-.039.025-.068.065-.078.111-.004.022-.002.045.003.066s.016.042.029.06a.18.18 0 0 0 .113.065zm-1.623 2.207a.21.21 0 0 0 .123.027c.043-.004.084-.02.117-.047a.21.21 0 0 0 .067-.232c-.013-.041-.039-.077-.074-.103a.21.21 0 0 0-.119-.043c-.043-.002-.085.01-.122.032s-.065.056-.082.096a.2.2 0 0 0-.024.076c-.003.027 0 .053.009.079s.022.049.04.068.04.035.065.046zm-1.882-.37a.18.18 0 0 0 .107-.075c.024-.037.034-.083.027-.127-.017-.042-.05-.076-.092-.095s-.088-.021-.131-.006c-.023.004-.044.012-.063.025s-.035.029-.048.047-.021.04-.025.062-.004.045.001.067c.018.042.051.076.092.095a.18.18 0 0 0 .132.006z"/></g><path d="M414.515 61.16a9.29 9.29 0 0 0 .085-4.26 9.28 9.28 0 0 0-5.182-6.477 9.28 9.28 0 0 0-4.174-.852c-1.453.221-2.921.326-4.39.314-2.71-.291-4.803-2.474-7.323-3.527-1.988-.776-4.179-.868-6.225-.259a9.6 9.6 0 0 0-5.073 3.619c-.951 1.433-1.578 3.191-3.045 4.087-1.266.784-2.856.717-4.278 1.12-1.431.495-2.662 1.443-3.508 2.699a6.98 6.98 0 0 0-1.183 4.266 8.23 8.23 0 0 0 5.005 6.92c1.4.552 2.907.783 4.409.677s2.96-.548 4.269-1.293c2.373-1.321 4.479-3.561 7.211-3.482s5.251 2.777 7.972 2.217a7.74 7.74 0 0 0 3.617-2.419 6.28 6.28 0 0 1 3.74-2.161c1.478-.078 2.239 1.937 1.713 3.359l6.326-4.479" class="B"/><g fill="#455a64"><path d="M376.836 57.52v.112l.191.302a4.94 4.94 0 0 0 .896 1.019 5.61 5.61 0 0 0 1.869 1.12c.916.309 1.899.367 2.845.168 1.158-.243 2.211-.842 3.012-1.713.807-1.078 1.555-2.199 2.239-3.359a4.08 4.08 0 0 1 1.56-1.396 4.09 4.09 0 0 1 2.046-.441 4.73 4.73 0 0 1 2.138.571c.668.379 1.213.943 1.568 1.624.38.683.649 1.444 1.12 2.116a2.59 2.59 0 0 0 .861.852 2.6 2.6 0 0 0 1.154.369c.774.011 1.533-.208 2.183-.627a8.09 8.09 0 0 0 1.669-1.377 6.92 6.92 0 0 1 3.113-2.239 3.93 3.93 0 0 1 1.658.03c.544.128 1.055.369 1.499.709a5.4 5.4 0 0 1 1.736 2.139c.293.648.511 1.328.649 2.027l.202 1.332a2.29 2.29 0 0 0 .067.459v-.112-.358a12.92 12.92 0 0 0-.157-1.344 8.47 8.47 0 0 0-.616-2.072 5.44 5.44 0 0 0-1.758-2.239 4.18 4.18 0 0 0-3.359-.806 7.05 7.05 0 0 0-3.247 2.239c-.481.513-1.027.961-1.624 1.333a3.61 3.61 0 0 1-2.026.582 2.33 2.33 0 0 1-1.781-1.119c-.425-.627-.694-1.377-1.119-2.094a4.22 4.22 0 0 0-1.691-1.736 5.05 5.05 0 0 0-2.239-.616c-.777-.02-1.547.154-2.24.504a4.64 4.64 0 0 0-1.612 1.467c-.653 1.136-1.363 2.239-2.128 3.303-.757.842-1.76 1.425-2.866 1.668a5.13 5.13 0 0 1-2.755-.123 5.58 5.58 0 0 1-1.836-1.008c-.457-.37-.867-.795-1.221-1.265zm-5.687.112c-.088.189-.134.396-.134.605a5.09 5.09 0 0 0 .156 1.68c.225.823.626 1.587 1.176 2.239a6.92 6.92 0 0 0 2.486 1.803 10.15 10.15 0 0 0 5.475.627 14.18 14.18 0 0 0 1.646-.336 2.05 2.05 0 0 0 .582-.19l-2.239.314a10.71 10.71 0 0 1-5.33-.683 6.99 6.99 0 0 1-2.396-1.713 6.04 6.04 0 0 1-1.176-2.094 6.53 6.53 0 0 1-.246-2.251z"/></g><path d="M424.727 178.942a6.19 6.19 0 0 1-1.321 3.27 4.31 4.31 0 0 1-1.388 1.172c-.54.288-1.136.457-1.747.496-.83.043-1.656-.131-2.398-.504s-1.374-.932-1.835-1.623a12.06 12.06 0 0 1-1.218-4.542c-.104-1.579.105-3.164.614-4.662.75-1.803 2.407-3.483 4.355-3.527a4.81 4.81 0 0 1 3.01 1.031c.856.676 1.458 1.623 1.704 2.686" class="C"/><path d="M424.503 172.74a3.83 3.83 0 0 0-.47-1.254c-.258-.467-.582-.893-.963-1.266-.515-.489-1.135-.853-1.814-1.063a4.31 4.31 0 0 0-1.22-.191 3.69 3.69 0 0 0-1.333.168 5.31 5.31 0 0 0-2.374 1.713c-.691.845-1.171 1.844-1.399 2.912-.245 1.132-.332 2.292-.258 3.448.01 1.784.527 3.527 1.489 5.028.497.652 1.163 1.156 1.926 1.456.711.285 1.475.411 2.24.369a3.28 3.28 0 0 0 1.567-.392 5.2 5.2 0 0 0 1.176-.817 5.98 5.98 0 0 0 1.288-1.915c.2-.453.335-.931.403-1.422v-.381-.134a8.03 8.03 0 0 1-.56 1.87c-.315.684-.755 1.303-1.299 1.825a4.99 4.99 0 0 1-1.12.773 3.17 3.17 0 0 1-1.455.347 4.65 4.65 0 0 1-3.874-1.758c-.909-1.459-1.397-3.141-1.411-4.86a8.83 8.83 0 0 1 1.567-6.169 4.99 4.99 0 0 1 2.24-1.646 3.24 3.24 0 0 1 1.254-.18c.379.008.755.064 1.12.168a4.49 4.49 0 0 1 1.758.975c.377.353.705.756.974 1.198.206.388.39.788.548 1.198z" class="B"/><path d="M426.093 179.065a6.25 6.25 0 0 1-1.321 3.259c-.374.488-.848.889-1.391 1.177a4.28 4.28 0 0 1-1.755.491c-.83.042-1.655-.133-2.397-.506a4.8 4.8 0 0 1-1.836-1.621 12.09 12.09 0 0 1-.593-9.204c.739-1.803 2.407-3.483 4.355-3.528 1.083-.008 2.138.348 2.993 1.013a4.81 4.81 0 0 1 1.721 2.649" class="C"/><path d="M425.87 172.795a3.94 3.94 0 0 0-.47-1.254 5.23 5.23 0 0 0-.963-1.254c-.512-.494-1.134-.858-1.814-1.064-.396-.121-.807-.188-1.221-.202-.451-.021-.903.039-1.332.18-.941.322-1.766.914-2.374 1.702a6.72 6.72 0 0 0-1.4 2.911c-.244 1.132-.331 2.293-.257 3.449.011 1.781.523 3.523 1.478 5.027a4.48 4.48 0 0 0 1.937 1.456 5.21 5.21 0 0 0 2.183.369c.547.002 1.086-.132 1.568-.392.428-.215.824-.491 1.176-.817a5.88 5.88 0 0 0 1.287-1.915c.196-.45.332-.925.404-1.411a3.66 3.66 0 0 0 0-.392v-.123a7.98 7.98 0 0 1-.572 1.87c-.309.685-.746 1.304-1.287 1.825a5.36 5.36 0 0 1-1.12.762 3.2 3.2 0 0 1-1.456.347 4.65 4.65 0 0 1-3.863-1.758c-.908-1.459-1.396-3.141-1.41-4.86-.267-2.18.292-4.381 1.567-6.169.579-.747 1.354-1.317 2.24-1.646.403-.136.828-.197 1.254-.179a4.24 4.24 0 0 1 1.119.168 4.17 4.17 0 0 1 1.758.985 5.11 5.11 0 0 1 .975 1.187c.223.386.422.786.593 1.198z" class="B"/><path d="M423.619 172.146c.647-.081 1.304.051 1.87.376a3 3 0 0 1 1.265 1.427c.481 1.219.481 2.576 0 3.796-.196.635-.529 1.219-.974 1.713a2.49 2.49 0 0 1-.783.594c-.298.144-.622.228-.953.245-.486-.025-.958-.168-1.378-.416a3.01 3.01 0 0 1-1.029-1.006c-.453-.642-.761-1.376-.902-2.149s-.112-1.568.085-2.329c.268-1.019 1.007-2.05 2.049-2.072" class="C"/><g class="B"><path d="M422.858 172.347h-.224a1.54 1.54 0 0 0-.638.213 3.15 3.15 0 0 0-1.333 2.004c-.279 1.195-.149 2.449.37 3.561a4.47 4.47 0 0 0 1.299 1.713c.302.263.664.45 1.053.543a2.48 2.48 0 0 0 1.186-.006 3.09 3.09 0 0 0 1.792-1.467c.355-.623.609-1.3.75-2.004.149-.595.174-1.213.074-1.818a4.5 4.5 0 0 0-.656-1.698c-.477-.684-1.206-1.151-2.027-1.299-.223-.033-.449-.033-.672 0l-.224.067a3.71 3.71 0 0 1 .874.056 3.04 3.04 0 0 1 1.87 1.299c.306.497.507 1.052.59 1.63a4.26 4.26 0 0 1-.109 1.73c-.133.674-.379 1.322-.728 1.914a2.82 2.82 0 0 1-1.612 1.321c-.347.085-.708.085-1.055.001a2.23 2.23 0 0 1-.938-.482 4.48 4.48 0 0 1-1.232-1.59c-.491-1.048-.632-2.225-.403-3.359.129-.778.555-1.477 1.187-1.948.242-.178.515-.307.806-.381z"/><path d="M420.685 181.697s.112-.19.314-.425a2.16 2.16 0 0 1 .985-.639 6.58 6.58 0 0 1 1.232-.19c.325 0 .526 0 .526-.09s-.201-.089-.526-.123c-.444-.041-.892.001-1.321.123-.457.122-.855.404-1.12.795-.134.336-.123.549-.09.549zm-.458-10.346a1.21 1.21 0 0 0 .358.426c.363.272.785.456 1.232.537s.901.055 1.332-.078c.336-.101.504-.235.493-.269a7.81 7.81 0 0 1-1.769 0 7.16 7.16 0 0 1-1.646-.616z"/></g><path d="M244.561 132.967s-8.106 5.431-10.234 15.251c-1.679 7.715-6.27 48.45-6.27 48.45l-8.04 15.676 5.252 12.485a19.22 19.22 0 0 0 12.574-3.628l3.527-2.564 6.483-9.607-3.292-76.063z" fill="#1f1f1f"/><path d="M327.118 177.444l6.607-1.119s-13.941-38.485-22.227-42.247l-6.024-2.766v-.112l-9.932-4.053-11.622-4.267-.885-.324.37.358-23.291 1.489-1.813 1.377-11.948 6.248s-5.319 1.77-10.145 8.051-11.869 38.373-11.869 38.373l15.621 6.427 3.885 25.933-9.921 49.503 85.099-1.624-18.397-51.417 2.855-25.676 23.637-4.154z" class="I"/><g class="H"><path d="M242.387 220.172c8.702 4.086 18.13 6.4 27.735 6.807 3.359.135 7.021 0 9.887-1.847 1.117-.9 2.317-1.691 3.583-2.363 1.814-.728 3.852-.38 5.789-.168a39.08 39.08 0 0 0 13.493-.884 3.59 3.59 0 0 0 1.825-.851 1.3 1.3 0 0 0 .392-.89c.011-.337-.11-.664-.336-.913-.349-.224-.761-.334-1.176-.313l-60.733-3.035-.459 4.457z" fill="#000"/></g><g class="B"><path d="M236.881 158.856c.168 0 1.377 7.961 2.709 17.837l2.139 17.916c-.157 0-1.377-7.962-2.71-17.838s-2.295-17.893-2.138-17.915zm31.9-6.785c-.321-.239-.611-.517-.862-.829l-2.239-2.396-3.203-3.605-3.784-4.546a19.37 19.37 0 0 1-2.867-5.23c-.532-1.557-.737-3.207-.604-4.848.082-1.101.382-2.174.884-3.158a3.37 3.37 0 0 1 .683-.996 11.01 11.01 0 0 0-1.12 4.188 12.45 12.45 0 0 0 .706 4.635c.693 1.816 1.648 3.521 2.833 5.061 1.231 1.669 2.553 3.158 3.728 4.535l3.102 3.695 2.049 2.52a5.8 5.8 0 0 1 .694.974zm20.345-27.276a5.88 5.88 0 0 1-.134 1.355c-.229 1.226-.578 2.426-1.041 3.583-1.672 3.773-4.047 7.194-6.999 10.078l-8.521 8.767-2.631 2.609c-.306.338-.648.642-1.019.907.242-.386.528-.743.851-1.064l2.508-2.732 8.387-8.891a34.8 34.8 0 0 0 7.043-9.808c.617-1.568 1.137-3.172 1.556-4.804z"/></g><path d="M302.787 181.698l2.699 15.061-35.91 5.285 2.072 16.527S316 221 320.915 219.914c6.192-1.366 10.929-8.79 10.772-19.628-.056-4.289-2.049-12.855-4.58-22.831l-24.32 4.243z" fill="#1f1f1f"/><g class="B"><path d="M307.165 132.486c0 .067-.783.089-2.116.503a12 12 0 0 0-4.904 3.136c-1.999 2.131-3.306 4.816-3.751 7.703a21.58 21.58 0 0 0-.247 5.14c.149 1.849.445 3.684.885 5.486l4.244 19.215 1.119 5.856.258 1.601c.03.189.03.382 0 .571l-.515-2.127-1.344-5.812-4.411-19.18a34.99 34.99 0 0 1-.885-5.599c-.12-1.763-.022-3.535.291-5.274.483-2.979 1.875-5.737 3.986-7.894 1.451-1.461 3.263-2.511 5.252-3.046.528-.136 1.068-.226 1.612-.268.175-.019.351-.023.526-.011zm-124.893 64.261l51.887 19.214 43.748 6.685-52.011-25.351-43.624-.548z"/></g><g class="E"><path d="M204.476 217.53a22.03 22.03 0 0 0-2.755-7.838 6.03 6.03 0 0 1-.716-1.478 1.72 1.72 0 0 1 .302-1.557c.661-.716 1.881-.403 2.699.146 1.661 1.212 2.886 2.928 3.493 4.893.587 1.955.962 3.967 1.12 6.002"/><path d="M224.709 212.523h-2.541c-.62-.621-1.393-1.069-2.24-1.298a1.78 1.78 0 0 0-.944.1 1.79 1.79 0 0 0-.758.571l2.632-4.568c.47-1.12-.56-1.948-2.24-1.948s-9.014 10.402-9.014 10.402 4.569-8.364 5.006-9.652c1.119-3.191-2.385-3.427-3.651-1.881-1.579 1.903-7.939 11.533-7.939 11.533-.34.567-.551 1.202-.617 1.861a4.47 4.47 0 0 0 .237 1.946c.84 1.859 3.258 1.12 3.258 1.12a3.11 3.11 0 0 0 .507 1.519c.298.454.71.822 1.195 1.067 1.859 1.03 4.311-.168 4.311-.168l9.495 2.139 3.438-.347a10.54 10.54 0 0 0 6.227-2.867c1.698-1.623 2.805-3.767 3.145-6.091l-9.507-3.438z"/></g><g class="F"><path d="M218.305 211.751a31.02 31.02 0 0 1-2.788 4.479l-2.15 3.024c-.279.428-.598.829-.952 1.198.218-.465.481-.907.784-1.322l2.071-3.068 2.117-3.034.66-.907c.168-.269.235-.37.258-.37zm-.561 10.583a8.76 8.76 0 0 1 .84-1.546l2.239-3.627 1.198-1.994c.302-.538.378-1.174.213-1.769-.169-.553-.447-1.067-.817-1.511 0 0 .168.078.369.313a2.95 2.95 0 0 1 .65 1.12c.106.319.145.656.116.991s-.125.661-.284.957l-1.198 2.027-2.307 3.583a14.23 14.23 0 0 1-1.019 1.456z"/><path d="M222.727 223.285c.1-.513.27-1.01.503-1.478l.683-1.545c.284-.622.516-1.266.695-1.926a2.24 2.24 0 0 0 .051-.957c-.052-.319-.173-.623-.354-.89a1.59 1.59 0 0 0-.672-.482 1.83 1.83 0 0 0-.705-.201c-.362.055-.712.176-1.03.358-.235.123-.381.179-.381.157s.101-.112.325-.258c.137-.094.279-.18.425-.257.204-.116.429-.188.661-.213a2.15 2.15 0 0 1 .806.179 2.17 2.17 0 0 1 .795.537c.214.3.357.643.421 1.006a2.47 2.47 0 0 1-.051 1.088c-.181.676-.428 1.333-.739 1.96l-.728 1.534-.705 1.388zm1.758-8.98s.146 0 .403.123a4.77 4.77 0 0 1 .986.582 5.39 5.39 0 0 1 1.534 6.875 4.18 4.18 0 0 1-.65.952c-.179.201-.302.291-.313.28s.381-.47.772-1.321a5.47 5.47 0 0 0-1.478-6.629c-.716-.605-1.332-.818-1.254-.862zm-16.718-5.465c-1.345 2.35-2.864 4.596-4.546 6.719a56.61 56.61 0 0 1 4.546-6.719z"/></g><path d="M269.644 202.726l-5.924-1.344-5.721-5.363c-.691-.66-1.59-1.056-2.542-1.12l-10.369-.594a4.07 4.07 0 0 0-2.844.952l-7.412 6.259 32.348 15.788 4.479.392-2.015-14.97z" class="E"/><g class="F"><path d="M251.751 199.961l-2.005-.246a8.68 8.68 0 0 0-4.691.481c-.794.386-1.545.855-2.24 1.4l-1.758 1.299c-.411.279-.841.53-1.287.75-.158.085-.328.146-.504.179 0 0 .683-.358 1.668-1.12l1.724-1.343a11.46 11.46 0 0 1 2.24-1.456 6.88 6.88 0 0 1 2.654-.594c.75-.016 1.5.04 2.239.168l1.444.303a1.72 1.72 0 0 1 .516.179zm2.127 5.767s-.426-.134-1.12-.202c-.905-.085-1.818.042-2.665.37-.854.334-1.672.754-2.441 1.254a5.07 5.07 0 0 1-1.008.56c.258-.288.556-.537.885-.739a10.23 10.23 0 0 1 2.463-1.355c.885-.349 1.849-.454 2.788-.302.395.042.773.185 1.098.414zm13.336.962c-.067 0-.907-1.198-2.005-2.665-.705-.861-1.366-1.758-1.981-2.687 1.618 1.549 2.966 3.358 3.986 5.352z"/></g><path d="M250.888 194.945l13.146-12.239a1.25 1.25 0 0 0 .308-.445c.069-.169.1-.351.092-.533s-.057-.36-.142-.522a1.24 1.24 0 0 0-.348-.414 1.25 1.25 0 0 0-1.601.056l-15.419 13.817" class="I"/><g class="H"><path d="M250.887 194.946l13.145-12.239a1.25 1.25 0 0 0 .4-.978 1.24 1.24 0 0 0-.141-.522c-.085-.162-.203-.303-.348-.414a1.25 1.25 0 0 0-1.601.056l-15.419 13.817" fill="#000"/></g><path d="M248.425 78.282c-.574-2.43-.56-4.961.042-7.384a15.67 15.67 0 0 1 3.418-6.545c2.595-2.736 5.897-4.701 9.54-5.677a22.08 22.08 0 0 1 14.802.336c4.647 1.96 8.421 6.293 8.958 11.298.235 2.239-.179 4.647.549 6.819.467.879.666 1.876.571 2.866a2.37 2.37 0 0 1-.794 1.082c-.364.276-.8.441-1.255.475a5.32 5.32 0 0 1-2.643-.537c-2.781-1.379-5.318-3.202-7.513-5.397" class="B"/><path d="M248.346 80.711c.459-7.099 5.184-15.788 12.25-15.027l22.058 5.599c1.033.114 1.986.611 2.672 1.392a4.16 4.16 0 0 1 1.034 2.829l-2.474 53.22-14.444 17.143s-9.227-10.738-9.809-13.997c-.076-.369-.128-.743-.157-1.119a34.94 34.94 0 0 1-.09-7.301v-6.024c0 .034-9.058-1.523-10.906-13.347-.963-5.845-.649-15.486-.134-23.368z" class="E"/><g class="B"><path d="M251.84 89.289a1.54 1.54 0 0 0 .425 1.062 1.53 1.53 0 0 0 1.042.472c.193.014.386-.011.569-.072a1.47 1.47 0 0 0 .499-.285 1.48 1.48 0 0 0 .35-.455 1.45 1.45 0 0 0 .149-.554 1.52 1.52 0 0 0-1.466-1.534c-.193-.015-.388.008-.571.069s-.354.158-.5.285a1.47 1.47 0 0 0-.351.456c-.085.174-.135.363-.146.556zm-1.411-3.561c.179.201 1.332-.649 2.967-.638s2.822.828 3.001.627-.101-.448-.627-.829a4.11 4.11 0 0 0-2.396-.75c-.848 0-1.675.266-2.363.761-.504.381-.683.739-.582.829zm17.456 3.561c-.003.394.147.775.418 1.061a1.52 1.52 0 0 0 1.038.473c.193.015.387-.008.571-.069a1.45 1.45 0 0 0 .85-.741c.085-.174.135-.363.146-.556.006-.395-.143-.777-.415-1.064a1.51 1.51 0 0 0-1.04-.47c-.194-.017-.388.006-.573.066a1.44 1.44 0 0 0-.852.742 1.46 1.46 0 0 0-.143.558zm-1.422-3.214c.191.19 1.344-.65 2.968-.65s2.833.829 3.012.627-.101-.448-.627-.829c-.71-.483-1.549-.741-2.408-.739-.847-.008-1.675.255-2.362.75-.504.392-.672.75-.583.84zm-5.946 12.082c-.861-.269-1.752-.43-2.653-.482-.415 0-.807-.134-.874-.414a2.1 2.1 0 0 1 .28-1.232l1.232-3.169 2.788-8.297c-.179-.067-1.724 3.538-3.449 8.051l-1.187 3.191c-.261.503-.336 1.082-.212 1.635.059.147.151.278.27.383s.26.181.413.222a2.48 2.48 0 0 0 .705.101 10.4 10.4 0 0 0 2.687.011z"/></g><g class="F"><path d="M259.342 117.461a29.99 29.99 0 0 0 15.844-4.188s-3.997 8.174-15.822 7.043l-.022-2.855zm1.858-15.375c.307-.395.71-.706 1.17-.902a2.94 2.94 0 0 1 1.462-.218 2.7 2.7 0 0 1 1.032.315c.319.173.6.409.826.693a1.69 1.69 0 0 1 .124 1.937c-.262.294-.605.503-.987.598a1.96 1.96 0 0 1-1.152-.06c-.77-.273-1.478-.695-2.083-1.243-.187-.133-.346-.3-.47-.493-.061-.089-.093-.194-.093-.302s.032-.213.093-.302"/></g><g class="B"><path d="M265.31 99.299c-.258 0-.269 1.758-1.781 3.012s-3.359 1.053-3.426 1.299.425.347 1.22.369c1.038.013 2.047-.336 2.856-.985.768-.636 1.264-1.541 1.388-2.53.067-.739-.134-1.176-.257-1.165zm.426-16.135c.156.448 1.791.235 3.706.47s3.46.762 3.717.37c.112-.19-.157-.605-.784-1.041a6.45 6.45 0 0 0-2.726-.96 6.47 6.47 0 0 0-2.872.322c-.75.325-1.109.672-1.041.84zm-14.703-2.151c.292.37 1.411 0 2.766 0s2.497.258 2.755-.134c.123-.179-.056-.56-.56-.907a3.87 3.87 0 0 0-2.24-.616 3.93 3.93 0 0 0-2.239.739c-.448.347-.605.728-.482.918zm45.528 21.957c-3.068 1.265-5.8-8.185-8.611-9.943s-5.598 4.233-5.867.918c-.19-2.911.784-6.114-.728-8.622-2.004-3.359-7.211-3.438-9.238-6.718-1.119-1.915-.94-4.479-2.239-6.326s-3.359-2.463-5.498-2.788-4.277-.403-6.17-1.366-3.359-3.158-2.664-5.151c8.87-.644 17.786-.23 26.559 1.232 2.038.347 4.188.806 5.599 2.239s1.915 3.863 2.239 6.024c1.545 10.514 5.028 19.976 6.562 30.49"/></g><path d="M248.156 82.268c.593-6.931 4.759-15.676 11.063-18.677s13.727-3.292 19.472.661c6.203 4.266 7.838 11.455 8.633 18.946s-.392 10.189-2.139 17.524l-.75 16.135c4.333 4.938 9.999-.649 10.827-1.041s3.886-5.599 4.323-6.383c4.478-8.442-2.441-9.685-1.255-14.433a23.01 23.01 0 0 0-.884-14.388c-.896-2.127-2.161-4.109-2.878-6.293-.795-2.396-.907-4.994-1.903-7.312a13.36 13.36 0 0 0-5.711-6.091 27.6 27.6 0 0 0-7.961-2.855c-6.394-1.433-10.637-3.897-16.796-1.646S251.75 61.9 248.884 69.929a29.1 29.1 0 0 0-.739 12.317" class="I"/><g class="B"><path d="M250.619 68.506c.1-.234.228-.456.38-.661.4-.615.845-1.199 1.333-1.747 1.774-2.054 3.94-3.733 6.371-4.938a20.03 20.03 0 0 1 11.735-1.937 20.81 20.81 0 0 1 12.753 6.909c3.113 3.867 5.104 8.515 5.756 13.437a44.17 44.17 0 0 1 .436 11.959 25.1 25.1 0 0 1-2.049 7.838 15.97 15.97 0 0 1-1.019 1.949c-.119.226-.266.436-.436.627 0 0 .526-.919 1.254-2.665.995-2.477 1.618-5.089 1.847-7.749a45.58 45.58 0 0 0-.56-11.824 26.78 26.78 0 0 0-5.677-13.101c-3.203-3.634-7.591-6.014-12.384-6.718a19.75 19.75 0 0 0-11.477 1.78 21.05 21.05 0 0 0-6.382 4.714c-1.221 1.265-1.836 2.161-1.881 2.127zm45.729 45.483c0 .056-.403.605-1.399 1.12-1.316.722-2.817 1.034-4.311.896-1.49-.155-2.9-.748-4.054-1.702-.862-.739-1.209-1.366-1.119-1.411s.526.459 1.41 1.12c1.133.818 2.463 1.32 3.854 1.456s2.793-.1 4.063-.684c.963-.436 1.5-.862 1.556-.795zm-4.926-6.517c-.918-.688-1.79-1.436-2.609-2.239a25.52 25.52 0 0 1-2.676-2.106 6.59 6.59 0 0 1 3.046 1.658c.979.673 1.753 1.603 2.239 2.687z"/><path d="M292.384 98.571a7.42 7.42 0 0 0-1.119-2.81 7.36 7.36 0 0 0-2.508-1.736c0-.067.391-.134.996 0a4.01 4.01 0 0 1 1.971 1.332c.517.639.83 1.42.896 2.239-.023.627-.168.985-.236.974zm-.279-4.601c-.146.078-.56-.504-1.243-.985s-1.333-.728-1.31-.896.851-.179 1.657.425 1.041 1.4.896 1.456zm-6.83-29.204c.056.157-.414.459-.952.862s-.963.773-1.12.672.135-.672.751-1.12 1.276-.56 1.321-.414zm-1.703-.515c.101.123-.112.493-.492.817s-.773.504-.874.381.112-.493.493-.817.761-.504.873-.381z"/></g><path d="M282.968 95.346c0-.885 1.03-2.956 1.893-3.09 2.329-.358 6.516-.157 6.539 5.733 0 8.062-8.062 6.438-8.085 6.203s-.358-5.811-.347-8.846z" class="E"/><path d="M285.767 101.134s.146.09.381.202a1.39 1.39 0 0 0 1.052 0c.517-.335.936-.8 1.216-1.348a3.49 3.49 0 0 0 .374-1.776c.012-.689-.125-1.373-.403-2.004-.069-.261-.203-.5-.389-.695s-.418-.341-.674-.424c-.163-.044-.335-.029-.487.043s-.273.196-.342.349c-.101.224-.056.381-.09.392s-.179-.123-.112-.459a.83.83 0 0 1 .314-.504c.107-.086.231-.15.364-.186a1.01 1.01 0 0 1 .409-.026 1.96 1.96 0 0 1 1.478 1.243 4.71 4.71 0 0 1 .492 2.239c0 1.635-.873 3.158-2.026 3.494a1.48 1.48 0 0 1-.668.049c-.223-.035-.435-.121-.62-.251-.258-.145-.302-.325-.269-.336z" class="F"/><g fill="#f5f5f5"><path d="M278.69 100.227s-9.461 8.499-18.587 7.245-12.317-7.245-12.317-7.245-1.444 8.723 2.598 13.045c4.479 4.792 6.528 6.113 16.034 4.479s14.646-12.407 14.646-12.407l-2.374-5.117z"/><path d="M283.55 93.24a16.48 16.48 0 0 1-2.239 3.773 16.66 16.66 0 0 1-2.721 3.448 17.37 17.37 0 0 1 2.239-3.773c.752-1.264 1.667-2.423 2.721-3.449zm1.445 11.197c0 .168-.884.336-1.948.582s-1.926.493-1.993.336.739-.638 1.87-.896 2.071-.179 2.071-.022z"/></g><g class="B"><path d="M276.507 104.371a6.29 6.29 0 0 1-.874 1.019 25.5 25.5 0 0 1-2.743 2.407 21.2 21.2 0 0 1-11.074 4.569 15.14 15.14 0 0 1-6.02-.739 15.12 15.12 0 0 1-5.244-3.046c-.911-.824-1.669-1.802-2.24-2.889-.23-.388-.403-.806-.515-1.243.814 1.421 1.837 2.712 3.035 3.83a15.18 15.18 0 0 0 10.95 3.504c3.949-.437 7.707-1.926 10.884-4.311 2.452-1.78 3.762-3.18 3.841-3.101zm-4.871 5.978a7.84 7.84 0 0 1-2.239 1.579c-4.002 2.109-8.652 2.632-13.023 1.467-.904-.2-1.767-.552-2.553-1.041 0-.09 1.019.291 2.654.638 4.284.907 8.746.404 12.72-1.433 1.523-.706 2.385-1.299 2.441-1.21z"/></g><path d="M129.31 57.409c.829-3.897 3.617-5.957 7.312-7.446a12.41 12.41 0 0 1 5.855-.788c1.986.212 3.892.902 5.555 2.009 2.239 1.489 3.997 3.74 6.55 4.479 4.222 1.209 8.958-2.15 12.978-.515a5.65 5.65 0 0 1 3.457 6.312c-.246 1.29-.934 2.454-1.945 3.292s-2.282 1.298-3.595 1.302c2.755.84 3.796 4.647 2.352 7.144s-4.636 3.572-7.491 3.202a15.82 15.82 0 0 1-7.659-3.762c-2.24-1.803-4.278-3.863-6.663-5.487-2.318-1.753-5.182-2.629-8.084-2.475-3.874.414-7.054 3.538-8.588 7.11s-1.725 7.592-1.725 11.488.146 7.838-.806 11.634c-.023.23-.101.451-.225.645a1.49 1.49 0 0 1-.491.475c-.616.224-1.198-.414-1.534-.985-3.9-6.401-6.499-13.509-7.648-20.916-.672-4.289-.784-8.375 1.388-12.127s8.006-6.718 11.063-4.624" class="D"/><path d="M123.498 82.926c-.201-.078-7.838-2.094-7.412 5.677s8.163 5.699 8.163 5.475-.751-11.152-.751-11.152z" class="J"/><path d="M121.696 91.279s-.123.101-.347.224c-.312.157-.674.186-1.008.078a3.36 3.36 0 0 1-1.261-1.221c-.305-.511-.469-1.095-.474-1.69-.058-.665.034-1.335.269-1.959.055-.25.17-.483.336-.678a1.57 1.57 0 0 1 .615-.442c.155-.049.321-.044.472.015s.277.168.357.309c.112.201.067.37.112.381s.157-.146.078-.459a.86.86 0 0 0-.336-.47c-.11-.075-.234-.128-.365-.155s-.265-.028-.396-.002c-.315.084-.603.246-.838.471s-.409.506-.506.817a4.69 4.69 0 0 0-.336 2.239c.146 1.568 1.031 2.978 2.173 3.236.213.05.434.05.648.002a1.44 1.44 0 0 0 .583-.282c.224-.224.258-.403.224-.414z" class="K"/><path d="M141.324 55.784a20.95 20.95 0 0 1 8.198 1.057c2.635.893 5.066 2.302 7.151 4.145a20.95 20.95 0 0 1 4.991 6.588 20.94 20.94 0 0 1 2.054 8.006c.516 9.73.963 20.256.851 25.563-.235 11.376-11.622 13.056-11.622 13.056l.526 7.558c.135 2.001-.133 4.009-.788 5.905s-1.684 3.64-3.026 5.131-2.969 2.698-4.785 3.549a15 15 0 0 1-5.789 1.404c-1.968.075-3.931-.238-5.778-.923s-3.54-1.726-4.983-3.066a14.98 14.98 0 0 1-3.429-4.74c-.82-1.79-1.28-3.725-1.352-5.693l-1.691-45.908a20.95 20.95 0 0 1 19.483-21.678l-.011.045z" class="J"/><path d="M152.936 114.2c-5.18-.072-10.232-1.626-14.556-4.479 0 0 3.437 8.275 14.802 7.346l-.246-2.867z" class="K"/><g class="D"><path d="M159.89 83.586c.003.425-.161.834-.456 1.14s-.699.483-1.123.495a1.56 1.56 0 0 1-1.139-.391 1.57 1.57 0 0 1-.368-.491c-.089-.186-.14-.389-.15-.595-.001-.424.164-.832.458-1.137s.697-.484 1.12-.498c.207-.015.415.011.611.078a1.54 1.54 0 0 1 .9.803 1.55 1.55 0 0 1 .147.597zm1.041-3.974c-.202.201-1.433-.717-3.18-.728s-3.035.862-3.225.638.112-.47.672-.873c.762-.517 1.665-.787 2.586-.773.912.002 1.799.297 2.531.84.537.414.717.795.616.896zm-17.927 3.729c.003.424-.161.832-.456 1.136s-.699.479-1.123.488a1.54 1.54 0 0 1-1.141-.388 1.54 1.54 0 0 1-.369-.493 1.55 1.55 0 0 1-.147-.597 1.64 1.64 0 0 1 .463-1.129 1.63 1.63 0 0 1 1.116-.494 1.54 1.54 0 0 1 1.142.388 1.54 1.54 0 0 1 .368.493 1.53 1.53 0 0 1 .147.597zm.784-3.538c-.202.213-1.422-.705-3.169-.717s-3.046.862-3.225.638.112-.47.672-.873c.76-.521 1.665-.792 2.587-.773a4.23 4.23 0 0 1 2.519.829c.481.414.616.795.616.896zm6.192 13.01a11.35 11.35 0 0 1 2.844-.493c.448 0 .873-.123.94-.425a2.23 2.23 0 0 0-.28-1.332l-1.298-3.359-2.889-8.958c.201-.112 1.802 3.807 3.605 8.667l1.232 3.438c.28.537.36 1.156.224 1.747a1.12 1.12 0 0 1-.294.41 1.13 1.13 0 0 1-.445.239 2.86 2.86 0 0 1-.762.101 11.33 11.33 0 0 1-2.877-.034zm-5.162 1.176c.291 0 .28 1.881 1.892 3.236s3.639 1.12 3.651 1.433-.459.37-1.31.381c-1.116-.002-2.195-.399-3.046-1.12-.822-.684-1.347-1.659-1.467-2.721-.067-.761.157-1.221.28-1.209zm-.773-19.886c-.179.47-1.926.235-3.975.459s-3.717.784-3.986.347c-.123-.202.168-.65.84-1.12.896-.561 1.909-.91 2.961-1.019a6.92 6.92 0 0 1 3.108.391c.795.336 1.131.717 1.052.941zm16.64.28c-.313.392-1.512 0-2.967 0s-2.676.246-2.956-.179c-.123-.202.078-.593.616-.963a4.14 4.14 0 0 1 2.418-.638c.848.029 1.668.314 2.352.817.503.358.671.784.537.963zm5.027-4.031c-2.239 3.202-10.973 1.904-15.351-1.388a25.06 25.06 0 0 0-9.495-4.972 9.76 9.76 0 0 0-7.391 1.456 18.77 18.77 0 0 0-5.363 5.531c2.676 5.957 1.523 12.854.325 19.27a3.3 3.3 0 0 1-.84 1.948c-.929.806-2.419.314-3.359-.526a10.14 10.14 0 0 1-2.542-5.218c-1.121-4.343-1.361-8.866-.705-13.302a23 23 0 0 1 5.598-11.97c3.917-4.089 9.268-6.498 14.926-6.718 5.628-.154 11.162 1.464 15.822 4.625a15.68 15.68 0 0 1 5.374 5.509"/></g><path d="M123.756 130.637l-.436-13.503s2.687 12.316 16.739 12.193c13.437-.145 13.179-10.883 13.179-10.883l.482 5.441v21.98l-8.756 35.831-11.198 1.423-12.316-49.033 2.306-3.449z" class="I"/><path d="M151.985 126.315a1.51 1.51 0 0 1-.157.291 7.77 7.77 0 0 1-.538.784 11.46 11.46 0 0 1-2.497 2.419c-1.41 1.019-2.991 1.778-4.669 2.239-2.053.552-4.194.701-6.304.437-2.101-.292-4.145-.907-6.058-1.825-1.557-.743-3.038-1.636-4.422-2.665-.935-.695-1.828-1.443-2.677-2.24l-.683-.66c-.156-.157-.224-.235-.212-.247l.257.202.717.616c.616.537 1.534 1.287 2.721 2.138a27.74 27.74 0 0 0 4.411 2.598 20.84 20.84 0 0 0 5.98 1.769c2.074.264 4.18.127 6.203-.403 1.653-.425 3.218-1.137 4.624-2.105.946-.658 1.797-1.441 2.531-2.329l.773-1.019z" class="D"/><g fill="#ccc"><path d="M143.005 311.483l.201-57.957-.246-75.67-19.035-46.524-.605-13.997-11.018 8.376-16.303 53.343c-.246-1.926 3.874 49.1 3.874 49.1l-6.338 85.949 49.47-2.62z"/><path d="M158.132 123.281c-3.236-5.655-4.916-5.073-4.916-5.073l.168 2.016v4.244l-1.534 18.173-10.301 34.073 1.601 75.446 3.829 59.659 47.633-3.897-16.561-82.165 5.946-56.747-.425-31.274-25.44-14.455z"/></g><path d="M143.183 256.964c-.051-.274-.074-.551-.067-.829v-2.374l-.123-8.745-.448-28.821-.493-28.844-.112-8.734v-2.374a4.21 4.21 0 0 1 0-.84 4.52 4.52 0 0 1 .079.829l.112 2.374.302 8.745.661 28.832.28 28.833-.067 8.745-.056 2.374a6.78 6.78 0 0 1-.068.829z" class="D"/><path d="M112.459 134.78l2.239 1.691-1.579 10.312 26.426 27.68-23.996-31.509 2.049-8.174h-5.139z" class="C"/><path d="M143.229 208.939l-40.545-11.892-1.344-30.792 11.096-40.545s-26.481 13.19-28.284 21.611-6.158 28.866-6.617 43.669c-.414 13.223-.47 22.058 2.542 26.279 5.072 7.099 26.806 11.69 48.495 10.638 15.262-.751 30.49-4.77 39.896-10.66" fill="#ccc"/><path d="M140.06 175.124l-.134-.145-.37-.448-1.366-1.792-5.016-6.517-16.483-21.577-1.243-1.634v-.056-.068l2.05-8.162.134.168h-5.308v-.135-9.103-.056l7.973-6.058 2.239-1.634.583-.426.201-.134-.19.156-.549.448-2.15 1.691-7.916 6.136v-.089 9.103l-.079-.123h5.308v.168l-2.049 8.174v-.124l1.243 1.624 16.415 21.633 4.949 6.573 1.332 1.791.347.482.079.134z" class="D"/><path d="M183.572 137.737s9.607 7.099 10.447 18.509l2.508 40.186c.437 8.611-6.271 28.766-23.716 23.055l-49.122-16.571 2.564-16.416 45.909 2.733.907-38.272 10.503-13.224z" fill="#ccc"/><path d="M125.738 188.415s-12.989-1.4-16.001-.683-7.009 4.243-7.009 4.243l.067 5.129 20.894 5.867 2.049-14.556z" class="J"/><g class="D"><path d="M142.03 176.187l.067-.168c0-.134.112-.302.191-.515l.772-1.937 2.911-7.121 4.345-10.537 1.332-3.023 1.658-3.023c1.269-2.059 2.648-4.047 4.131-5.957l2.24-2.799v.145l-1.613-4.12v-.135h.146l6.718-2.306-.067.19-7.636-12.854c-.603-1.289-1.473-2.434-2.553-3.36a3.67 3.67 0 0 0-1.03-.425l-.381-.09h.392a3.19 3.19 0 0 1 1.052.381c.515.333.96.763 1.31 1.265.485.651.934 1.327 1.344 2.027l7.704 12.843.078.146h-.146l-6.718 2.318.079-.18 1.623 4.11v.078l-.056.067-2.239 2.8a68.75 68.75 0 0 0-4.11 5.923l-1.657 3.001-1.332 3.001-4.401 10.514-2.989 7.088-.829 1.914-.224.504c-.078.146-.101.247-.112.235zm46.815 40.108l-.156.168-.493.482a15.47 15.47 0 0 1-2.116 1.601 14.27 14.27 0 0 1-3.863 1.612c-1.804.449-3.675.566-5.52.348-1.075-.123-2.136-.344-3.169-.661l-3.303-1.12-7.256-2.575-16.718-5.666c-11.891-3.908-22.741-7.2-30.613-9.551l-9.316-2.755-2.53-.75-.661-.201-.224-.079h.235l.661.179 2.553.706 9.338 2.665c7.838 2.239 18.744 5.598 30.647 9.472l16.717 5.689 7.256 2.609c1.12.403 2.24.828 3.281 1.119a17.1 17.1 0 0 0 3.124.672c1.825.227 3.675.124 5.464-.302 1.349-.33 2.643-.854 3.841-1.557.749-.457 1.461-.974 2.127-1.545l.515-.459c.112-.056.179-.112.179-.101z"/><path d="M102.795 197.171c0 .056-.739-.1-1.892 0a8.5 8.5 0 0 0-2.016.325c-.789.243-1.542.589-2.239 1.03-1.268.837-2.342 1.936-3.146 3.225l-.929 1.657c-.045-.022 0-.179.157-.492a7.57 7.57 0 0 1 .605-1.266 9.83 9.83 0 0 1 3.158-3.359 9.51 9.51 0 0 1 2.34-1.041 8.19 8.19 0 0 1 2.072-.28 6.99 6.99 0 0 1 1.399.134c.167-.003.333.019.493.067zm-12.754-4.02v-.145a1.12 1.12 0 0 1 .246-.358c.394-.386.899-.637 1.445-.717a7.4 7.4 0 0 1 2.385 0 13.63 13.63 0 0 1 2.822.694 12.37 12.37 0 0 1 4.479 2.732 9.78 9.78 0 0 1 1.042 1.221 3.38 3.38 0 0 1 .302.504s-.504-.672-1.489-1.568c-1.305-1.162-2.827-2.052-4.479-2.62a13.66 13.66 0 0 0-2.766-.694 7.38 7.38 0 0 0-2.307-.067c-.516.051-1.004.258-1.4.593-.19.246-.28.437-.28.425zm15.117-35.372c-.089-.273-.153-.554-.19-.84l-.325-.94c-.123-.37-.347-.762-.604-1.176-.59-.987-1.28-1.91-2.061-2.755a22.36 22.36 0 0 0-3.168-2.776 18.92 18.92 0 0 0-6.92-3.18 14.22 14.22 0 0 0-2.307-.303 4.53 4.53 0 0 1-.862-.067c.287-.026.575-.026.862 0a11.93 11.93 0 0 1 2.34.213 18.12 18.12 0 0 1 7.054 3.146 21.04 21.04 0 0 1 3.191 2.833c.787.865 1.474 1.815 2.049 2.833a12.76 12.76 0 0 1 .571 1.22l.291.975a4.86 4.86 0 0 1 .078.817zm76.98 47.096v-.202-.582l-.101-2.24c-.201-2.705-.75-5.373-1.634-7.938a11.45 11.45 0 0 0-1.12-2.419c-.519-.808-1.268-1.444-2.15-1.825-1.847-.795-4.064-.694-6.326-.817l-14.792-.616-29.907-1.366.089-.068-.963 5.879-.269 1.556c0 .168 0 .303-.078.403v.135-.146-.403c0-.369.134-.884.224-1.556l.885-5.901v-.067h.089l29.908 1.243 14.791.638 3.359.179c1.059.055 2.1.29 3.08.694a4.95 4.95 0 0 1 2.239 1.915c.47.778.846 1.608 1.12 2.474.879 2.586 1.399 5.28 1.545 8.006a24.28 24.28 0 0 1 .056 2.24v.571a1.3 1.3 0 0 1-.045.213z"/><path d="M173.382 168.942c.079 0 .146 4.479.146 9.932l-.146 9.921c-.078 0-.145-4.479-.145-9.921l.145-9.932zm-88.938-22.617s0 .123-.112.37-.213.582-.325 1.119l-.996 4.233c-.761 3.706-1.702 9.137-2.766 15.934l-1.635 11.197c-.28 2.026-.459 4.131-.605 6.315l-.347 6.718c-.168 4.625-.269 9.518-.134 14.624 0 1.265.09 2.553.202 3.852 0 .649.134 1.287.213 1.937.118.643.275 1.279.47 1.903.391 1.263 1.009 2.443 1.825 3.482a7.9 7.9 0 0 0 3.135 2.419 46.56 46.56 0 0 0 8.163 3.124c2.855.851 5.789 1.545 8.779 2.15 6.496 1.342 13.091 2.147 19.718 2.407a90.22 90.22 0 0 0 9.417-.246c3.068-.213 6.058-.537 8.958-.963a94.8 94.8 0 0 0 16.101-3.773 82.45 82.45 0 0 0 12.989-5.599v.179l-17.815-6.304-4.77-1.713-1.243-.459-.414-.157.426.135 1.231.481 4.815 1.668 17.848 6.17.213.078-.201.101c-4.166 2.242-8.52 4.115-13.012 5.599a92.7 92.7 0 0 1-16.09 3.773c-2.9.437-5.901.762-8.958.974a90.85 90.85 0 0 1-9.45.258c-6.642-.257-13.252-1.058-19.763-2.396-3.001-.616-5.946-1.31-8.801-2.173-2.83-.791-5.581-1.84-8.219-3.135-1.284-.535-2.407-1.396-3.258-2.497a10.97 10.97 0 0 1-1.87-3.583c-.204-.634-.365-1.281-.481-1.937-.078-.661-.19-1.31-.224-1.959a76.52 76.52 0 0 1-.179-3.875c-.134-5.106 0-9.999.146-14.634l.358-6.719c.157-2.183.336-4.288.616-6.315l1.68-11.197 2.855-15.934c.392-1.858.75-3.28 1.03-4.232.123-.482.28-.829.358-1.12l.123-.28z"/></g><path d="M102.728 193.364c6.785-7.502 6.483-20.849 2.598-30.322-.359 10.256-1.568 19.36-2.497 29.325" class="C"/><g class="D"><path d="M105.337 164.957a1.26 1.26 0 0 1 0 .336c0 .247 0 .549-.067.93l-.269 3.448-.929 11.354-.896 11.354-.257 3.438c0 .38 0 .694-.079.94s0 .325 0 .325c-.019-.107-.019-.217 0-.325v-.94l.168-3.449.806-11.365 1.019-11.354.359-3.426c0-.381.089-.695.123-.941a1.11 1.11 0 0 1 .022-.325zm16.717-13.561c.079 0 .146 2.609.146 5.823l-.146 5.822c-.078 0-.145-2.609-.145-5.822l.145-5.823z"/></g><path d="M117.632 170.734a5.97 5.97 0 0 0 1.254 3.09 4.06 4.06 0 0 0 1.313 1.111c.512.272 1.076.432 1.654.468a4.54 4.54 0 0 0 4.009-2.004 11.42 11.42 0 0 0 .56-8.712c-.3-.889-.845-1.676-1.572-2.27a4.99 4.99 0 0 0-2.537-1.089 4.55 4.55 0 0 0-4.479 3.46" class="C"/><path d="M117.845 164.811c.081-.418.232-.819.447-1.187.245-.439.555-.839.919-1.187.479-.472 1.067-.818 1.713-1.007.363-.114.739-.178 1.12-.191a3.49 3.49 0 0 1 1.254.168c.886.309 1.664.87 2.239 1.613.655.799 1.108 1.743 1.321 2.754.236 1.073.319 2.174.247 3.27a9.02 9.02 0 0 1-1.4 4.747c-.47.623-1.107 1.101-1.836 1.378a4.81 4.81 0 0 1-2.061.347c-.514.003-1.022-.12-1.478-.359a4.97 4.97 0 0 1-1.119-.783c-.525-.517-.94-1.134-1.221-1.814-.184-.426-.312-.874-.381-1.333a2.84 2.84 0 0 1 0-.369v-.123a7.89 7.89 0 0 0 .538 1.769 5.9 5.9 0 0 0 1.22 1.735c.341.287.717.528 1.12.717.423.226.898.338 1.377.325.699.032 1.396-.103 2.032-.393a4.4 4.4 0 0 0 1.63-1.276c.864-1.38 1.329-2.973 1.343-4.602a8.37 8.37 0 0 0-1.489-5.834c-.548-.703-1.281-1.242-2.116-1.556a3.34 3.34 0 0 0-1.187-.168c-1.029.017-2.015.416-2.766 1.12-.356.329-.665.705-.918 1.119-.202.364-.385.738-.548 1.12z" class="D"/><path d="M116.344 170.846a5.96 5.96 0 0 0 1.254 3.091c.352.46.799.84 1.311 1.112a4.05 4.05 0 0 0 1.656.466 4.47 4.47 0 0 0 4.008-2.015c1.333-2.711 1.534-5.841.56-8.7-.304-.889-.851-1.675-1.58-2.269s-1.608-.972-2.54-1.091c-1.029-.011-2.032.325-2.845.955a4.56 4.56 0 0 0-1.634 2.517" class="C"/><path d="M116.556 164.9a3.77 3.77 0 0 1 .448-1.187c.243-.441.548-.845.907-1.198a4.48 4.48 0 0 1 1.724-1.008c.364-.111.74-.171 1.12-.179a3.29 3.29 0 0 1 1.265.168 4.9 4.9 0 0 1 2.24 1.612 6.45 6.45 0 0 1 1.321 2.755c.235 1.069.318 2.166.246 3.258-.014 1.686-.499 3.334-1.399 4.759-.478.615-1.112 1.09-1.837 1.377a4.81 4.81 0 0 1-2.071.347 3.09 3.09 0 0 1-1.489-.369 4.75 4.75 0 0 1-1.12-.773 5.6 5.6 0 0 1-1.221-1.814c-.183-.426-.311-.874-.38-1.332-.008-.123-.008-.247 0-.37-.008-.041-.008-.082 0-.123.108.609.289 1.203.537 1.769.292.648.707 1.234 1.221 1.725.334.297.712.542 1.119.727.425.222.899.333 1.378.325a4.41 4.41 0 0 0 2.031-.386c.636-.288 1.195-.724 1.63-1.271a8.85 8.85 0 0 0 1.344-4.602c.239-2.062-.291-4.139-1.489-5.834-.548-.71-1.286-1.249-2.128-1.556-.359-.125-.739-.182-1.12-.168-.379-.004-.756.049-1.119.157-.629.175-1.206.502-1.68.951-.363.323-.673.701-.918 1.12-.206.363-.393.737-.56 1.12z" class="D"/><path d="M118.684 164.307c-.611-.08-1.231.044-1.766.351a2.81 2.81 0 0 0-1.19 1.351 4.86 4.86 0 0 0 0 3.594c.19.596.503 1.145.918 1.613.423.472 1.014.761 1.646.806a2.89 2.89 0 0 0 1.281-.403c.389-.234.718-.556.959-.941a5.18 5.18 0 0 0 .853-2.031 5.17 5.17 0 0 0-.07-2.201c-.257-.952-.963-1.926-1.948-1.96" class="C"/><g class="D"><path d="M119.401 164.486h.224c.21.024.412.093.593.202a2.92 2.92 0 0 1 .824.818c.217.325.368.69.442 1.074.257 1.128.135 2.308-.347 3.359a4.27 4.27 0 0 1-1.232 1.624 2.4 2.4 0 0 1-1.002.515 2.41 2.41 0 0 1-1.126 0 3.03 3.03 0 0 1-1.702-1.388 6.59 6.59 0 0 1-.705-1.904c-.141-.568-.166-1.158-.071-1.736s.305-1.13.62-1.623a3.01 3.01 0 0 1 1.926-1.221 2.27 2.27 0 0 1 .627 0c.145 0 .212.056.212.068-.271-.04-.546-.04-.817 0-.727.172-1.362.612-1.78 1.231-.283.47-.469.991-.548 1.533s-.049 1.094.089 1.625c.133.638.367 1.25.694 1.814.335.596.883 1.044 1.534 1.254.327.078.669.077.996-.003a2.13 2.13 0 0 0 .885-.456 4.23 4.23 0 0 0 1.12-1.512c.472-1.001.605-2.129.38-3.213a2.92 2.92 0 0 0-1.119-1.848 2.61 2.61 0 0 0-.717-.213z"/><path d="M121.461 173.355s-.1-.168-.291-.392c-.252-.284-.577-.493-.94-.605-.365-.102-.741-.162-1.12-.179-.313 0-.504 0-.504-.089s.191-.079.504-.112c.418-.045.84-.007 1.243.112a1.85 1.85 0 0 1 1.019.75c.134.291.123.515.089.515zm.437-9.798s-.09.19-.348.392a2.75 2.75 0 0 1-1.119.515 2.81 2.81 0 0 1-1.266-.078c-.313-.101-.481-.224-.459-.247.55.122 1.118.133 1.671.033a4.24 4.24 0 0 0 1.554-.615h-.033zm37.846-39.459s.067 0 .179.067c.171.068.336.151.493.246a9.56 9.56 0 0 1 1.646 1.187c1.694 1.489 2.926 3.432 3.549 5.599a35.8 35.8 0 0 1 1.355 6.528l.179 2.015a3.65 3.65 0 0 1 0 .739 3.09 3.09 0 0 1-.123-.727l-.269-2.005c-.309-2.191-.788-4.355-1.433-6.472-.599-2.117-1.759-4.032-3.359-5.542a18.25 18.25 0 0 0-2.217-1.635zm-6.864 60.632c1.601-.067 2.878-1.657 4.479-1.567a2.23 2.23 0 0 1 .935.152 2.25 2.25 0 0 1 .789.526 2.24 2.24 0 0 1 .5.805c.107.301.149.621.123.94s-.121.627-.277.906-.37.521-.627.71a2.24 2.24 0 0 1-.865.388c-.313.066-.636.065-.947-.005-1.68-.201-2.654-2.161-4.3-2.541"/><path d="M166.417 186.086c-.499.001-.997-.04-1.489-.123l.089-.538a6.36 6.36 0 0 0 2.563.025 6.34 6.34 0 0 0 2.364-.988c1.624-1.198 2.676-3.359 3.124-6.371v-.112c.179-1.209.426-24.768.426-29.236.11-1.886-.482-3.746-1.663-5.22a7.63 7.63 0 0 0-4.731-2.763c-.246 0-5.822-.975-8.778 6.662-3.091 7.983-8.04 23.391-8.376 25.194 0 .223-.101.492-.168.806-.515 2.318-1.59 7.121 1.624 9.898 3.572 3.079 6.393 1.892 6.505 1.836l.235.504c-.134.056-3.247 1.4-7.099-1.926-3.46-2.989-2.34-8.017-1.802-10.424l.168-.795c.324-1.814 5.296-17.289 8.397-25.295s9.328-7.009 9.384-6.998c1.985.342 3.777 1.395 5.041 2.964s1.912 3.545 1.823 5.557c0 3.684-.247 27.993-.437 29.314v.112c-.459 3.18-1.59 5.442-3.359 6.719-1.115.808-2.464 1.229-3.841 1.198z"/><path d="M173.785 153.244a9.9 9.9 0 0 0-1.119-2.744 9.6 9.6 0 0 0-2.24-2.362c-1.05-.798-2.255-1.366-3.538-1.669-2.357-.515-4.819-.194-6.965.907-.875.482-1.69 1.065-2.43 1.736 0 0 0-.056.124-.168s.212-.258.414-.437c.537-.514 1.139-.954 1.791-1.31a9.9 9.9 0 0 1 3.102-1.12 10.08 10.08 0 0 1 4.031.079 9.33 9.33 0 0 1 3.639 1.747c.869.68 1.608 1.511 2.184 2.452.388.638.675 1.333.851 2.06.054.191.091.385.112.582.055.179.055.247.044.247zm14.03 44.039c-.201-.8-.455-1.585-.761-2.351-.785-1.821-2.08-3.377-3.729-4.479a8.16 8.16 0 0 0-3.034-1.12c-.997-.168-1.904-.224-2.665-.28l-1.814-.123a2.54 2.54 0 0 1-.672-.089c.223-.024.448-.024.672 0h1.814a23.86 23.86 0 0 1 2.709.224 8.02 8.02 0 0 1 3.136 1.119 10.08 10.08 0 0 1 3.773 4.647 9.05 9.05 0 0 1 .504 1.758c.046.229.069.461.067.694z"/></g><path d="M160.024 188.09s5.419-8.208 6.808-9.283 13.201-6.404 14.556-5.598.526 2.721.526 2.721 5.005-1.747 5.543-1.064a2.48 2.48 0 0 1 0 2.822s2.766-.426 2.766.425c-.01.573-.16 1.135-.437 1.637a3.5 3.5 0 0 1-1.153 1.241c-1.277.963-9.596 6.494-10.257 8.017l-2.699-.157-15.653-.761z" class="J"/><g class="K"><path d="M175.622 185.739a1.59 1.59 0 0 1 .246-.515c.262-.448.558-.874.885-1.277 1.103-1.341 2.433-2.478 3.93-3.359 1.482-.877 3.037-1.626 4.647-2.239l1.456-.526a2.04 2.04 0 0 1 .559-.146c-.165.097-.337.183-.515.258l-1.422.604c-1.576.641-3.106 1.389-4.579 2.24a16.8 16.8 0 0 0-3.919 3.191l-1.288 1.769zm-6.876-.123c.062-.211.148-.414.258-.605l.84-1.59a13.89 13.89 0 0 1 1.489-2.239 7.19 7.19 0 0 1 1.12-1.12l1.444-.884c1.694-1.011 3.46-1.895 5.285-2.643.556-.222 1.124-.413 1.702-.571a2.7 2.7 0 0 1 .65-.112s-.896.258-2.24.873c-1.812.803-3.573 1.715-5.274 2.733l-1.422.873c-.413.309-.789.666-1.119 1.064a18.02 18.02 0 0 0-1.523 2.138l-.907 1.534a3.81 3.81 0 0 1-.303.549z"/></g><path d="M212.236 4.222h-.549-1.612-1.187l-1.411.202-1.657.358-1.859.459c-3.179.807-6.204 2.127-8.958 3.908-4.081 2.595-7.515 6.089-10.038 10.215a31.69 31.69 0 0 0-4.518 13.59 32.81 32.81 0 0 0-.09 4.344c0 .728 0 1.478.146 2.239l.336 2.239c.567 3.076 1.581 6.053 3.012 8.835 1.53 2.903 3.473 5.569 5.766 7.916 2.449 2.402 5.251 4.415 8.309 5.968a30.16 30.16 0 0 0 10.133 3.113c.894.131 1.795.206 2.699.224.907 0 1.814.09 2.732 0a33.74 33.74 0 0 0 5.475-.694 32.06 32.06 0 0 0 10.884-4.58h-.325l11.085 4.479.661.269-.19-.683-3.236-11.847v.291c3.007-3.991 5.036-8.631 5.923-13.549a29.21 29.21 0 0 0 .425-6.942c-.017-1.126-.122-2.249-.313-3.359l-.246-1.624c-.079-.504-.269-1.053-.392-1.568-1.879-7.294-6.293-13.681-12.452-18.016-2.262-1.633-4.742-2.941-7.367-3.885l-1.657-.605-1.579-.392-1.445-.347c-.459-.09-.907-.134-1.321-.202-.84-.112-1.579-.246-2.239-.28l-1.635-.056h-.997l.997.078 1.612.112c.638 0 1.377.213 2.24.336a31.53 31.53 0 0 1 16.076 7.966 31.52 31.52 0 0 1 9.128 15.447c.124.515.28 1.019.381 1.545l.235 1.59c.176 1.085.274 2.182.291 3.281a28.1 28.1 0 0 1-.447 6.808c-.881 4.815-2.879 9.356-5.834 13.258l-.101.123v.168l3.236 11.858.47-.414-11.096-4.479-.168-.067-.157.101c-3.241 2.14-6.852 3.658-10.648 4.479-1.758.379-3.545.603-5.341.672a23.67 23.67 0 0 1-2.677 0 19.04 19.04 0 0 1-2.642-.224 29.51 29.51 0 0 1-9.898-3.023 32.38 32.38 0 0 1-8.141-5.834 33.23 33.23 0 0 1-5.665-7.748c-1.417-2.718-2.425-5.631-2.99-8.644l-.336-2.183c-.112-.717-.09-1.467-.146-2.239-.073-1.418-.05-2.84.068-4.255a31.34 31.34 0 0 1 4.372-13.39A31.35 31.35 0 0 1 195.16 9.44a30.02 30.02 0 0 1 8.835-3.986l1.825-.481 1.679-.19 1.411-.235c.437 0 .829-.056 1.176-.09l1.601-.112.549-.123z" class="B"/><path d="M224.183 31.073c-.66-2.934-3.46-5.464-6.449-5.162-.89.115-1.747.413-2.518.873a6.55 6.55 0 0 0-1.961 1.803c-.39.48-.742.989-1.053 1.523a11.61 11.61 0 0 0-1.041-1.523 6.61 6.61 0 0 0-1.962-1.805c-.771-.462-1.627-.762-2.517-.882-2.989-.291-5.789 2.239-6.449 5.162a10.55 10.55 0 0 0 .199 4.476c.387 1.461 1.082 2.821 2.04 3.989a16.93 16.93 0 0 0 9.932 6.718c3.359-.773 7.625-4.244 9.439-6.651.981-1.168 1.697-2.534 2.101-4.005a10.58 10.58 0 0 0 .239-4.516z" fill="#ff383c"/><path d="M223.635 36.528h-.101-.246-1.12-4.12.067l-1.254 4.591-.079.28-.089-.269-2.419-6.931-.773-2.239h.168l-2.687 4.591h-.078l2.676-4.602.112-.179.067.202.784 2.239 2.396 6.931h-.179l1.299-4.591h4.12 1.512l-.056-.022z" fill="#fafafa"/></g><defs><linearGradient id="A" x1="258" y1="0" x2="258" y2="240" href="#T"><stop stop-color="#f2f3f3"/><stop offset="1" stop-color="#ccf1ff"/></linearGradient><linearGradient id="B" x1="230.188" y1="166.531" x2="249.017" y2="166.531" href="#T"><stop stop-color="#ccdcff"/><stop offset=".5" stop-color="#ccdcff" stop-opacity=".5"/><stop offset="1" stop-color="#ccdcff" stop-opacity="0"/></linearGradient><linearGradient id="C" x1="274.371" y1="91.692" x2="274.371" y2="241.37" href="#T"><stop stop-color="#ccdcff" stop-opacity="0"/><stop offset=".5" stop-color="#ccdcff"/></linearGradient><linearGradient id="D" x1="297.219" y1="165.671" x2="316.801" y2="165.671" href="#T"><stop offset=".5" stop-color="#ccdcff" stop-opacity="0"/><stop offset=".75" stop-color="#ccdcff" stop-opacity=".5"/><stop offset="1" stop-color="#ccdcff"/></linearGradient><linearGradient id="E" x1="195.543" y1="166.101" x2="229.435" y2="166.101" href="#T"><stop stop-color="#ccdcff"/><stop offset=".5" stop-color="#ccdcff" stop-opacity=".5"/><stop offset="1" stop-color="#ccdcff" stop-opacity="0"/></linearGradient><linearGradient id="F" x1="316.047" y1="166.531" x2="351.446" y2="166.531" href="#T"><stop offset=".5" stop-color="#ccdcff" stop-opacity="0"/><stop offset=".75" stop-color="#ccdcff" stop-opacity=".5"/><stop offset="1" stop-color="#ccdcff"/></linearGradient><linearGradient id="G" x1="160.898" y1="165.241" x2="210.606" y2="165.241" href="#T"><stop stop-color="#ccdcff"/><stop offset=".5" stop-color="#ccdcff" stop-opacity=".5"/><stop offset="1" stop-color="#ccdcff" stop-opacity="0"/></linearGradient><linearGradient id="H" x1="119.474" y1="165.671" x2="190.271" y2="165.671" href="#T"><stop stop-color="#ccdcff"/><stop offset=".5" stop-color="#ccdcff" stop-opacity=".5"/><stop offset="1" stop-color="#ccdcff" stop-opacity="0"/></linearGradient><linearGradient id="I" x1="335.629" y1="165.671" x2="385.338" y2="165.671" href="#T"><stop offset=".5" stop-color="#ccdcff" stop-opacity="0"/><stop offset=".75" stop-color="#ccdcff" stop-opacity=".5"/><stop offset="1" stop-color="#ccdcff"/></linearGradient><linearGradient id="J" x1="69.766" y1="169.112" x2="166.923" y2="169.112" href="#T"><stop stop-color="#ccdcff"/><stop offset=".5" stop-color="#ccdcff" stop-opacity=".5"/><stop offset="1" stop-color="#ccdcff" stop-opacity="0"/></linearGradient><linearGradient id="K" x1="355.212" y1="166.531" x2="426.009" y2="166.531" href="#T"><stop offset=".5" stop-color="#ccdcff" stop-opacity="0"/><stop offset=".75" stop-color="#ccdcff" stop-opacity=".5"/><stop offset="1" stop-color="#ccdcff"/></linearGradient><linearGradient id="L" x1="20.811" y1="165.671" x2="141.316" y2="165.671" href="#T"><stop stop-color="#ccdcff"/><stop offset=".5" stop-color="#ccdcff" stop-opacity=".5"/><stop offset="1" stop-color="#ccdcff" stop-opacity="0"/></linearGradient><linearGradient id="M" x1="377.053" y1="165.671" x2="478.729" y2="165.671" href="#T"><stop offset=".5" stop-color="#ccdcff" stop-opacity="0"/><stop offset=".75" stop-color="#ccdcff" stop-opacity=".5"/><stop offset="1" stop-color="#ccdcff"/></linearGradient><linearGradient id="N" x1="-16.094" y1="144.596" x2="101.398" y2="144.596" href="#T"><stop stop-color="#ccdcff"/><stop offset=".5" stop-color="#ccdcff" stop-opacity=".5"/><stop offset="1" stop-color="#ccdcff" stop-opacity="0"/></linearGradient><linearGradient id="O" x1="404.167" y1="167.391" x2="532.956" y2="167.391" href="#T"><stop offset=".5" stop-color="#ccdcff" stop-opacity="0"/><stop offset=".75" stop-color="#ccdcff" stop-opacity=".5"/><stop offset="1" stop-color="#ccdcff"/></linearGradient><linearGradient id="P" x1="-22.872" y1="119.649" x2="47.172" y2="119.649" href="#T"><stop stop-color="#ccdcff"/><stop offset=".5" stop-color="#ccdcff" stop-opacity=".5"/><stop offset="1" stop-color="#ccdcff" stop-opacity="0"/></linearGradient><linearGradient id="Q" x1="444.837" y1="138.574" x2="538.982" y2="138.574" href="#T"><stop offset=".5" stop-color="#ccdcff" stop-opacity="0"/><stop offset=".75" stop-color="#ccdcff" stop-opacity=".5"/><stop offset="1" stop-color="#ccdcff"/></linearGradient><clipPath id="R"><path d="M0 16C0 7.163 7.163 0 16 0h484c8.837 0 16 7.163 16 16v208c0 8.837-7.163 16-16 16H16c-8.837 0-16-7.163-16-16V16z" class="G"/></clipPath><path id="S" d="M-16.454 228.099h554.289"/><linearGradient id="T" gradientUnits="userSpaceOnUse"/></defs></svg>