<svg width="25" height="25" viewBox="0 0 25 25" fill="none" xmlns="http://www.w3.org/2000/svg">
<path d="M12.4996 2.0625C18.2641 2.0625 22.9371 6.73553 22.9371 12.5C22.9371 18.2645 18.2641 22.9375 12.4996 22.9375C10.6141 22.9374 8.8443 22.4369 7.31702 21.5615L7.13049 21.4551L6.92542 21.5166L2.23792 22.915C2.03684 22.975 1.81913 22.9134 1.67932 22.7568C1.53948 22.6001 1.50299 22.3759 1.58557 22.1826L3.38147 17.9805L3.47717 17.7559L3.35901 17.542C2.53281 16.0471 2.06213 14.3279 2.06213 12.5C2.06213 6.73564 6.73533 2.06268 12.4996 2.0625ZM12.4996 3.14551C7.33364 3.14569 3.14612 7.33395 3.14612 12.5C3.14612 14.308 3.65822 15.9948 4.54553 17.4248C4.63864 17.5748 4.65302 17.7614 4.58362 17.9238L3.45471 20.5654L3.03577 21.5469L4.05725 21.2412L7.05627 20.3467C7.20621 20.302 7.36832 20.3237 7.50061 20.4072V20.4082C8.94623 21.3241 10.6604 21.8544 12.4996 21.8545C17.6658 21.8545 21.8541 17.6661 21.8541 12.5C21.8541 7.33384 17.6658 3.14551 12.4996 3.14551ZM8.95178 7.7998V7.80078C9.11429 7.83072 9.25502 7.93322 9.33264 8.0791L10.441 10.1621C10.5607 10.387 10.5072 10.6653 10.3131 10.8301L9.44299 11.5684L9.12561 11.8379L9.33362 12.1992C9.75682 12.9324 10.3306 13.7313 11.1041 14.5049C11.8484 15.2492 12.5935 15.7859 13.2711 16.1719L13.5475 16.3291L13.8073 16.1465L15.1754 15.1826C15.3503 15.0595 15.5816 15.0508 15.7653 15.1602V15.1592L17.5133 16.2012C17.6652 16.2917 17.763 16.4507 17.776 16.627C17.7873 16.7813 17.7323 16.932 17.6266 17.042L17.5778 17.0869L16.9615 17.5889C16.4503 18.0052 15.7543 18.2464 15.0397 18.0625C13.9849 17.7909 12.1516 17.0845 10.3385 15.2715C8.651 13.584 7.8282 11.7847 7.44397 10.6465C7.13391 9.72792 7.49954 8.79667 8.16956 8.21191L8.49768 7.9248C8.62202 7.81632 8.78948 7.77011 8.95178 7.7998Z" fill="white" stroke="white"/>
</svg>
