<svg width="40" height="40" viewBox="0 0 40 40" fill="none" xmlns="http://www.w3.org/2000/svg">
<path d="M34.1048 14.179V36H23.9105C22.7546 36 21.6461 35.5408 20.8288 34.7235C20.0115 33.9062 19.5524 32.7977 19.5524 31.6419C19.5524 32.2142 19.4397 32.7809 19.2206 33.3097C19.0016 33.8384 18.6806 34.3189 18.2759 34.7235C17.8712 35.1282 17.3908 35.4492 16.8621 35.6683C16.3333 35.8873 15.7666 36 15.1943 36H5V14.179C5.57359 14.1811 6.14194 14.0698 6.67245 13.8517C7.20296 13.6336 7.68519 13.3129 8.09149 12.908C8.4978 12.5031 8.82017 12.022 9.04014 11.4923C9.26011 10.9625 9.37334 10.3946 9.37333 9.82095V4H29.7314V9.82095C29.7314 10.3946 29.8447 10.9625 30.0646 11.4923C30.2846 12.022 30.607 12.5031 31.0133 12.908C31.4196 13.3129 31.9018 13.6336 32.4323 13.8517C32.9628 14.0698 33.5312 14.1811 34.1048 14.179Z" stroke="#0185B7" stroke-width="2.91048" stroke-miterlimit="10"/>
<path d="M19.5524 17.0895L13.7314 4H25.3733L19.5524 17.0895Z" stroke="#0185B7" stroke-width="2.91048" stroke-miterlimit="10"/>
<path d="M19.5527 31.6417V17.0894" stroke="#0185B7" stroke-width="2.91048" stroke-miterlimit="10"/>
<path d="M5 21.4478H15.1943" stroke="#0185B7" stroke-width="2.91048" stroke-miterlimit="10"/>
<path d="M5 28.7314H15.1943" stroke="#0185B7" stroke-width="2.91048" stroke-miterlimit="10"/>
<path d="M23.9102 21.4478H34.1044" stroke="#0185B7" stroke-width="2.91048" stroke-miterlimit="10"/>
<path d="M23.9102 28.7314H34.1044" stroke="#0185B7" stroke-width="2.91048" stroke-miterlimit="10"/>
</svg>
